#VRML V2.0 utf8


Group {
  children 
    DEF o0 Group {
      children 
        DEF o1 Group {
          children 
            DEF o2 Transform {
              translation 0 0 0
              rotation 0 0 1  0
              scale 1 1 1
              scaleOrientation 0 0 1  0
              center 0 0 0
              children 
                DEF o3 Shape {
                  appearance 
                  Appearance {
                    material 
                    Material {
                      diffuseColor 0.44705883 0.47450981 0.50196081
                      ambientIntensity 0.33333334
                      specularColor 0.53333336 0.53333336 0.53333336
                      shininess 0.89999998

                    }

                  }
                  geometry 
                  DEF SoFCIndexedFaceSet IndexedFaceSet {
                    coord 
                    Coordinate {
                      point [ -12.665 -11.112 6.4060001,
                          -12.665 8.3879995 6.4060001,
                          -12.636 -11.112 5.7989998,
                          -12.636 8.3879995 5.7989998,
                          -12.552 -11.112 7.0040002,
                          -12.552 8.3879995 7.0040002,
                          -12.467 -11.112 5.2150002,
                          -12.467 8.3879995 5.2150002,
                          -12.167 -11.112 4.6859999,
                          -12.167 8.3879995 4.6859999,
                          -11.815 -11.112 8.5170002,
                          -11.815 8.3879995 8.5170002,
                          -11.752 -11.112 4.2420001,
                          -11.752 8.3879995 4.2420001,
                          -11.46 -11.112 9.533,
                          -11.46 8.3879995 9.533,
                          -11.246 -11.112 3.905,
                          -11.246 8.3879995 3.905,
                          -11.244 -11.112 10.587,
                          -11.244 8.3879995 10.587,
                          -11.229 -11.112 6.3660002,
                          -11.229 8.3879995 6.3660002,
                          -11.212 -11.112 5.9439998,
                          -11.171 -11.112 11.661,
                          -11.171 -11.112 22.67,
                          -11.171 8.3879995 11.661,
                          -11.171 8.3879995 16.125,
                          -11.171 8.3879995 22.67,
                          -11.171 11.088 16.125,
                          -11.162 8.3879995 5.8109999,
                          -11.112 -11.112 6.7709999,
                          -11.112 8.3879995 6.7709999,
                          -11.077 8.3879995 14.689,
                          -11.077 8.3879995 17.561001,
                          -11.077 11.088 14.689,
                          -11.077 11.088 17.561001,
                          -10.951 -11.112 5.4460001,
                          -10.951 -11.112 7.0040002,
                          -10.845 8.3879995 5.3520002,
                          -10.845 8.3879995 7.098,
                          -10.796 8.3879995 13.278,
                          -10.796 8.3879995 18.972,
                          -10.796 11.088 13.278,
                          -10.796 11.088 18.972,
                          -10.675 -11.112 3.6960001,
                          -10.675 8.3879995 3.6960001,
                          -10.613 -11.112 5.1919999,
                          -10.613 -11.112 7.2579999,
                          -10.488 8.3879995 5.1259999,
                          -10.488 8.3879995 7.3239999,
                          -10.334 8.3879995 11.915,
                          -10.334 8.3879995 20.334999,
                          -10.334 11.088 11.915,
                          -10.334 11.088 20.334999,
                          -10.288 -11.112 23.966999,
                          -10.288 8.3879995 23.966999,
                          -10.213 -11.112 5.059,
                          -10.213 -11.112 7.3909998,
                          -10.213 8.3879995 7.3909998,
                          -10.071 -11.112 3.625,
                          -10.071 8.3879995 3.625,
                          -9.9300003 -11.112 5.059,
                          -9.9300003 8.3879995 5.059,
                          -9.7919998 8.3879995 7.3579998,
                          -9.698 8.3879995 10.625,
                          -9.698 8.3879995 21.625,
                          -9.698 11.088 10.625,
                          -9.698 11.088 21.625,
                          -9.6549997 -11.112 7.3239999,
                          -9.6549997 8.3879995 5.1259999,
                          -9.4040003 -11.112 5.2579999,
                          -9.2980003 8.3879995 7.098,
                          -9.2519999 -11.112 25.146,
                          -9.2519999 8.3879995 25.146,
                          -9.1920004 -11.112 5.4460001,
                          -9.1920004 -11.112 7.0040002,
                          -9.0310001 -11.112 6.7709999,
                          -9.0310001 8.3879995 6.7709999,
                          -8.9809999 8.3879995 5.8109999,
                          -8.9300003 -11.112 5.9439998,
                          -8.9130001 -11.112 6.3660002,
                          -8.9130001 8.3879995 6.3660002,
                          -8.8979998 8.3879995 9.4289999,
                          -8.8979998 8.3879995 22.820999,
                          -8.8979998 11.088 9.4289999,
                          -8.8979998 11.088 22.820999,
                          -8.1709995 9.1999998 16.125,
                          -8.1709995 11.088 16.125,
                          -8.1507111 9.1999998 16.384001,
                          -8.0799999 -11.112 26.190001,
                          -8.0799999 8.3879995 26.190001,
                          -8.073 9.1999998 14.874,
                          -8.073 9.1999998 17.375999,
                          -8.073 11.088 14.874,
                          -8.073 11.088 17.375999,
                          -7.9489999 8.3879995 8.3470001,
                          -7.9489999 8.3879995 23.903,
                          -7.9489999 11.088 8.3470001,
                          -7.9489999 11.088 23.903,
                          -7.7800002 9.1999998 13.653,
                          -7.7800002 9.1999998 18.597,
                          -7.7800002 11.088 13.653,
                          -7.7800002 11.088 18.597,
                          -7.2989998 9.1999998 12.493,
                          -7.2989998 9.1999998 19.757,
                          -7.2989998 11.088 12.493,
                          -7.2989998 11.088 19.757,
                          -7.1733179 9.1999998 12.288,
                          -6.868 8.3879995 7.3979998,
                          -6.868 8.3879995 24.851999,
                          -6.868 11.088 7.3979998,
                          -6.868 11.088 24.851999,
                          -6.789 -11.112 27.082001,
                          -6.789 8.3879995 27.082001,
                          -6.6430001 9.1999998 11.423,
                          -6.6430001 9.1999998 20.827,
                          -6.6430001 11.088 11.423,
                          -6.6430001 11.088 20.827,
                          -5.8280001 9.1999998 10.468,
                          -5.8280001 9.1999998 21.782,
                          -5.8280001 11.088 10.468,
                          -5.8280001 11.088 21.782,
                          -5.671 8.3879995 6.599,
                          -5.671 8.3879995 25.650999,
                          -5.671 11.088 6.599,
                          -5.671 11.088 25.650999,
                          -5.3979998 -11.112 27.809,
                          -5.3979998 8.3879995 27.809,
                          -5.3940001 11.088 16.267,
                          -5.3916049 9.1999998 16.206837,
                          -5.384419 9.1999998 16.306028,
                          -5.3618431 9.1999998 16.384001,
                          -5.3331857 9.1999998 15.72488,
                          -5.3260002 11.088 15.706,
                          -5.2958484 9.1999998 15.653869,
                          -5.2821856 9.1999998 16.659121,
                          -5.2750001 11.088 16.677999,
                          -5.112 9.1999998 15.336,
                          -5.112 11.088 15.336,
                          -5.0638137 9.1999998 15.299789,
                          -5.0502276 9.1999998 16.943483,
                          -5.0050001 9.1999998 17.009001,
                          -5.0050001 11.088 17.009001,
                          -4.9880266 9.1999998 17.019737,
                          -4.8740001 9.1999998 9.6529999,
                          -4.8740001 9.1999998 22.597,
                          -4.8740001 11.088 9.6529999,
                          -4.8740001 11.088 22.597,
                          -4.7810001 -9.3920002 0.125,
                          -4.77 -9.4890003 3.625,
                          -4.77 4.4819999 2.125,
                          -4.77 4.6739998 3.625,
                          -4.7579999 4.3870001 3.625,
                          -4.7579999 4.7690001 2.125,
                          -4.724 -9.6750002 0.125,
                          -4.724 -9.1099997 0.125,
                          -4.724 -9.1099997 3.625,
                          -4.6900001 -9.7650003 3.625,
                          -4.6900001 4.2059999 2.125,
                          -4.6900001 4.2059999 3.625,
                          -4.6900001 4.9499998 2.125,
                          -4.6900001 4.9499998 3.625,
                          -4.6608939 9.1999998 15.02144,
                          -4.6430001 9.1999998 17.238001,
                          -4.6430001 11.088 15.012,
                          -4.6430001 11.088 17.238001,
                          -4.5835419 9.1999998 15.002419,
                          -4.5799999 -9.9230003 0.125,
                          -4.5799999 -9.9230003 3.625,
                          -4.5799999 -8.8620005 3.625,
                          -4.5079999 -8.7980003 0.125,
                          -4.5079999 3.984 3.625,
                          -4.5079999 5.1719999 3.625,
                          -4.4359999 5.2360001 2.125,
                          -4.381 8.3879995 5.9619999,
                          -4.381 8.3879995 26.288,
                          -4.381 11.088 5.9619999,
                          -4.381 11.088 26.288,
                          -4.3787789 9.1999998 17.2698,
                          -4.3499999 -10.095 0.125,
                          -4.3499999 3.875 2.125,
                          -4.2649999 -10.14 3.625,
                          -4.2649999 -8.6450005 0.125,
                          -4.2649999 3.8299999 3.625,
                          -4.2649999 5.3260002 2.125,
                          -4.2649999 5.3260002 3.625,
                          -4.171 -8.6210003 3.625,
                          -4.1576061 9.1999998 17.296419,
                          -4.0981479 9.1999998 14.944,
                          -4.0960002 -11.112 3.625,
                          -4.0960002 9.1999998 14.944529,
                          -4.0780001 -10.187 0.125,
                          -4.0780001 -10.187 3.625,
                          -4.0780001 3.7839999 2.125,
                          -4.0780001 3.7839999 3.625,
                          -4.0780001 11.088 14.944,
                          -4.0780001 11.088 17.306,
                          -4.0207963 9.1999998 14.963021,
                          -3.9289999 -11.112 28.361,
                          -3.9289999 8.3879995 28.361,
                          -3.9179158 9.1999998 17.238001,
                          -3.885 -10.187 0.125,
                          -3.885 -10.187 3.625,
                          -3.885 -8.5979996 0.125,
                          -3.885 3.7839999 2.125,
                          -3.885 5.3720002 2.125,
                          -3.885 5.3720002 3.625,
                          -3.803 9.1999998 8.9969997,
                          -3.803 9.1999998 23.253,
                          -3.803 11.088 8.9969997,
                          -3.803 11.088 23.253,
                          -3.799 11.088 17.238001,
                          -3.7909999 3.8069999 3.625,
                          -3.7811062 9.1999998 17.228559,
                          -3.698 -8.6450005 0.125,
                          -3.698 -8.6450005 3.625,
                          -3.698 5.3260002 3.625,
                          -3.612 -10.095 0.125,
                          -3.612 -10.095 3.625,
                          -3.612 3.875 2.125,
                          -3.612 5.2810001 2.125,
                          -3.5628936 9.1999998 15.13656,
                          -3.5628936 9.1999998 17.11344,
                          -3.5450001 11.088 15.146,
                          -3.5450001 11.088 17.104,
                          -3.527 3.9200001 3.625,
                          -3.5032949 9.1999998 15.189396,
                          -3.4549999 -8.7980003 0.125,
                          -3.382 -9.9230003 0.125,
                          -3.382 -8.8620005 3.625,
                          -3.382 4.0469999 2.125,
                          -3.382 4.0469999 3.625,
                          -3.382 5.1079998 2.125,
                          -3.382 5.1079998 3.625,
                          -3.3280001 -9.8430004 3.625,
                          -3.3085988 9.1999998 16.848835,
                          -3.273 -9.7650003 0.125,
                          -3.273 4.9499998 3.625,
                          -3.2604125 9.1999998 16.812626,
                          -3.2490001 11.088 16.796,
                          -3.2390001 -9.1099997 0.125,
                          -3.2390001 4.296 3.625,
                          -3.2390001 4.8600001 2.125,
                          -3.2375875 9.1999998 16.779375,
                          -3.2348273 9.1999998 16.772074,
                          -3.204 -9.2010002 3.625,
                          -3.204 4.3870001 2.125,
                          -3.1930001 -9.4890003 0.125,
                          -3.1930001 -9.4890003 3.625,
                          -3.1930001 4.6739998 3.625,
                          -3.181 4.5780001 2.125,
                          -3.1794126 9.1999998 15.555374,
                          -3.168 11.088 15.572,
                          -3.1512334 9.1999998 15.629908,
                          -3.0881076 9.1999998 16.384001,
                          -3.066 11.088 15.84,
                          -3.0657666 9.1999998 16.324907,
                          -3.0636048 9.1999998 15.860148,
                          -3.0635364 9.1999998 15.861867,
                          -3.0513952 9.1999998 16.287148,
                          -3.051384 9.1999998 16.286865,
                          -3.049 9.1999998 16.226986,
                          -3.049 11.088 16.267,
                          -3.0179999 8.3879995 5.5,
                          -3.0179999 8.3879995 26.75,
                          -3.0179999 11.088 5.5,
                          -3.0179999 11.088 26.75,
                          -2.6429999 9.1999998 8.5170002,
                          -2.6429999 9.1999998 23.733,
                          -2.6429999 11.088 8.5170002,
                          -2.6429999 11.088 23.733,
                          -2.4030001 -11.112 28.729,
                          -2.4030001 8.3879995 28.729,
                          -1.607 8.3879995 5.2189999,
                          -1.607 8.3879995 27.031,
                          -1.607 11.088 5.2189999,
                          -1.607 11.088 27.031,
                          -1.423 9.1999998 8.224,
                          -1.423 9.1999998 24.027,
                          -1.423 11.088 8.224,
                          -1.423 11.088 24.027,
                          -1.344 11.088 12.033,
                          -1.3416048 9.1999998 12.012852,
                          -1.31568 9.1999998 11.958467,
                          -1.2831857 9.1999998 12.494809,
                          -1.2831857 9.1999998 12.57512,
                          -1.276 11.088 12.594,
                          -1.2572609 9.1999998 12.629506,
                          -1.225 11.088 11.622,
                          -1.2134466 9.1999998 11.605374,
                          -1.1154876 9.1999998 12.874628,
                          -1.0734125 9.1999998 12.947374,
                          -1.062 11.088 12.964,
                          -1.0183132 9.1999998 8.1920004,
                          -1 -9.4119997 0.1,
                          -1 -9.4119997 3.625,
                          -0.98148835 9.1999998 11.321011,
                          -0.96100003 -9.6599998 0.1,
                          -0.96100003 -9.6599998 3.625,
                          -0.96100003 -9.165 0.1,
                          -0.96100003 -9.165 3.625,
                          -0.95499998 11.088 11.291,
                          -0.94899786 9.1999998 11.287203,
                          -0.93978328 9.1999998 11.277615,
                          -0.90399581 9.1999998 11.258735,
                          -0.88870507 9.1999998 13.110604,
                          -0.847 -9.8830004 0.1,
                          -0.847 -9.8830004 3.625,
                          -0.847 -8.9420004 0.1,
                          -0.847 -8.9420004 3.625,
                          -0.847 9.1999998 13.154,
                          -0.847 11.088 13.154,
                          -0.84399998 -11.112 28.907,
                          -0.84399998 8.3879995 28.907,
                          -0.76200002 -4.2399998 0.125,
                          -0.76200002 -4.2399998 3.625,
                          -0.72799999 -4.5229998 3.625,
                          -0.67000002 -10.06 0.1,
                          -0.67000002 -10.06 3.625,
                          -0.67000002 -8.7650003 0.1,
                          -0.67000002 -8.7650003 3.625,
                          -0.66100001 -4.6500001 0.125,
                          -0.66100001 -3.974 0.125,
                          -0.66100001 -3.974 3.625,
                          -0.59299999 9.1999998 11.062,
                          -0.59299999 11.088 11.062,
                          -0.50937194 9.1999998 13.298329,
                          -0.454 11.088 13.322,
                          -0.44800001 -4.8390002 0.125,
                          -0.44800001 -4.8390002 3.625,
                          -0.44800001 -3.7850001 0.125,
                          -0.44800001 -3.7850001 3.625,
                          -0.447 -10.173 0.1,
                          -0.447 -10.173 3.625,
                          -0.447 -8.6520004 0.1,
                          -0.447 -8.6520004 3.625,
                          -0.43882984 9.1999998 13.325114,
                          -0.43441552 9.1999998 13.326791,
                          -0.37425312 9.1999998 13.322,
                          -0.315 9.1999998 10.994,
                          -0.315 11.088 10.994,
                          -0.2548376 9.1999998 10.998791,
                          -0.244 -4.908 3.625,
                          -0.2 -10.213 0.1,
                          -0.2 -10.213 3.625,
                          -0.2 -8.6120005 0.1,
                          -0.2 -8.6120005 3.625,
                          -0.171 -4.908 0.125,
                          -0.171 8.3879995 5.125,
                          -0.171 8.3879995 27.125,
                          -0.171 9.1999998 8.125,
                          -0.171 9.1999998 24.125,
                          -0.171 11.088 5.125,
                          -0.171 11.088 8.125,
                          -0.171 11.088 24.125,
                          -0.171 11.088 27.125,
                          -0.064999998 -3.734 3.625,
                          -0.028999999 -3.734 0.125,
                          -1.6745818e-014 9.1999998 11.029407,
                          0 9.1999998 8.1385326,
                          0 9.1999998 13.303951,
                          0 9.1999998 24.111605,
                          0.041999999 -4.8730001 0.125,
                          0.046999998 -10.173 0.1,
                          0.046999998 -10.173 3.625,
                          0.046999998 -8.6520004 0.1,
                          0.046999998 -8.6520004 3.625,
                          0.097999997 -4.8239999 3.625,
                          0.17 -3.8180001 3.625,
                          0.22400001 -3.8659999 0.125,
                          0.23141553 9.1999998 11.05721,
                          0.23141553 9.1999998 13.29279,
                          0.25099999 11.088 11.062,
                          0.25099999 11.088 13.288,
                          0.27000001 -10.06 0.1,
                          0.27000001 -10.06 3.625,
                          0.27000001 -8.7650003 0.1,
                          0.27000001 -8.7650003 3.625,
                          0.278 -4.71 0.125,
                          0.30186328 9.1999998 11.094265,
                          0.38600001 -4.5229998 0.125,
                          0.38600001 -4.5229998 3.625,
                          0.41999999 -4.2399998 0.125,
                          0.41999999 -4.2399998 3.625,
                          0.447 -9.8830004 0.1,
                          0.447 -9.8830004 3.625,
                          0.447 -8.9420004 0.1,
                          0.447 -8.9420004 3.625,
                          0.56099999 -9.6599998 0.1,
                          0.56099999 -9.6599998 3.625,
                          0.56099999 -9.165 0.1,
                          0.56099999 -9.165 3.625,
                          0.60000002 -9.4119997 0.1,
                          0.60000002 -9.4119997 3.625,
                          0.63433552 9.1999998 13.014441,
                          0.67563635 9.1999998 8.1920004,
                          0.68970746 9.1999998 12.99077,
                          0.70473874 9.1999998 11.372584,
                          0.70478326 9.1999998 11.372615,
                          0.72000003 9.1999998 12.964,
                          0.72000003 11.088 11.386,
                          0.72000003 11.088 12.964,
                          0.72500002 -11.112 28.893999,
                          0.72500002 8.3879995 28.893999,
                          0.72835273 9.1999998 12.949491,
                          0.75001073 9.1999998 11.438131,
                          0.88300002 11.088 11.622,
                          0.89004475 9.1999998 11.64088,
                          0.90298927 9.1999998 12.646132,
                          0.93300003 11.088 12.594,
                          0.94018567 9.1999998 12.57512,
                          0.99227822 9.1999998 11.993972,
                          0.99946386 9.1999998 12.093163,
                          1.002 11.088 12.033,
                          1.0043952 9.1999998 12.053007,
                          1.08 9.1999998 8.224,
                          1.08 9.1999998 24.027,
                          1.08 11.088 8.224,
                          1.08 11.088 24.027,
                          1.265 8.3879995 5.2189999,
                          1.265 8.3879995 27.031,
                          1.265 11.088 5.2189999,
                          1.265 11.088 27.031,
                          2.2809999 -11.112 28.688,
                          2.2809999 8.3879995 28.688,
                          2.3010001 9.1999998 8.5170002,
                          2.3010001 9.1999998 23.733,
                          2.3010001 11.088 8.5170002,
                          2.3010001 11.088 23.733,
                          2.6760001 8.3879995 5.5,
                          2.6760001 8.3879995 26.75,
                          2.6760001 11.088 5.5,
                          2.6760001 11.088 26.75,
                          2.7060001 11.088 15.983,
                          2.7083952 9.1999998 15.962852,
                          2.7096255 9.1999998 15.993755,
                          2.723 9.1999998 16.329689,
                          2.723 11.088 16.41,
                          2.7269344 9.1999998 16.384001,
                          2.7301857 9.1999998 16.428881,
                          2.7343199 9.1999998 15.908466,
                          2.825 11.088 15.572,
                          2.8350041 9.1999998 15.560725,
                          2.8365533 9.1999998 15.555374,
                          2.8499999 -9.4890003 0.125,
                          2.8499999 -9.4890003 3.625,
                          2.8499999 -0.59799999 2.125,
                          2.8499999 -0.59799999 3.625,
                          2.862 -9.2010002 0.125,
                          2.862 -9.2010002 3.625,
                          2.862 -0.31099999 2.125,
                          2.8782585 9.1999998 15.511978,
                          2.8959999 -0.22 3.625,
                          2.9300001 -9.7650003 3.625,
                          2.9300001 -0.87400001 2.125,
                          2.9578483 9.1999998 16.861868,
                          2.9849999 -9.8430004 0.125,
                          2.9849999 -8.9420004 0.125,
                          2.9849999 -0.95300001 3.625,
                          2.9879999 11.088 16.914,
                          3.0030758 9.1999998 16.927385,
                          3.04 -1.033 2.125,
                          3.04 0.028000001 2.125,
                          3.04 0.028000001 3.625,
                          3.184 -10.05 3.625,
                          3.184 -8.7340002 0.125,
                          3.184 -8.7340002 3.625,
                          3.2030001 9.1999998 15.146,
                          3.2030001 11.088 15.146,
                          3.27 -10.095 0.125,
                          3.27 -1.205 2.125,
                          3.27 -1.205 3.625,
                          3.27 0.20100001 2.125,
                          3.27 0.20100001 3.625,
                          3.4059958 9.1999998 17.205734,
                          3.4481397 9.1999998 15.016674,
                          3.4489999 -8.6210003 0.125,
                          3.4489999 -8.6210003 3.625,
                          3.457 9.1999998 15.012,
                          3.457 9.1999998 17.238001,
                          3.457 11.088 15.012,
                          3.457 11.088 17.238001,
                          3.461 9.1999998 8.9969997,
                          3.461 9.1999998 23.253,
                          3.461 11.088 8.9969997,
                          3.461 11.088 23.253,
                          3.5366061 9.1999998 15.002419,
                          3.5420001 -10.187 0.125,
                          3.5420001 -10.187 3.625,
                          3.5420001 -1.296 2.125,
                          3.5420001 -1.296 3.625,
                          3.5420001 0.292 2.125,
                          3.5420001 0.292 3.625,
                          3.7349999 -10.187 3.625,
                          3.7349999 -8.5979996 0.125,
                          3.7349999 -8.5979996 3.625,
                          3.7349999 -1.296 2.125,
                          3.7349999 -1.296 3.625,
                          3.7349999 0.292 2.125,
                          3.7349999 0.292 3.625,
                          3.8195422 9.1999998 17.296419,
                          3.829 -10.164 0.125,
                          3.858711 9.1999998 17.306,
                          3.8687291 9.1999998 14.948901,
                          3.8722901 9.1999998 17.304918,
                          3.8789999 11.088 14.944,
                          3.8789999 11.088 17.306,
                          3.899148 9.1999998 14.944,
                          3.9188735 9.1999998 17.30121,
                          3.9230001 -8.6450005 0.125,
                          3.9230001 -8.6450005 3.625,
                          3.9563518 9.1999998 14.963021,
                          4.0079999 -1.205 3.625,
                          4.0380001 8.3879995 5.9619999,
                          4.0380001 8.3879995 26.288,
                          4.0380001 11.088 5.9619999,
                          4.0380001 11.088 26.288,
                          4.0929999 -10.05 3.625,
                          4.0929999 -1.16 2.125,
                          4.0929999 0.156 2.125,
                          4.0929999 0.156 3.625,
                          4.0960002 -11.112 3.625,
                          4.0960002 9.1999998 14.985523,
                          4.165 -9.9870005 0.125,
                          4.2379999 -8.8620005 0.125,
                          4.2379999 -8.8620005 3.625,
                          4.2379999 0.028000001 3.625,
                          4.2814155 9.1999998 17.24279,
                          4.2919998 -0.95300001 2.125,
                          4.2919998 -0.95300001 3.625,
                          4.2919998 -0.050999999 2.125,
                          4.3010001 11.088 15.012,
                          4.3010001 11.088 17.238001,
                          4.3188939 9.1999998 15.02144,
                          4.3470001 -9.7650003 0.125,
                          4.3470001 -9.7650003 3.625,
                          4.381 -9.1099997 0.125,
                          4.381 -9.1099997 3.625,
                          4.4159999 -0.31099999 2.125,
                          4.4159999 -0.31099999 3.625,
                          4.427 -9.4890003 3.625,
                          4.427 -0.59799999 2.125,
                          4.427 -0.59799999 3.625,
                          4.4390001 -9.3920002 0.125,
                          4.4996281 9.1999998 17.12767,
                          4.5310001 9.1999998 9.6529999,
                          4.5310001 9.1999998 22.597,
                          4.5310001 11.088 9.6529999,
                          4.5310001 11.088 22.597,
                          4.5549998 11.088 17.104,
                          4.570076 9.1999998 17.090614,
                          4.5702591 9.1999998 17.090408,
                          4.717 -11.112 28.072001,
                          4.717 8.3879995 28.072001,
                          4.7218137 9.1999998 15.299789,
                          4.77 11.088 15.336,
                          4.8618479 9.1999998 15.502539,
                          4.8948174 9.1999998 16.724636,
                          4.9330001 11.088 15.572,
                          4.9330001 11.088 16.677999,
                          4.9400449 9.1999998 16.659121,
                          4.9521618 9.1999998 15.649916,
                          5.0268145 9.1999998 16.428881,
                          5.0287061 9.1999998 16.384001,
                          5.0339999 11.088 16.41,
                          5.0422783 9.1999998 16.062042,
                          5.0459905 9.1999998 15.973979,
                          5.052 11.088 15.983,
                          5.0543952 9.1999998 16.003008,
                          5.329 8.3879995 6.599,
                          5.329 8.3879995 25.650999,
                          5.329 11.088 6.599,
                          5.329 11.088 25.650999,
                          5.4860001 9.1999998 10.468,
                          5.4860001 9.1999998 21.782,
                          5.4860001 11.088 10.468,
                          5.4860001 11.088 21.782,
                          5.658 -11.112 27.997,
                          5.658 8.3879995 27.997,
                          6.3010001 9.1999998 11.423,
                          6.3010001 9.1999998 20.827,
                          6.3010001 11.088 11.423,
                          6.3010001 11.088 20.827,
                          6.329 -11.112 3.625,
                          6.329 -11.112 5.098,
                          6.329 -2.0480001 3.625,
                          6.329 8.3879995 3.625,
                          6.329 8.3879995 5.098,
                          6.5250001 8.3879995 7.3979998,
                          6.5250001 8.3879995 24.851999,
                          6.5250001 11.088 7.3979998,
                          6.5250001 11.088 24.851999,
                          6.599 -11.112 28.070999,
                          6.599 8.3879995 28.070999,
                          6.8313179 9.1999998 12.288,
                          6.9569998 9.1999998 12.493,
                          6.9569998 9.1999998 19.757,
                          6.9569998 11.088 12.493,
                          6.9569998 11.088 19.757,
                          7.4369998 9.1999998 13.653,
                          7.4369998 9.1999998 18.597,
                          7.4369998 11.088 13.653,
                          7.4369998 11.088 18.597,
                          7.5170002 -11.112 28.291,
                          7.5170002 8.3879995 28.291,
                          7.6069999 8.3879995 8.3470001,
                          7.6069999 8.3879995 23.903,
                          7.6069999 11.088 8.3470001,
                          7.6069999 11.088 23.903,
                          7.6560001 -11.112 5.9970002,
                          7.6560001 8.3879995 5.9970002,
                          7.73 9.1999998 14.874,
                          7.73 9.1999998 17.375999,
                          7.73 11.088 14.874,
                          7.73 11.088 17.375999,
                          7.7601233 9.1999998 16.995348,
                          7.7852221 9.1999998 16.678196,
                          7.829 9.1999998 16.125,
                          7.829 11.088 16.125,
                          8.5559998 8.3879995 9.4289999,
                          8.5559998 8.3879995 22.820999,
                          8.5559998 11.088 9.4289999,
                          8.5559998 11.088 22.820999,
                          8.5710001 -11.112 25.884001,
                          8.5710001 8.3879995 25.884001,
                          8.5880003 -11.112 26.306,
                          8.6379995 8.3879995 26.438999,
                          8.6879997 -11.112 25.479,
                          8.7690001 -11.112 26.688,
                          8.7690001 8.3879995 25.362,
                          8.849 -11.112 25.246,
                          8.849 8.3879995 26.804001,
                          8.8610001 -11.112 7.0549998,
                          8.8610001 8.3879995 7.0549998,
                          9.0450001 -11.112 28.895,
                          9.0450001 8.3879995 28.895,
                          9.0609999 -11.112 26.992001,
                          9.1870003 8.3879995 24.992001,
                          9.1870003 8.3879995 27.058001,
                          9.3120003 -11.112 24.926001,
                          9.3549995 8.3879995 10.625,
                          9.3549995 8.3879995 21.625,
                          9.3549995 11.088 10.625,
                          9.3549995 11.088 21.625,
                          9.4499998 -11.112 27.158001,
                          9.5869999 8.3879995 24.858999,
                          9.5869999 8.3879995 27.191,
                          9.7290001 -11.112 24.858999,
                          9.7399998 -11.112 28.975,
                          9.7399998 8.3879995 28.975,
                          9.8710003 -11.112 27.191,
                          9.8710003 8.3879995 24.858999,
                          9.9239998 -11.112 8.2559996,
                          9.9239998 8.3879995 8.2559996,
                          9.9919996 8.3879995 11.915,
                          9.9919996 8.3879995 20.334999,
                          9.9919996 11.088 11.915,
                          9.9919996 11.088 20.334999,
                          10.008 8.3879995 27.158001,
                          10.146 -11.112 27.124001,
                          10.146 8.3879995 24.926001,
                          10.271 -11.112 24.992001,
                          10.435 -11.112 28.889,
                          10.435 8.3879995 28.889,
                          10.454 8.3879995 13.278,
                          10.454 8.3879995 18.972,
                          10.454 11.088 13.278,
                          10.454 11.088 18.972,
                          10.502 8.3879995 25.152,
                          10.502 8.3879995 26.898001,
                          10.608 -11.112 25.246,
                          10.608 -11.112 26.804001,
                          10.735 8.3879995 14.689,
                          10.735 8.3879995 17.561001,
                          10.735 11.088 14.689,
                          10.735 11.088 17.561001,
                          10.769 -11.112 25.479,
                          10.769 8.3879995 25.479,
                          10.82 8.3879995 26.438999,
                          10.829 -11.112 9.5799999,
                          10.829 -11.112 21.712999,
                          10.829 8.3879995 9.5799999,
                          10.829 8.3879995 16.125,
                          10.829 8.3879995 21.712999,
                          10.829 11.088 16.125,
                          10.87 -11.112 26.306,
                          10.887 -11.112 25.884001,
                          10.887 8.3879995 25.884001,
                          10.89 -11.112 22.316999,
                          10.89 8.3879995 22.316999,
                          11.072 -11.112 22.896,
                          11.072 8.3879995 22.896,
                          11.089 -11.112 28.643,
                          11.089 8.3879995 28.643,
                          11.366 -11.112 23.427,
                          11.366 8.3879995 23.427,
                          11.668 -11.112 28.249001,
                          11.668 8.3879995 28.249001,
                          12.137 -11.112 27.729,
                          12.137 8.3879995 27.729,
                          12.208 -11.112 24.426001,
                          12.208 8.3879995 24.426001,
                          12.47 -11.112 27.114,
                          12.47 8.3879995 27.114,
                          12.515 -11.112 25.055,
                          12.515 8.3879995 25.055,
                          12.65 -11.112 26.438,
                          12.65 8.3879995 26.438,
                          12.665 -11.112 25.738001,
                          12.665 8.3879995 25.738001 ]

                    }
                    normal 
                    Normal {
                      vector [  ]

                    }
                    coordIndex [ 706, 702, 685, -1, 706, 685, 686, -1,
                        474, 481, 459, -1, 459, 460, 474, -1,
                        481, 474, 479, -1, 650, 659, 662, -1,
                        471, 461, 470, -1, 500, 479, 546, -1,
                        128, 130, 131, -1, 55, 73, 96, -1,
                        83, 27, 55, -1, 506, 500, 502, -1,
                        101, 91, 99, -1, 93, 91, 101, -1,
                        644, 650, 648, -1, 500, 506, 481, -1,
                        481, 479, 500, -1, 27, 83, 65, -1,
                        51, 27, 65, -1, 65, 85, 67, -1,
                        83, 85, 65, -1, 289, 207, 144, -1,
                        144, 283, 289, -1, 207, 289, 296, -1,
                        207, 296, 302, -1, 207, 302, 303, -1,
                        598, 600, 596, -1, 602, 600, 598, -1,
                        293, 279, 277, -1, 27, 51, 41, -1,
                        634, 636, 644, -1, 636, 634, 603, -1,
                        288, 289, 283, -1, 283, 281, 288, -1,
                        41, 33, 27, -1, 293, 324, 339, -1,
                        359, 339, 341, -1, 671, 702, 698, -1,
                        671, 698, 696, -1, 671, 685, 702, -1,
                        659, 671, 696, -1, 696, 692, 659, -1,
                        648, 634, 644, -1, 692, 662, 659, -1,
                        662, 648, 650, -1, 35, 41, 43, -1,
                        33, 41, 35, -1, 207, 269, 209, -1,
                        267, 269, 207, -1, 43, 51, 53, -1,
                        41, 51, 43, -1, 283, 282, 281, -1,
                        51, 67, 53, -1, 65, 67, 51, -1,
                        341, 339, 340, -1, 651, 660, 691, -1,
                        425, 379, 397, -1, 340, 358, 341, -1,
                        626, 624, 570, -1, 626, 570, 593, -1,
                        593, 604, 626, -1, 356, 225, 447, -1,
                        325, 339, 324, -1, 340, 339, 325, -1,
                        637, 645, 620, -1, 624, 629, 589, -1,
                        324, 293, 277, -1, 324, 277, 267, -1,
                        301, 304, 303, -1, 267, 304, 324, -1,
                        303, 267, 207, -1, 301, 303, 302, -1,
                        304, 301, 325, -1, 325, 324, 304, -1,
                        267, 303, 304, -1, 639, 688, 647, -1,
                        383, 382, 369, -1, 301, 302, 296, -1,
                        383, 369, 368, -1, 681, 653, 619, -1,
                        672, 681, 664, -1, 647, 688, 690, -1,
                        288, 296, 289, -1, 301, 296, 288, -1,
                        367, 362, 378, -1, 144, 282, 283, -1,
                        623, 625, 592, -1, 625, 628, 592, -1,
                        378, 380, 381, -1, 215, 316, 329, -1,
                        674, 664, 666, -1, 672, 664, 674, -1,
                        378, 381, 367, -1, 654, 664, 681, -1,
                        383, 380, 382, -1, 381, 380, 383, -1,
                        146, 207, 209, -1, 656, 664, 654, -1,
                        666, 664, 656, -1, 686, 708, 706, -1,
                        686, 704, 708, -1, 676, 704, 686, -1,
                        676, 670, 700, -1, 670, 661, 694, -1,
                        700, 704, 676, -1, 279, 267, 277, -1,
                        269, 267, 279, -1, 619, 640, 681, -1,
                        640, 654, 681, -1, 368, 447, 458, -1,
                        447, 368, 356, -1, 642, 654, 640, -1,
                        656, 654, 642, -1, 194, 315, 186, -1,
                        639, 630, 609, -1, 630, 627, 609, -1,
                        13, 9, 38, -1, 9, 7, 29, -1,
                        38, 48, 17, -1, 621, 640, 619, -1,
                        642, 640, 621, -1, 694, 700, 670, -1,
                        381, 585, 477, -1, 144, 118, 282, -1,
                        585, 381, 383, -1, 120, 114, 118, -1,
                        116, 114, 120, -1, 647, 690, 694, -1,
                        694, 661, 647, -1, 680, 688, 639, -1,
                        684, 675, 682, -1, 207, 146, 144, -1,
                        383, 497, 585, -1, 672, 682, 681, -1,
                        146, 118, 144, -1, 120, 118, 146, -1,
                        603, 592, 628, -1, 537, 583, 540, -1,
                        679, 681, 682, -1, 116, 107, 114, -1,
                        402, 312, 584, -1, 312, 271, 584, -1,
                        674, 682, 672, -1, 684, 682, 674, -1,
                        97, 95, 82, -1, 82, 84, 97, -1,
                        627, 623, 577, -1, 603, 628, 636, -1,
                        592, 577, 623, -1, 577, 552, 609, -1,
                        543, 537, 540, -1, 595, 594, 533, -1,
                        554, 599, 595, -1, 599, 554, 556, -1,
                        611, 561, 566, -1, 611, 566, 568, -1,
                        615, 616, 562, -1, 537, 543, 536, -1,
                        525, 510, 585, -1, 32, 40, 25, -1,
                        618, 611, 617, -1, 613, 611, 618, -1,
                        23, 72, 54, -1, 525, 536, 524, -1,
                        537, 536, 525, -1, 561, 556, 558, -1,
                        42, 32, 34, -1, 40, 32, 42, -1,
                        189, 202, 218, -1, 234, 307, 318, -1,
                        568, 617, 611, -1, 617, 565, 563, -1,
                        523, 534, 535, -1, 23, 89, 72, -1,
                        54, 24, 23, -1, 23, 198, 126, -1,
                        23, 112, 89, -1, 568, 566, 567, -1,
                        535, 540, 583, -1, 609, 680, 639, -1,
                        33, 26, 27, -1, 567, 566, 561, -1,
                        561, 558, 567, -1, 543, 540, 534, -1,
                        609, 552, 423, -1, 609, 627, 577, -1,
                        28, 26, 33, -1, 33, 35, 28, -1,
                        561, 611, 599, -1, 599, 556, 561, -1,
                        248, 245, 295, -1, 652, 679, 680, -1,
                        632, 652, 680, -1, 26, 32, 25, -1,
                        534, 540, 535, -1, 555, 556, 554, -1,
                        558, 556, 555, -1, 32, 28, 34, -1,
                        26, 28, 32, -1, 680, 609, 632, -1,
                        533, 554, 595, -1, 584, 609, 423, -1,
                        521, 583, 584, -1, 531, 554, 533, -1,
                        555, 554, 531, -1, 50, 25, 40, -1,
                        522, 505, 531, -1, 531, 533, 522, -1,
                        198, 521, 584, -1, 201, 192, 191, -1,
                        201, 202, 192, -1, 423, 402, 584, -1,
                        271, 198, 584, -1, 563, 562, 616, -1,
                        567, 565, 568, -1, 50, 42, 52, -1,
                        40, 42, 50, -1, 218, 202, 201, -1,
                        201, 217, 218, -1, 25, 50, 64, -1,
                        510, 525, 524, -1, 565, 567, 564, -1,
                        217, 228, 234, -1, 64, 52, 66, -1,
                        50, 52, 64, -1, 613, 599, 611, -1,
                        601, 599, 613, -1, 68, 23, 18, -1,
                        601, 595, 599, -1, 597, 595, 601, -1,
                        597, 594, 595, -1, 581, 594, 597, -1,
                        189, 521, 198, -1, 218, 217, 234, -1,
                        15, 19, 64, -1, 510, 509, 494, -1,
                        579, 522, 533, -1, 533, 594, 579, -1,
                        579, 511, 522, -1, 579, 507, 511, -1,
                        371, 360, 434, -1, 23, 126, 112, -1,
                        505, 511, 507, -1, 248, 236, 247, -1,
                        505, 507, 503, -1, 234, 236, 248, -1,
                        15, 82, 58, -1, 19, 25, 64, -1,
                        64, 82, 15, -1, 505, 522, 511, -1,
                        189, 198, 76, -1, 80, 79, 189, -1,
                        82, 66, 84, -1, 64, 66, 82, -1,
                        203, 215, 214, -1, 486, 503, 410, -1,
                        503, 507, 410, -1, 478, 486, 410, -1,
                        76, 80, 189, -1, 198, 75, 76, -1,
                        510, 495, 585, -1, 480, 486, 478, -1,
                        475, 478, 410, -1, 585, 495, 477, -1,
                        477, 466, 381, -1, 466, 367, 381, -1,
                        480, 478, 475, -1, 486, 480, 505, -1,
                        505, 503, 486, -1, 14, 19, 15, -1,
                        467, 475, 408, -1, 198, 23, 68, -1,
                        227, 229, 240, -1, 468, 475, 467, -1,
                        480, 475, 468, -1, 26, 25, 23, -1,
                        24, 27, 26, -1, 229, 245, 240, -1,
                        57, 14, 10, -1, 451, 467, 399, -1,
                        443, 451, 396, -1, 11, 14, 15, -1,
                        10, 47, 57, -1, 441, 451, 443, -1,
                        517, 535, 583, -1, 350, 293, 339, -1,
                        350, 339, 359, -1, 442, 443, 371, -1,
                        535, 517, 523, -1, 293, 353, 279, -1,
                        350, 353, 293, -1, 37, 10, 4, -1,
                        10, 37, 47, -1, 4, 30, 37, -1,
                        441, 443, 442, -1, 229, 227, 215, -1,
                        359, 353, 350, -1, 451, 441, 468, -1,
                        468, 467, 451, -1, 14, 57, 68, -1,
                        14, 68, 18, -1, 68, 75, 198, -1,
                        440, 442, 371, -1, 434, 440, 371, -1,
                        433, 440, 434, -1, 435, 434, 338, -1,
                        433, 435, 436, -1, 273, 348, 60, -1,
                        275, 348, 273, -1, 352, 348, 275, -1,
                        440, 433, 441, -1, 441, 442, 440, -1,
                        263, 273, 60, -1, 189, 192, 202, -1,
                        436, 435, 338, -1, 265, 273, 263, -1,
                        275, 273, 265, -1, 436, 437, 433, -1,
                        433, 434, 435, -1, 70, 61, 59, -1,
                        436, 337, 257, -1, 437, 436, 438, -1,
                        60, 45, 62, -1, 122, 60, 69, -1,
                        108, 77, 95, -1, 60, 122, 174, -1,
                        74, 189, 79, -1, 44, 56, 46, -1,
                        189, 74, 70, -1, 360, 371, 373, -1,
                        22, 20, 2, -1, 36, 22, 6, -1,
                        394, 371, 443, -1, 396, 394, 443, -1,
                        108, 124, 122, -1, 110, 124, 108, -1,
                        401, 394, 396, -1, 234, 228, 236, -1,
                        399, 396, 451, -1, 95, 97, 110, -1,
                        110, 108, 95, -1, 401, 396, 399, -1,
                        46, 16, 44, -1, 46, 12, 16, -1,
                        12, 46, 36, -1, 36, 8, 12, -1,
                        174, 263, 60, -1, 1, 5, 21, -1,
                        404, 399, 467, -1, 401, 399, 404, -1,
                        176, 263, 174, -1, 265, 263, 176, -1,
                        6, 8, 36, -1, 2, 6, 22, -1,
                        20, 0, 2, -1, 4, 20, 30, -1,
                        4, 0, 20, -1, 394, 401, 373, -1,
                        373, 371, 394, -1, 124, 174, 122, -1,
                        176, 174, 124, -1, 59, 189, 70, -1,
                        59, 61, 56, -1, 44, 59, 56, -1,
                        410, 408, 475, -1, 408, 404, 467, -1,
                        410, 409, 408, -1, 248, 247, 245, -1,
                        308, 319, 334, -1, 334, 299, 308, -1,
                        345, 299, 334, -1, 365, 299, 345, -1,
                        365, 376, 294, -1, 376, 386, 294, -1,
                        386, 390, 294, -1, 390, 392, 294, -1,
                        409, 410, 412, -1, 245, 247, 240, -1,
                        464, 488, 521, -1, 17, 13, 38, -1,
                        517, 521, 493, -1, 401, 404, 408, -1,
                        408, 409, 401, -1, 521, 488, 493, -1,
                        294, 299, 365, -1, 388, 294, 392, -1,
                        384, 294, 388, -1, 374, 294, 384, -1,
                        363, 294, 374, -1, 343, 294, 363, -1,
                        332, 294, 343, -1, 317, 294, 332, -1,
                        306, 294, 317, -1, 297, 294, 306, -1,
                        242, 249, 250, -1, 249, 242, 237, -1,
                        214, 215, 227, -1, 233, 242, 232, -1,
                        524, 509, 510, -1, 482, 405, 407, -1,
                        398, 482, 425, -1, 482, 398, 405, -1,
                        425, 370, 379, -1, 370, 415, 395, -1,
                        370, 425, 415, -1, 395, 359, 358, -1,
                        359, 341, 358, -1, 395, 358, 370, -1,
                        219, 250, 246, -1, 482, 547, 484, -1,
                        545, 547, 482, -1, 465, 477, 476, -1,
                        466, 477, 465, -1, 237, 242, 233, -1,
                        484, 425, 482, -1, 427, 425, 484, -1,
                        545, 575, 547, -1, 573, 575, 545, -1,
                        444, 445, 449, -1, 449, 448, 444, -1,
                        427, 415, 425, -1, 417, 415, 427, -1,
                        250, 249, 246, -1, 417, 395, 415, -1,
                        157, 149, 154, -1, 246, 249, 241, -1,
                        456, 453, 444, -1, 379, 370, 372, -1,
                        181, 168, 179, -1, 219, 232, 242, -1,
                        444, 453, 445, -1, 579, 412, 410, -1,
                        414, 579, 573, -1, 182, 186, 203, -1,
                        412, 414, 413, -1, 579, 410, 507, -1,
                        469, 464, 456, -1, 215, 203, 186, -1,
                        219, 242, 250, -1, 246, 230, 219, -1,
                        412, 413, 409, -1, 186, 182, 169, -1,
                        232, 220, 233, -1, 579, 414, 412, -1,
                        456, 464, 453, -1, 169, 182, 170, -1,
                        413, 414, 411, -1, 156, 170, 155, -1,
                        233, 220, 216, -1, 573, 411, 414, -1,
                        487, 488, 469, -1, 206, 220, 205, -1,
                        406, 411, 407, -1, 413, 411, 406, -1,
                        169, 170, 156, -1, 469, 488, 464, -1,
                        156, 155, 148, -1, 411, 573, 545, -1,
                        407, 545, 482, -1, 216, 220, 206, -1,
                        156, 148, 149, -1, 400, 405, 398, -1,
                        149, 148, 154, -1, 545, 407, 411, -1,
                        168, 154, 167, -1, 400, 398, 397, -1,
                        249, 237, 586, -1, 487, 493, 488, -1,
                        405, 400, 406, -1, 406, 407, 405, -1,
                        157, 154, 168, -1, 216, 206, 586, -1,
                        586, 233, 216, -1, 168, 167, 179, -1,
                        379, 372, 400, -1, 400, 397, 379, -1,
                        241, 249, 473, -1, 192, 179, 191, -1,
                        425, 397, 398, -1, 181, 179, 192, -1,
                        358, 340, 372, -1, 372, 370, 358, -1,
                        494, 495, 510, -1, 594, 581, 579, -1,
                        149, 157, 59, -1, 59, 157, 168, -1,
                        477, 494, 476, -1, 495, 494, 477, -1,
                        581, 573, 579, -1, 575, 573, 581, -1,
                        59, 168, 181, -1, 181, 189, 59, -1,
                        189, 181, 192, -1, 357, 369, 362, -1,
                        621, 605, 607, -1, 619, 605, 621, -1,
                        449, 466, 457, -1, 605, 590, 607, -1,
                        380, 378, 362, -1, 362, 382, 380, -1,
                        369, 382, 362, -1, 449, 457, 448, -1,
                        605, 633, 610, -1, 653, 633, 605, -1,
                        605, 619, 653, -1, 184, 185, 206, -1,
                        206, 205, 184, -1, 583, 521, 517, -1,
                        633, 632, 610, -1, 534, 523, 509, -1,
                        523, 501, 509, -1, 534, 524, 536, -1,
                        536, 543, 534, -1, 172, 184, 173, -1,
                        59, 156, 149, -1, 610, 587, 588, -1,
                        588, 605, 610, -1, 173, 184, 205, -1,
                        185, 184, 172, -1, 172, 173, 160, -1,
                        172, 160, 161, -1, 501, 487, 469, -1,
                        456, 501, 469, -1, 444, 501, 456, -1,
                        448, 501, 444, -1, 457, 501, 448, -1,
                        465, 501, 457, -1, 476, 501, 465, -1,
                        494, 501, 476, -1, 509, 501, 494, -1,
                        509, 524, 534, -1, 151, 160, 153, -1,
                        587, 584, 585, -1, 697, 696, 699, -1,
                        605, 588, 590, -1, 696, 697, 692, -1,
                        153, 160, 205, -1, 587, 513, 569, -1,
                        569, 588, 587, -1, 161, 160, 151, -1,
                        571, 588, 569, -1, 590, 588, 571, -1,
                        330, 357, 362, -1, 330, 362, 347, -1,
                        330, 347, 328, -1, 151, 153, 150, -1,
                        151, 150, 152, -1, 159, 150, 158, -1,
                        321, 314, 322, -1, 321, 322, 330, -1,
                        330, 328, 321, -1, 214, 217, 201, -1,
                        158, 150, 205, -1, 586, 585, 539, -1,
                        152, 150, 159, -1, 353, 359, 395, -1,
                        395, 417, 353, -1, 493, 487, 501, -1,
                        227, 240, 247, -1, 247, 214, 227, -1,
                        214, 247, 236, -1, 214, 236, 228, -1,
                        214, 228, 217, -1, 214, 201, 191, -1,
                        179, 182, 203, -1, 179, 170, 182, -1,
                        191, 203, 214, -1, 429, 513, 586, -1,
                        586, 60, 348, -1, 586, 513, 587, -1,
                        205, 180, 158, -1, 153, 205, 150, -1,
                        173, 205, 160, -1, 586, 237, 233, -1,
                        493, 501, 517, -1, 513, 515, 571, -1,
                        571, 569, 513, -1, 431, 513, 429, -1,
                        515, 513, 431, -1, 517, 501, 523, -1,
                        60, 172, 161, -1, 159, 171, 59, -1,
                        348, 419, 586, -1, 419, 429, 586, -1,
                        167, 154, 170, -1, 170, 179, 167, -1,
                        148, 170, 154, -1, 155, 170, 148, -1,
                        203, 191, 179, -1, 421, 429, 419, -1,
                        431, 429, 421, -1, 60, 586, 206, -1,
                        206, 185, 60, -1, 185, 172, 60, -1,
                        352, 419, 348, -1, 421, 419, 352, -1,
                        622, 643, 582, -1, 457, 466, 465, -1,
                        161, 151, 60, -1, 572, 591, 548, -1,
                        60, 151, 152, -1, 586, 520, 499, -1,
                        516, 572, 485, -1, 428, 432, 516, -1,
                        152, 159, 59, -1, 12, 13, 17, -1,
                        59, 60, 152, -1, 9, 13, 12, -1,
                        249, 586, 492, -1, 582, 576, 622, -1,
                        598, 582, 643, -1, 587, 610, 584, -1,
                        576, 548, 591, -1, 643, 657, 598, -1,
                        585, 586, 587, -1, 3, 2, 0, -1,
                        7, 2, 3, -1, 608, 622, 576, -1,
                        548, 485, 572, -1, 591, 608, 576, -1,
                        485, 428, 516, -1, 354, 355, 422, -1,
                        280, 266, 276, -1, 526, 520, 586, -1,
                        675, 618, 614, -1, 614, 667, 675, -1,
                        60, 59, 45, -1, 388, 393, 389, -1,
                        194, 183, 180, -1, 462, 472, 450, -1,
                        491, 498, 519, -1, 519, 472, 491, -1,
                        437, 459, 481, -1, 506, 437, 481, -1,
                        532, 437, 506, -1, 549, 437, 532, -1,
                        559, 437, 549, -1, 559, 564, 441, -1,
                        463, 231, 241, -1, 241, 473, 463, -1,
                        602, 657, 667, -1, 602, 598, 657, -1,
                        667, 614, 602, -1, 212, 331, 323, -1,
                        499, 519, 498, -1, 520, 519, 499, -1,
                        418, 422, 432, -1, 432, 428, 418, -1,
                        422, 418, 354, -1, 354, 276, 355, -1,
                        492, 498, 491, -1, 499, 498, 492, -1,
                        266, 280, 270, -1, 473, 491, 472, -1,
                        492, 491, 473, -1, 384, 388, 389, -1,
                        389, 385, 384, -1, 463, 472, 462, -1,
                        473, 472, 463, -1, 374, 384, 385, -1,
                        385, 375, 374, -1, 85, 121, 117, -1,
                        241, 231, 230, -1, 56, 48, 46, -1,
                        363, 374, 375, -1, 375, 364, 363, -1,
                        121, 85, 98, -1, 111, 147, 121, -1,
                        212, 193, 204, -1, 492, 473, 249, -1,
                        499, 492, 586, -1, 270, 177, 266, -1,
                        177, 270, 210, -1, 276, 354, 280, -1,
                        210, 125, 177, -1, 125, 210, 147, -1,
                        147, 111, 125, -1, 204, 193, 205, -1,
                        193, 212, 194, -1, 87, 34, 28, -1,
                        225, 331, 212, -1, 212, 204, 219, -1,
                        196, 211, 133, -1, 212, 219, 225, -1,
                        231, 463, 452, -1, 231, 219, 230, -1,
                        633, 653, 652, -1, 142, 128, 136, -1,
                        165, 128, 142, -1, 128, 165, 196, -1,
                        211, 224, 133, -1, 224, 239, 133, -1,
                        241, 230, 246, -1, 679, 652, 653, -1,
                        653, 681, 679, -1, 94, 35, 43, -1,
                        219, 205, 220, -1, 219, 220, 232, -1,
                        117, 106, 67, -1, 633, 652, 632, -1,
                        225, 219, 231, -1, 668, 676, 677, -1,
                        584, 610, 609, -1, 67, 85, 117, -1,
                        106, 53, 67, -1, 121, 98, 111, -1,
                        53, 106, 102, -1, 102, 43, 53, -1,
                        43, 102, 94, -1, 609, 610, 632, -1,
                        204, 205, 219, -1, 584, 583, 585, -1,
                        194, 180, 193, -1, 674, 666, 613, -1,
                        674, 613, 618, -1, 666, 656, 601, -1,
                        656, 642, 597, -1, 618, 684, 674, -1,
                        159, 158, 171, -1, 555, 531, 505, -1,
                        505, 567, 558, -1, 505, 564, 567, -1,
                        505, 558, 555, -1, 346, 366, 365, -1,
                        618, 675, 684, -1, 601, 613, 666, -1,
                        377, 365, 366, -1, 171, 158, 180, -1,
                        530, 526, 539, -1, 597, 601, 656, -1,
                        642, 581, 597, -1, 180, 183, 171, -1,
                        387, 386, 376, -1, 526, 530, 520, -1,
                        205, 193, 180, -1, 386, 387, 391, -1,
                        480, 564, 505, -1, 468, 564, 480, -1,
                        441, 564, 468, -1, 441, 433, 559, -1,
                        433, 437, 559, -1, 59, 171, 183, -1,
                        323, 194, 212, -1, 401, 409, 327, -1,
                        409, 413, 327, -1, 542, 585, 529, -1,
                        183, 194, 186, -1, 585, 542, 539, -1,
                        539, 526, 586, -1, 621, 575, 581, -1,
                        12, 17, 16, -1, 365, 377, 376, -1,
                        484, 571, 515, -1, 427, 484, 515, -1,
                        376, 377, 387, -1, 194, 323, 315, -1,
                        77, 71, 95, -1, 108, 81, 77, -1,
                        390, 386, 391, -1, 512, 529, 585, -1,
                        677, 686, 687, -1, 413, 406, 327, -1,
                        406, 400, 327, -1, 400, 372, 327, -1,
                        372, 340, 325, -1, 519, 530, 472, -1,
                        5, 4, 11, -1, 547, 571, 484, -1,
                        581, 642, 621, -1, 575, 607, 590, -1,
                        575, 621, 607, -1, 590, 547, 575, -1,
                        590, 571, 547, -1, 48, 56, 61, -1,
                        538, 541, 472, -1, 472, 530, 538, -1,
                        541, 528, 472, -1, 71, 63, 82, -1,
                        63, 58, 82, -1, 82, 95, 71, -1,
                        608, 620, 622, -1, 528, 541, 542, -1,
                        542, 529, 528, -1, 515, 431, 427, -1,
                        421, 352, 353, -1, 421, 353, 417, -1,
                        431, 417, 427, -1, 417, 431, 421, -1,
                        542, 538, 539, -1, 541, 538, 542, -1,
                        77, 81, 80, -1, 393, 392, 390, -1,
                        530, 539, 538, -1, 255, 239, 262, -1,
                        252, 239, 255, -1, 223, 239, 252, -1,
                        195, 239, 223, -1, 637, 620, 606, -1,
                        620, 651, 691, -1, 530, 519, 520, -1,
                        620, 645, 651, -1, 390, 391, 393, -1,
                        75, 71, 77, -1, 388, 392, 393, -1,
                        292, 311, 372, -1, 311, 327, 372, -1,
                        327, 373, 401, -1, 529, 518, 528, -1,
                        385, 453, 464, -1, 464, 521, 375, -1,
                        529, 512, 518, -1, 585, 537, 525, -1,
                        585, 583, 537, -1, 389, 393, 445, -1,
                        445, 453, 389, -1, 57, 58, 63, -1,
                        93, 42, 34, -1, 34, 87, 93, -1,
                        385, 389, 453, -1, 521, 364, 375, -1,
                        641, 689, 683, -1, 63, 71, 68, -1,
                        375, 385, 464, -1, 648, 662, 663, -1,
                        164, 239, 195, -1, 138, 239, 164, -1,
                        133, 239, 138, -1, 133, 128, 196, -1,
                        680, 683, 689, -1, 101, 105, 52, -1,
                        42, 93, 101, -1, 648, 649, 635, -1,
                        643, 620, 641, -1, 622, 620, 643, -1,
                        288, 281, 372, -1, 497, 496, 512, -1,
                        699, 696, 698, -1, 689, 641, 620, -1,
                        393, 449, 445, -1, 367, 466, 449, -1,
                        71, 75, 68, -1, 641, 657, 643, -1,
                        665, 655, 683, -1, 325, 301, 372, -1,
                        301, 288, 372, -1, 281, 286, 372, -1,
                        286, 292, 372, -1, 58, 47, 49, -1,
                        39, 47, 37, -1, 458, 447, 446, -1,
                        377, 366, 367, -1, 387, 377, 367, -1,
                        665, 657, 655, -1, 667, 657, 665, -1,
                        39, 49, 47, -1, 458, 454, 461, -1,
                        269, 265, 176, -1, 275, 279, 353, -1,
                        367, 449, 387, -1, 673, 665, 683, -1,
                        391, 387, 449, -1, 49, 11, 15, -1,
                        49, 39, 11, -1, 675, 665, 673, -1,
                        667, 665, 675, -1, 176, 209, 269, -1,
                        209, 176, 124, -1, 461, 471, 458, -1,
                        37, 30, 39, -1, 673, 683, 682, -1,
                        30, 31, 39, -1, 449, 393, 391, -1,
                        496, 518, 512, -1, 84, 116, 120, -1,
                        120, 97, 84, -1, 116, 84, 66, -1,
                        20, 31, 30, -1, 675, 673, 682, -1,
                        655, 641, 683, -1, 87, 28, 35, -1,
                        35, 94, 87, -1, 657, 641, 655, -1,
                        452, 463, 462, -1, 701, 694, 695, -1,
                        66, 52, 105, -1, 52, 42, 101, -1,
                        66, 105, 116, -1, 22, 29, 21, -1,
                        452, 462, 450, -1, 31, 20, 21, -1,
                        446, 447, 450, -1, 338, 337, 436, -1,
                        360, 338, 434, -1, 291, 226, 251, -1,
                        251, 326, 310, -1, 221, 291, 290, -1,
                        251, 310, 305, -1, 326, 251, 253, -1,
                        353, 352, 275, -1, 691, 695, 694, -1,
                        336, 337, 327, -1, 21, 3, 1, -1,
                        29, 7, 3, -1, 11, 39, 31, -1,
                        31, 5, 11, -1, 15, 58, 49, -1,
                        5, 31, 21, -1, 447, 452, 450, -1,
                        36, 29, 22, -1, 275, 265, 279, -1,
                        265, 269, 279, -1, 327, 337, 338, -1,
                        471, 490, 383, -1, 682, 683, 680, -1,
                        226, 221, 223, -1, 146, 124, 110, -1,
                        110, 120, 146, -1, 110, 97, 120, -1,
                        124, 146, 209, -1, 81, 108, 122, -1,
                        259, 438, 436, -1, 259, 439, 438, -1,
                        439, 259, 256, -1, 439, 254, 244, -1,
                        572, 589, 591, -1, 570, 589, 572, -1,
                        707, 709, 687, -1, 709, 705, 687, -1,
                        48, 62, 45, -1, 258, 257, 255, -1,
                        606, 591, 589, -1, 706, 708, 709, -1,
                        709, 707, 706, -1, 255, 262, 261, -1,
                        261, 258, 255, -1, 62, 69, 60, -1,
                        122, 78, 81, -1, 45, 17, 48, -1,
                        570, 572, 516, -1, 703, 706, 707, -1,
                        257, 337, 336, -1, 257, 336, 326, -1,
                        69, 78, 122, -1, 255, 257, 253, -1,
                        253, 252, 255, -1, 709, 708, 705, -1,
                        253, 251, 252, -1, 553, 578, 570, -1,
                        635, 649, 646, -1, 663, 662, 692, -1,
                        439, 244, 243, -1, 578, 593, 570, -1,
                        589, 570, 624, -1, 663, 649, 648, -1,
                        262, 256, 259, -1, 74, 79, 78, -1,
                        439, 256, 254, -1, 635, 634, 648, -1,
                        262, 259, 260, -1, 593, 592, 604, -1,
                        262, 239, 254, -1, 254, 256, 262, -1,
                        703, 699, 698, -1, 698, 702, 703, -1,
                        262, 260, 261, -1, 326, 253, 257, -1,
                        61, 62, 48, -1, 226, 223, 252, -1,
                        252, 251, 226, -1, 577, 592, 593, -1,
                        593, 578, 577, -1, 678, 703, 707, -1,
                        669, 697, 699, -1, 707, 687, 678, -1,
                        669, 658, 693, -1, 693, 658, 663, -1,
                        646, 638, 635, -1, 3, 21, 29, -1,
                        422, 430, 432, -1, 420, 430, 422, -1,
                        251, 305, 291, -1, 29, 38, 9, -1,
                        432, 514, 516, -1, 430, 514, 432, -1,
                        62, 61, 70, -1, 197, 195, 223, -1,
                        223, 221, 197, -1, 570, 516, 514, -1,
                        697, 693, 692, -1, 291, 221, 226, -1,
                        5, 1, 0, -1, 79, 81, 78, -1,
                        663, 692, 693, -1, 190, 188, 195, -1,
                        195, 197, 190, -1, 29, 36, 38, -1,
                        424, 430, 420, -1, 553, 514, 430, -1,
                        430, 424, 553, -1, 360, 373, 327, -1,
                        327, 338, 360, -1, 553, 570, 514, -1,
                        38, 46, 48, -1, 287, 197, 221, -1,
                        285, 190, 197, -1, 285, 188, 190, -1,
                        285, 114, 188, -1, 45, 16, 17, -1,
                        8, 9, 12, -1, 292, 290, 291, -1,
                        553, 424, 423, -1, 197, 287, 285, -1,
                        423, 424, 403, -1, 403, 402, 423, -1,
                        292, 291, 305, -1, 305, 311, 292, -1,
                        553, 577, 578, -1, 18, 19, 14, -1,
                        305, 310, 311, -1, 658, 646, 649, -1,
                        18, 25, 19, -1, 23, 25, 18, -1,
                        221, 290, 287, -1, 620, 608, 606, -1,
                        23, 24, 26, -1, 336, 327, 326, -1,
                        4, 5, 0, -1, 606, 608, 591, -1,
                        4, 10, 11, -1, 649, 663, 658, -1,
                        639, 637, 630, -1, 0, 1, 3, -1,
                        114, 285, 284, -1, 114, 284, 282, -1,
                        14, 11, 10, -1, 416, 426, 238, -1,
                        426, 483, 238, -1, 483, 546, 479, -1,
                        546, 574, 502, -1, 596, 600, 551, -1,
                        284, 286, 281, -1, 281, 282, 284, -1,
                        631, 626, 604, -1, 638, 631, 604, -1,
                        604, 635, 638, -1, 284, 285, 286, -1,
                        428, 483, 426, -1, 485, 483, 428, -1,
                        580, 576, 582, -1, 574, 576, 580, -1,
                        286, 285, 287, -1, 331, 225, 356, -1,
                        580, 582, 598, -1, 598, 596, 580, -1,
                        658, 644, 646, -1, 331, 356, 330, -1,
                        485, 546, 483, -1, 548, 546, 485, -1,
                        290, 292, 286, -1, 286, 287, 290, -1,
                        548, 574, 546, -1, 576, 574, 548, -1,
                        330, 356, 357, -1, 311, 310, 326, -1,
                        326, 327, 311, -1, 323, 330, 322, -1,
                        331, 330, 323, -1, 418, 416, 361, -1,
                        323, 322, 314, -1, 418, 426, 416, -1,
                        428, 426, 418, -1, 638, 646, 644, -1,
                        356, 369, 357, -1, 606, 629, 637, -1,
                        589, 629, 606, -1, 356, 368, 369, -1,
                        137, 139, 103, -1, 139, 162, 103, -1,
                        118, 114, 282, -1, 103, 99, 137, -1,
                        91, 86, 132, -1, 628, 631, 638, -1,
                        22, 21, 20, -1, 107, 116, 105, -1,
                        105, 103, 107, -1, 638, 644, 636, -1,
                        105, 99, 103, -1, 101, 99, 105, -1,
                        628, 638, 636, -1, 86, 87, 88, -1,
                        580, 596, 527, -1, 600, 612, 560, -1,
                        612, 615, 562, -1, 574, 580, 527, -1,
                        504, 574, 508, -1, 502, 574, 504, -1,
                        502, 500, 546, -1, 676, 668, 670, -1,
                        612, 602, 614, -1, 600, 602, 612, -1,
                        631, 628, 626, -1, 86, 93, 87, -1,
                        91, 93, 86, -1, 614, 615, 612, -1,
                        323, 314, 315, -1, 76, 77, 80, -1,
                        504, 506, 502, -1, 315, 314, 316, -1,
                        137, 138, 139, -1, 508, 506, 504, -1,
                        616, 617, 563, -1, 527, 508, 574, -1,
                        316, 314, 321, -1, 693, 697, 669, -1,
                        134, 137, 99, -1, 134, 99, 91, -1,
                        614, 618, 616, -1, 321, 328, 329, -1,
                        532, 508, 527, -1, 506, 508, 532, -1,
                        76, 75, 77, -1, 321, 329, 316, -1,
                        544, 527, 596, -1, 550, 544, 596, -1,
                        620, 691, 689, -1, 660, 668, 695, -1,
                        138, 134, 133, -1, 137, 134, 138, -1,
                        618, 617, 616, -1, 616, 615, 614, -1,
                        63, 68, 57, -1, 549, 544, 550, -1,
                        328, 347, 342, -1, 551, 550, 596, -1,
                        549, 550, 551, -1, 133, 134, 132, -1,
                        695, 691, 660, -1, 544, 549, 532, -1,
                        532, 527, 544, -1, 328, 342, 329, -1,
                        557, 551, 600, -1, 562, 560, 612, -1,
                        617, 568, 565, -1, 129, 132, 86, -1,
                        57, 47, 58, -1, 685, 678, 687, -1,
                        347, 367, 342, -1, 557, 559, 549, -1,
                        549, 551, 557, -1, 129, 128, 133, -1,
                        133, 132, 129, -1, 560, 557, 600, -1,
                        362, 367, 347, -1, 678, 699, 703, -1,
                        678, 669, 699, -1, 559, 557, 560, -1,
                        130, 129, 88, -1, 130, 88, 92, -1,
                        685, 687, 686, -1, 562, 564, 559, -1,
                        559, 560, 562, -1, 128, 129, 130, -1,
                        316, 215, 186, -1, 186, 169, 183, -1,
                        186, 315, 316, -1, 169, 59, 183, -1,
                        701, 695, 668, -1, 668, 677, 701, -1,
                        677, 687, 705, -1, 705, 701, 677, -1,
                        564, 563, 565, -1, 564, 562, 563, -1,
                        329, 229, 215, -1, 114, 107, 162, -1,
                        107, 103, 162, -1, 671, 669, 678, -1,
                        162, 166, 114, -1, 166, 162, 164, -1,
                        166, 188, 114, -1, 490, 497, 383, -1,
                        195, 188, 166, -1, 166, 164, 195, -1,
                        585, 497, 512, -1, 139, 138, 164, -1,
                        164, 162, 139, -1, 342, 367, 366, -1,
                        436, 260, 259, -1, 436, 257, 258, -1,
                        368, 458, 471, -1, 439, 437, 438, -1,
                        671, 678, 685, -1, 436, 261, 260, -1,
                        455, 460, 459, -1, 686, 677, 676, -1,
                        436, 258, 261, -1, 471, 383, 368, -1,
                        629, 630, 637, -1, 437, 439, 455, -1,
                        455, 459, 437, -1, 460, 243, 483, -1,
                        479, 474, 483, -1, 706, 703, 702, -1,
                        705, 708, 704, -1, 225, 231, 452, -1,
                        452, 447, 225, -1, 454, 446, 472, -1,
                        69, 70, 78, -1, 78, 70, 74, -1,
                        461, 454, 472, -1, 446, 450, 472, -1,
                        472, 470, 461, -1, 472, 528, 518, -1,
                        472, 518, 496, -1, 496, 489, 472, -1,
                        489, 470, 472, -1, 470, 489, 490, -1,
                        490, 471, 470, -1, 497, 490, 489, -1,
                        489, 496, 497, -1, 454, 458, 446, -1,
                        80, 81, 79, -1, 69, 62, 70, -1,
                        659, 669, 671, -1, 309, 320, 319, -1,
                        669, 659, 658, -1, 650, 658, 659, -1,
                        46, 38, 36, -1, 644, 658, 650, -1,
                        297, 306, 307, -1, 6, 2, 7, -1,
                        9, 8, 6, -1, 6, 7, 9, -1,
                        16, 45, 44, -1, 603, 634, 635, -1,
                        635, 604, 603, -1, 59, 169, 156, -1,
                        318, 317, 333, -1, 45, 59, 44, -1,
                        625, 624, 626, -1, 364, 344, 343, -1,
                        624, 625, 623, -1, 333, 343, 344, -1,
                        229, 329, 320, -1, 329, 342, 335, -1,
                        624, 627, 629, -1, 366, 346, 342, -1,
                        627, 624, 623, -1, 627, 630, 629, -1,
                        342, 346, 335, -1, 229, 309, 300, -1,
                        300, 295, 245, -1, 245, 229, 300, -1,
                        320, 309, 229, -1, 335, 320, 329, -1,
                        248, 298, 234, -1, 298, 307, 234, -1,
                        248, 295, 298, -1, 661, 668, 660, -1,
                        318, 333, 189, -1, 318, 218, 234, -1,
                        521, 189, 344, -1, 668, 661, 670, -1,
                        344, 364, 521, -1, 333, 344, 189, -1,
                        189, 218, 318, -1, 660, 651, 661, -1,
                        335, 346, 334, -1, 647, 645, 637, -1,
                        346, 365, 345, -1, 647, 637, 639, -1,
                        334, 346, 345, -1, 647, 651, 645, -1,
                        299, 295, 300, -1, 661, 651, 647, -1,
                        335, 319, 320, -1, 295, 297, 298, -1,
                        295, 299, 294, -1, 308, 299, 300, -1,
                        300, 309, 308, -1, 309, 319, 308, -1,
                        319, 335, 334, -1, 625, 626, 628, -1,
                        307, 317, 318, -1, 307, 298, 297, -1,
                        297, 295, 294, -1, 680, 679, 682, -1,
                        700, 701, 705, -1, 705, 704, 700, -1,
                        317, 307, 306, -1, 701, 700, 694, -1,
                        691, 694, 690, -1, 332, 333, 317, -1,
                        680, 689, 688, -1, 688, 689, 691, -1,
                        691, 690, 688, -1, 363, 364, 343, -1,
                        592, 603, 604, -1, 343, 333, 332, -1,
                        553, 423, 552, -1, 577, 553, 552, -1,
                        403, 424, 420, -1, 349, 313, 403, -1,
                        313, 349, 274, -1, 264, 272, 274, -1,
                        199, 272, 264, -1, 266, 274, 276, -1,
                        264, 274, 266, -1, 420, 349, 403, -1,
                        274, 272, 313, -1, 276, 349, 355, -1,
                        274, 349, 276, -1, 355, 349, 420, -1,
                        420, 422, 355, -1, 123, 113, 127, -1,
                        127, 175, 123, -1, 199, 264, 175, -1,
                        175, 127, 199, -1, 113, 123, 109, -1,
                        109, 90, 113, -1, 90, 109, 96, -1,
                        177, 175, 264, -1, 264, 266, 177, -1,
                        111, 123, 125, -1, 109, 123, 111, -1,
                        123, 177, 125, -1, 175, 177, 123, -1,
                        271, 199, 198, -1, 272, 199, 271, -1,
                        271, 312, 313, -1, 313, 272, 271, -1,
                        112, 126, 127, -1, 127, 113, 112, -1,
                        112, 90, 89, -1, 113, 90, 112, -1,
                        127, 126, 198, -1, 198, 199, 127, -1,
                        402, 403, 313, -1, 313, 312, 402, -1,
                        268, 222, 213, -1, 222, 268, 278, -1,
                        145, 208, 213, -1, 222, 278, 351, -1,
                        351, 361, 238, -1, 361, 416, 238, -1,
                        119, 145, 187, -1, 163, 115, 119, -1,
                        117, 115, 104, -1, 117, 119, 115, -1,
                        121, 119, 117, -1, 121, 145, 119, -1,
                        147, 145, 121, -1, 361, 354, 418, -1,
                        351, 354, 361, -1, 147, 208, 145, -1,
                        210, 208, 147, -1, 210, 268, 208, -1,
                        270, 268, 210, -1, 270, 278, 268, -1,
                        280, 278, 270, -1, 280, 351, 278, -1,
                        354, 351, 280, -1, 96, 73, 90, -1,
                        96, 83, 55, -1, 85, 96, 98, -1,
                        83, 96, 85, -1, 98, 96, 109, -1,
                        109, 111, 98, -1, 104, 115, 163, -1,
                        141, 100, 104, -1, 100, 141, 140, -1,
                        100, 140, 135, -1, 135, 92, 100, -1,
                        92, 135, 131, -1, 86, 88, 129, -1,
                        91, 132, 134, -1, 94, 100, 92, -1,
                        102, 100, 94, -1, 88, 94, 92, -1,
                        87, 94, 88, -1, 142, 140, 141, -1,
                        143, 141, 104, -1, 142, 141, 143, -1,
                        140, 136, 135, -1, 142, 136, 140, -1,
                        243, 238, 483, -1, 243, 460, 455, -1,
                        474, 460, 483, -1, 243, 455, 439, -1,
                        244, 239, 243, -1, 238, 235, 351, -1,
                        235, 222, 351, -1, 213, 208, 268, -1,
                        235, 238, 239, -1, 239, 238, 243, -1,
                        235, 224, 222, -1, 239, 224, 235, -1,
                        239, 244, 254, -1, 187, 178, 119, -1,
                        178, 163, 119, -1, 200, 187, 145, -1,
                        196, 165, 178, -1, 178, 187, 196, -1,
                        163, 178, 165, -1, 213, 200, 145, -1,
                        196, 187, 200, -1, 200, 211, 196, -1,
                        200, 213, 211, -1, 224, 213, 222, -1,
                        211, 213, 224, -1, 92, 131, 130, -1,
                        131, 135, 136, -1, 136, 128, 131, -1,
                        163, 143, 104, -1, 143, 165, 142, -1,
                        163, 165, 143, -1, 102, 104, 100, -1,
                        106, 104, 102, -1, 117, 104, 106, -1,
                        73, 72, 90, -1, 72, 89, 90, -1,
                        55, 54, 72, -1, 72, 73, 55, -1,
                        24, 55, 27, -1, 54, 55, 24, -1 ]
                    ccw TRUE
                    solid FALSE
                    convex TRUE
                    creaseAngle 0

                  }

                }

            }

        }

    }

}
