ISO-10303-21;
HEADER;
FILE_DESCRIPTION((''),'2;1');
FILE_NAME('MOV-14D180K','2012-08-23T',('ryans'),('Bourns, Inc.'),
'PRO/ENGINEER BY PARAMETRIC TECHNOLOGY CORPORATION, 2010100',
'PRO/ENGINEER BY PARAMETRIC TECHNOLOGY CORPORATION, 2010100','');
FILE_SCHEMA(('CONFIG_CONTROL_DESIGN'));
ENDSEC;
DATA;
#1=CARTESIAN_POINT('',(0.E0,0.E0,0.E0));
#2=DIRECTION('',(0.E0,0.E0,-1.E0));
#3=DIRECTION('',(1.E0,0.E0,0.E0));
#4=AXIS2_PLACEMENT_3D('',#1,#2,#3);
#6=CARTESIAN_POINT('',(0.E0,0.E0,0.E0));
#7=DIRECTION('',(0.E0,0.E0,-1.E0));
#8=DIRECTION('',(-1.E0,0.E0,0.E0));
#9=AXIS2_PLACEMENT_3D('',#6,#7,#8);
#11=CARTESIAN_POINT('',(7.25E0,0.E0,1.E0));
#12=DIRECTION('',(0.E0,-1.E0,0.E0));
#13=DIRECTION('',(0.E0,0.E0,-1.E0));
#14=AXIS2_PLACEMENT_3D('',#11,#12,#13);
#16=CARTESIAN_POINT('',(-7.25E0,0.E0,1.E0));
#17=DIRECTION('',(0.E0,1.E0,0.E0));
#18=DIRECTION('',(0.E0,0.E0,-1.E0));
#19=AXIS2_PLACEMENT_3D('',#16,#17,#18);
#21=CARTESIAN_POINT('',(3.661242404125E0,7.393091142649E0,2.199999999995E0));
#22=CARTESIAN_POINT('',(3.606731694938E0,7.420085574852E0,2.200002657575E0));
#23=CARTESIAN_POINT('',(3.498939780470E0,7.471985333946E0,2.209170421801E0));
#24=CARTESIAN_POINT('',(3.338318407256E0,7.545061560950E0,2.251199438911E0));
#25=CARTESIAN_POINT('',(3.187483490329E0,7.609899924905E0,2.320230839082E0));
#26=CARTESIAN_POINT('',(3.051132401858E0,7.665464156665E0,2.413403304472E0));
#27=CARTESIAN_POINT('',(2.933599645801E0,7.711087179254E0,2.526571234002E0));
#28=CARTESIAN_POINT('',(2.836566583526E0,7.747204726711E0,2.656476481783E0));
#29=CARTESIAN_POINT('',(2.761319320789E0,7.774258818151E0,2.800839700875E0));
#30=CARTESIAN_POINT('',(2.709898520845E0,7.792270210456E0,2.956136310381E0));
#31=CARTESIAN_POINT('',(2.683854985669E0,7.801246320535E0,3.117779697697E0));
#32=CARTESIAN_POINT('',(2.683807145735E0,7.801262721989E0,3.281614188179E0));
#33=CARTESIAN_POINT('',(2.709751861323E0,7.792321015493E0,3.443256028049E0));
#34=CARTESIAN_POINT('',(2.761070472507E0,7.774346918320E0,3.598571889297E0));
#35=CARTESIAN_POINT('',(2.836245520327E0,7.747322023824E0,3.743015171292E0));
#36=CARTESIAN_POINT('',(2.933207719791E0,7.711235715935E0,3.872978927568E0));
#37=CARTESIAN_POINT('',(3.050592678719E0,7.665677798795E0,3.986146497824E0));
#38=CARTESIAN_POINT('',(3.186782671105E0,7.610192566641E0,4.079369515064E0));
#39=CARTESIAN_POINT('',(3.337620745408E0,7.545371239542E0,4.148561737380E0));
#40=CARTESIAN_POINT('',(3.498495446028E0,7.472196339380E0,4.190773905081E0));
#41=CARTESIAN_POINT('',(3.606563402247E0,7.420168945614E0,4.199997849268E0));
#42=CARTESIAN_POINT('',(3.661242403647E0,7.393091141707E0,4.200000000004E0));
#44=CARTESIAN_POINT('',(3.661242403647E0,7.393091141707E0,4.200000000004E0));
#45=CARTESIAN_POINT('',(3.718858712088E0,7.364557327795E0,4.199996761790E0));
#46=CARTESIAN_POINT('',(3.832398142266E0,7.306678392448E0,4.189786295248E0));
#47=CARTESIAN_POINT('',(4.000957126827E0,7.215717433044E0,4.143167213055E0));
#48=CARTESIAN_POINT('',(4.157677541596E0,7.126439699478E0,4.067108626729E0));
#49=CARTESIAN_POINT('',(4.297618439275E0,7.042769499187E0,3.964991556730E0));
#50=CARTESIAN_POINT('',(4.414730362495E0,6.969773777340E0,3.843247350570E0));
#51=CARTESIAN_POINT('',(4.507047525438E0,6.910282612756E0,3.708156388658E0));
#52=CARTESIAN_POINT('',(4.574404568998E0,6.865765696403E0,3.565077901889E0));
#53=CARTESIAN_POINT('',(4.617628324163E0,6.836699310291E0,3.418893875708E0));
#54=CARTESIAN_POINT('',(4.638461700289E0,6.822550024483E0,3.272711071957E0));
#55=CARTESIAN_POINT('',(4.638435688182E0,6.822567750032E0,3.126907991670E0));
#56=CARTESIAN_POINT('',(4.617538748557E0,6.836759963020E0,2.980697756591E0));
#57=CARTESIAN_POINT('',(4.574259993446E0,6.865862158308E0,2.834552515416E0));
#58=CARTESIAN_POINT('',(4.506864042245E0,6.910402618681E0,2.691522570382E0));
#59=CARTESIAN_POINT('',(4.414470687508E0,6.969938666244E0,2.556431571159E0));
#60=CARTESIAN_POINT('',(4.297315275736E0,7.042954853844E0,2.434743636040E0));
#61=CARTESIAN_POINT('',(4.157314091863E0,7.126652286518E0,2.332670021550E0));
#62=CARTESIAN_POINT('',(4.000545834277E0,7.215945634189E0,2.256678387452E0));
#63=CARTESIAN_POINT('',(3.832044810188E0,7.306861870479E0,2.210160334043E0));
#64=CARTESIAN_POINT('',(3.718716754969E0,7.364627755754E0,2.200002994953E0));
#65=CARTESIAN_POINT('',(3.661242404125E0,7.393091142649E0,2.199999999995E0));
#67=CARTESIAN_POINT('',(-3.661242403598E0,7.393091141607E0,1.199999999996E0));
#68=CARTESIAN_POINT('',(-3.718875255923E0,7.364549133920E0,1.200003241861E0));
#69=CARTESIAN_POINT('',(-3.832438679806E0,7.306657292707E0,1.210220009438E0));
#70=CARTESIAN_POINT('',(-4.000998880959E0,7.215694236323E0,1.256848661671E0));
#71=CARTESIAN_POINT('',(-4.157712196613E0,7.126419357044E0,1.332913045602E0));
#72=CARTESIAN_POINT('',(-4.297636248256E0,7.042758534755E0,1.435024842479E0));
#73=CARTESIAN_POINT('',(-4.414744047362E0,6.969765093078E0,1.556769559448E0));
#74=CARTESIAN_POINT('',(-4.507055670135E0,6.910277266540E0,1.691858533127E0));
#75=CARTESIAN_POINT('',(-4.574408281275E0,6.865763211857E0,1.834932564122E0));
#76=CARTESIAN_POINT('',(-4.617629559060E0,6.836698472235E0,1.981112723586E0));
#77=CARTESIAN_POINT('',(-4.638461674303E0,6.822550042003E0,2.127291448193E0));
#78=CARTESIAN_POINT('',(-4.638435613815E0,6.822567800454E0,2.273090159036E0));
#79=CARTESIAN_POINT('',(-4.617539849912E0,6.836759215524E0,2.419296277111E0));
#80=CARTESIAN_POINT('',(-4.574263460246E0,6.865859837373E0,2.565437677247E0));
#81=CARTESIAN_POINT('',(-4.506871827443E0,6.910397509614E0,2.708463175253E0));
#82=CARTESIAN_POINT('',(-4.414483885798E0,6.969930285189E0,2.843552045367E0));
#83=CARTESIAN_POINT('',(-4.297333024764E0,7.042943940052E0,2.965240170337E0));
#84=CARTESIAN_POINT('',(-4.157345610897E0,7.126633799430E0,3.067310404091E0));
#85=CARTESIAN_POINT('',(-4.000582967179E0,7.215925019163E0,3.143307586401E0));
#86=CARTESIAN_POINT('',(-3.832079509782E0,7.306843821337E0,3.189834346011E0));
#87=CARTESIAN_POINT('',(-3.718730849715E0,7.364620774691E0,3.199997001558E0));
#88=CARTESIAN_POINT('',(-3.661242404043E0,7.393091142484E0,3.200000000005E0));
#90=CARTESIAN_POINT('',(-3.661242404043E0,7.393091142484E0,3.200000000005E0));
#91=CARTESIAN_POINT('',(-3.606731694857E0,7.420085574687E0,3.199997342425E0));
#92=CARTESIAN_POINT('',(-3.498939780508E0,7.471985334023E0,3.190829578199E0));
#93=CARTESIAN_POINT('',(-3.338318407245E0,7.545061560929E0,3.148800561089E0));
#94=CARTESIAN_POINT('',(-3.187483490332E0,7.609899924911E0,3.079769160918E0));
#95=CARTESIAN_POINT('',(-3.051132401857E0,7.665464156664E0,2.986596695528E0));
#96=CARTESIAN_POINT('',(-2.933599645801E0,7.711087179255E0,2.873428765998E0));
#97=CARTESIAN_POINT('',(-2.836566583526E0,7.747204726711E0,2.743523518217E0));
#98=CARTESIAN_POINT('',(-2.761319320789E0,7.774258818151E0,2.599160299125E0));
#99=CARTESIAN_POINT('',(-2.709898520845E0,7.792270210456E0,2.443863689619E0));
#100=CARTESIAN_POINT('',(-2.683854985669E0,7.801246320535E0,2.282220302303E0));
#101=CARTESIAN_POINT('',(-2.683807145735E0,7.801262721989E0,2.118385811821E0));
#102=CARTESIAN_POINT('',(-2.709751861323E0,7.792321015493E0,1.956743971951E0));
#103=CARTESIAN_POINT('',(-2.761070472507E0,7.774346918320E0,1.801428110703E0));
#104=CARTESIAN_POINT('',(-2.836245520327E0,7.747322023823E0,1.656984828708E0));
#105=CARTESIAN_POINT('',(-2.933207719791E0,7.711235715935E0,1.527021072432E0));
#106=CARTESIAN_POINT('',(-3.050592678718E0,7.665677798794E0,1.413853502176E0));
#107=CARTESIAN_POINT('',(-3.186782671107E0,7.610192566645E0,1.320630484936E0));
#108=CARTESIAN_POINT('',(-3.337620745402E0,7.545371239529E0,1.251438262620E0));
#109=CARTESIAN_POINT('',(-3.498495446051E0,7.472196339427E0,1.209226094919E0));
#110=CARTESIAN_POINT('',(-3.606563402197E0,7.420168945514E0,1.200002150732E0));
#111=CARTESIAN_POINT('',(-3.661242403598E0,7.393091141607E0,1.199999999996E0));
#113=CARTESIAN_POINT('',(0.E0,0.E0,4.4E0));
#114=DIRECTION('',(0.E0,0.E0,1.E0));
#115=DIRECTION('',(1.E0,0.E0,0.E0));
#116=AXIS2_PLACEMENT_3D('',#113,#114,#115);
#118=CARTESIAN_POINT('',(0.E0,0.E0,1.E0));
#119=DIRECTION('',(0.E0,0.E0,-1.E0));
#120=DIRECTION('',(-1.E0,0.E0,0.E0));
#121=AXIS2_PLACEMENT_3D('',#118,#119,#120);
#123=DIRECTION('',(0.E0,-8.323414976043E-13,1.E0));
#124=VECTOR('',#123,3.4E0);
#125=CARTESIAN_POINT('',(8.25E0,2.131749961876E-12,1.E0));
#126=LINE('',#125,#124);
#127=CARTESIAN_POINT('',(3.749999666393E0,7.572317460821E0,2.200001508067E0));
#128=DIRECTION('',(-8.961324255880E-1,4.437867458672E-1,1.532693837729E-6));
#129=DIRECTION('',(-4.437867458654E-1,-8.961324255585E-1,-7.540359368471E-6));
#130=AXIS2_PLACEMENT_3D('',#127,#128,#129);
#132=CARTESIAN_POINT('',(3.749999633290E0,7.572317405383E0,4.199998429866E0));
#133=DIRECTION('',(8.961324345116E-1,-4.437867278482E-1,1.455702748329E-6));
#134=DIRECTION('',(-4.437867278452E-1,-8.961324344799E-1,7.850698774247E-6));
#135=AXIS2_PLACEMENT_3D('',#132,#133,#134);
#137=CARTESIAN_POINT('',(3.749999999980E0,7.572318007073E0,3.999999266404E0));
#138=CARTESIAN_POINT('',(3.796965790945E0,7.543242824432E0,3.999998012381E0));
#139=CARTESIAN_POINT('',(3.890637134488E0,7.483556691382E0,3.991786260389E0));
#140=CARTESIAN_POINT('',(4.028462700475E0,7.390568799581E0,3.954476539933E0));
#141=CARTESIAN_POINT('',(4.156914931061E0,7.299100687794E0,3.893610868803E0));
#142=CARTESIAN_POINT('',(4.271529423478E0,7.213436247600E0,3.811914019676E0));
#143=CARTESIAN_POINT('',(4.367462751450E0,7.138691231233E0,3.714525512856E0));
#144=CARTESIAN_POINT('',(4.443078603539E0,7.077779801129E0,3.606469201986E0));
#145=CARTESIAN_POINT('',(4.498250957456E0,7.032199365755E0,3.492029230704E0));
#146=CARTESIAN_POINT('',(4.533656485864E0,7.002437649134E0,3.375109275536E0));
#147=CARTESIAN_POINT('',(4.550724830125E0,6.987947262642E0,3.258188141772E0));
#148=CARTESIAN_POINT('',(4.550708336720E0,6.987961676557E0,3.141569158223E0));
#149=CARTESIAN_POINT('',(4.533597799518E0,7.002488221442E0,3.024625469927E0));
#150=CARTESIAN_POINT('',(4.498155865418E0,7.032279537084E0,2.907731805447E0));
#151=CARTESIAN_POINT('',(4.442958436086E0,7.077878459686E0,2.793324002102E0));
#152=CARTESIAN_POINT('',(4.367285219740E0,7.138832087899E0,2.685259593178E0));
#153=CARTESIAN_POINT('',(4.271319432129E0,7.213596354289E0,2.587906913611E0));
#154=CARTESIAN_POINT('',(4.156656941749E0,7.299289185E0,2.506235440297E0));
#155=CARTESIAN_POINT('',(4.028162021666E0,7.390776697882E0,2.445413278341E0));
#156=CARTESIAN_POINT('',(3.890390051075E0,7.483717245867E0,2.408178471359E0));
#157=CARTESIAN_POINT('',(3.796866806581E0,7.543303692563E0,2.400001945577E0));
#158=CARTESIAN_POINT('',(3.750000000015E0,7.572318007051E0,2.400000775138E0));
#160=DIRECTION('',(-1.260755978337E-10,9.999999999999E-1,3.709374436522E-7));
#161=VECTOR('',#160,1.977681992932E0);
#162=CARTESIAN_POINT('',(3.749999999980E0,7.572318007073E0,3.999999266404E0));
#163=LINE('',#162,#161);
#164=CARTESIAN_POINT('',(3.75E0,9.549999999999E0,3.2E0));
#165=DIRECTION('',(0.E0,1.E0,0.E0));
#166=DIRECTION('',(0.E0,0.E0,1.E0));
#167=AXIS2_PLACEMENT_3D('',#164,#165,#166);
#169=CARTESIAN_POINT('',(3.750000000015E0,7.572318007051E0,2.400000775138E0));
#170=CARTESIAN_POINT('',(3.705549394044E0,7.599833128200E0,2.400001787896E0));
#171=CARTESIAN_POINT('',(3.616654679156E0,7.653337363137E0,2.407371493961E0));
#172=CARTESIAN_POINT('',(3.485294288994E0,7.728024366740E0,2.441010851230E0));
#173=CARTESIAN_POINT('',(3.361666120122E0,7.794455195362E0,2.496255315397E0));
#174=CARTESIAN_POINT('',(3.249988730594E0,7.851337163239E0,2.570798534466E0));
#175=CARTESIAN_POINT('',(3.153710361169E0,7.898052317880E0,2.661328104521E0));
#176=CARTESIAN_POINT('',(3.074230186284E0,7.935031462771E0,2.765238881410E0));
#177=CARTESIAN_POINT('',(3.012593998496E0,7.962731925320E0,2.880708775413E0));
#178=CARTESIAN_POINT('',(2.970474368271E0,7.981173750394E0,3.004916676071E0));
#179=CARTESIAN_POINT('',(2.949138073994E0,7.990365940880E0,3.134200052070E0));
#180=CARTESIAN_POINT('',(2.949092453415E0,7.990385436325E0,3.265238965953E0));
#181=CARTESIAN_POINT('',(2.970336350722E0,7.981233366446E0,3.394528120889E0));
#182=CARTESIAN_POINT('',(3.012364560574E0,7.962833233038E0,3.518763291704E0));
#183=CARTESIAN_POINT('',(3.073936652293E0,7.935165198984E0,3.634308326074E0));
#184=CARTESIAN_POINT('',(3.153355447043E0,7.898220124679E0,3.738275577984E0));
#185=CARTESIAN_POINT('',(3.249511011870E0,7.851573212118E0,3.828813965513E0));
#186=CARTESIAN_POINT('',(3.361056800474E0,7.794772880839E0,3.903406490073E0));
#187=CARTESIAN_POINT('',(3.484692718686E0,7.728357844416E0,3.958788116636E0));
#188=CARTESIAN_POINT('',(3.616255599666E0,7.653573315532E0,3.992578627686E0));
#189=CARTESIAN_POINT('',(3.705400152453E0,7.599926130735E0,3.999998458667E0));
#190=CARTESIAN_POINT('',(3.749999999980E0,7.572318007073E0,3.999999266404E0));
#192=DIRECTION('',(1.285160111798E-10,9.999999999999E-1,-3.919426918822E-7));
#193=VECTOR('',#192,1.977681992955E0);
#194=CARTESIAN_POINT('',(3.750000000015E0,7.572318007051E0,2.400000775138E0));
#195=LINE('',#194,#193);
#196=CARTESIAN_POINT('',(3.75E0,9.55E0,3.2E0));
#197=DIRECTION('',(0.E0,1.E0,0.E0));
#198=DIRECTION('',(0.E0,0.E0,-1.E0));
#199=AXIS2_PLACEMENT_3D('',#196,#197,#198);
#201=CARTESIAN_POINT('',(3.75E0,1.155681422326E1,3.2E0));
#202=DIRECTION('',(0.E0,1.E0,0.E0));
#203=DIRECTION('',(6.735875564794E-10,0.E0,-1.E0));
#204=AXIS2_PLACEMENT_3D('',#201,#202,#203);
#206=DIRECTION('',(-1.942042434633E-9,-9.994194109758E-1,-3.407111628327E-2));
#207=VECTOR('',#206,2.007980034421E0);
#208=CARTESIAN_POINT('',(3.750000004169E0,1.155681422326E1,2.468414121247E0));
#209=LINE('',#208,#207);
#210=CARTESIAN_POINT('',(3.750000005392E0,1.155E1,2.668298003443E0));
#211=DIRECTION('',(-1.E0,0.E0,-1.014126041476E-8));
#212=DIRECTION('',(0.E0,1.E0,0.E0));
#213=AXIS2_PLACEMENT_3D('',#210,#211,#212);
#215=CARTESIAN_POINT('',(-3.75E0,1.175E1,2.2E0));
#216=DIRECTION('',(0.E0,1.E0,0.E0));
#217=DIRECTION('',(0.E0,0.E0,-1.E0));
#218=AXIS2_PLACEMENT_3D('',#215,#216,#217);
#220=CARTESIAN_POINT('',(-3.75E0,1.175E1,2.2E0));
#221=DIRECTION('',(0.E0,1.E0,0.E0));
#222=DIRECTION('',(0.E0,0.E0,1.E0));
#223=AXIS2_PLACEMENT_3D('',#220,#221,#222);
#225=CARTESIAN_POINT('',(3.75E0,1.175E1,3.2E0));
#226=DIRECTION('',(0.E0,1.E0,0.E0));
#227=DIRECTION('',(0.E0,0.E0,-1.E0));
#228=AXIS2_PLACEMENT_3D('',#225,#226,#227);
#230=CARTESIAN_POINT('',(3.75E0,1.175E1,3.2E0));
#231=DIRECTION('',(0.E0,1.E0,0.E0));
#232=DIRECTION('',(0.E0,0.E0,1.E0));
#233=AXIS2_PLACEMENT_3D('',#230,#231,#232);
#235=CARTESIAN_POINT('',(3.75E0,1.175E1,3.2E0));
#236=DIRECTION('',(0.E0,1.E0,0.E0));
#237=DIRECTION('',(-1.014125644803E-8,0.E0,1.E0));
#238=AXIS2_PLACEMENT_3D('',#235,#236,#237);
#240=CARTESIAN_POINT('',(3.75E0,1.175E1,3.2E0));
#241=DIRECTION('',(0.E0,1.E0,0.E0));
#242=DIRECTION('',(1.014126062414E-8,0.E0,-1.E0));
#243=AXIS2_PLACEMENT_3D('',#240,#241,#242);
#245=CARTESIAN_POINT('',(-3.75E0,1.175E1,2.2E0));
#246=DIRECTION('',(0.E0,1.E0,0.E0));
#247=DIRECTION('',(-1.014125728325E-8,0.E0,1.E0));
#248=AXIS2_PLACEMENT_3D('',#245,#246,#247);
#250=CARTESIAN_POINT('',(-3.75E0,1.175E1,2.2E0));
#251=DIRECTION('',(0.E0,1.E0,0.E0));
#252=DIRECTION('',(1.014126145936E-8,0.E0,-1.E0));
#253=AXIS2_PLACEMENT_3D('',#250,#251,#252);
#255=DIRECTION('',(0.E0,1.E0,0.E0));
#256=VECTOR('',#255,2.E1);
#257=CARTESIAN_POINT('',(-3.75E0,1.175E1,1.8E0));
#258=LINE('',#257,#256);
#259=DIRECTION('',(0.E0,1.E0,0.E0));
#260=VECTOR('',#259,2.E1);
#261=CARTESIAN_POINT('',(-3.75E0,1.175E1,2.6E0));
#262=LINE('',#261,#260);
#263=CARTESIAN_POINT('',(-3.75E0,3.175E1,2.2E0));
#264=DIRECTION('',(0.E0,1.E0,0.E0));
#265=DIRECTION('',(0.E0,0.E0,-1.E0));
#266=AXIS2_PLACEMENT_3D('',#263,#264,#265);
#268=CARTESIAN_POINT('',(-3.75E0,3.175E1,2.2E0));
#269=DIRECTION('',(0.E0,1.E0,0.E0));
#270=DIRECTION('',(0.E0,0.E0,1.E0));
#271=AXIS2_PLACEMENT_3D('',#268,#269,#270);
#273=CARTESIAN_POINT('',(3.75E0,3.175E1,3.2E0));
#274=DIRECTION('',(0.E0,1.E0,0.E0));
#275=DIRECTION('',(0.E0,0.E0,-1.E0));
#276=AXIS2_PLACEMENT_3D('',#273,#274,#275);
#278=CARTESIAN_POINT('',(3.75E0,3.175E1,3.2E0));
#279=DIRECTION('',(0.E0,1.E0,0.E0));
#280=DIRECTION('',(0.E0,0.E0,1.E0));
#281=AXIS2_PLACEMENT_3D('',#278,#279,#280);
#283=DIRECTION('',(0.E0,1.E0,0.E0));
#284=VECTOR('',#283,2.E1);
#285=CARTESIAN_POINT('',(3.75E0,1.175E1,2.8E0));
#286=LINE('',#285,#284);
#287=DIRECTION('',(0.E0,1.E0,0.E0));
#288=VECTOR('',#287,2.E1);
#289=CARTESIAN_POINT('',(3.75E0,1.175E1,3.6E0));
#290=LINE('',#289,#288);
#291=CARTESIAN_POINT('',(3.749999994608E0,1.155E1,3.731701996557E0));
#292=DIRECTION('',(1.E0,0.E0,1.014125614734E-8));
#293=DIRECTION('',(0.E0,1.E0,0.E0));
#294=AXIS2_PLACEMENT_3D('',#291,#292,#293);
#296=CARTESIAN_POINT('',(3.75E0,1.155681422326E1,3.2E0));
#297=DIRECTION('',(0.E0,1.E0,0.E0));
#298=DIRECTION('',(-6.735833073208E-10,0.E0,1.E0));
#299=AXIS2_PLACEMENT_3D('',#296,#297,#298);
#301=DIRECTION('',(1.942041992308E-9,-9.994194109758E-1,3.407111628327E-2));
#302=VECTOR('',#301,2.007980034421E0);
#303=CARTESIAN_POINT('',(3.749999995831E0,1.155681422326E1,3.931585878753E0));
#304=LINE('',#303,#302);
#305=CARTESIAN_POINT('',(-3.750000005392E0,1.155E1,2.731701996557E0));
#306=DIRECTION('',(1.E0,0.E0,1.014125688981E-8));
#307=DIRECTION('',(0.E0,1.E0,0.E0));
#308=AXIS2_PLACEMENT_3D('',#305,#306,#307);
#310=CARTESIAN_POINT('',(-3.749999994608E0,1.155E1,1.668298003443E0));
#311=DIRECTION('',(-1.E0,0.E0,-1.014126291277E-8));
#312=DIRECTION('',(0.E0,1.E0,0.E0));
#313=AXIS2_PLACEMENT_3D('',#310,#311,#312);
#315=CARTESIAN_POINT('',(-3.75E0,1.155681422326E1,2.2E0));
#316=DIRECTION('',(0.E0,1.E0,0.E0));
#317=DIRECTION('',(6.735875564794E-10,0.E0,-1.E0));
#318=AXIS2_PLACEMENT_3D('',#315,#316,#317);
#320=DIRECTION('',(-1.942043098119E-9,-9.994194109758E-1,-3.407111628327E-2));
#321=VECTOR('',#320,2.007980034421E0);
#322=CARTESIAN_POINT('',(-3.749999995831E0,1.155681422326E1,1.468414121247E0));
#323=LINE('',#322,#321);
#324=CARTESIAN_POINT('',(-3.75E0,1.155681422326E1,2.2E0));
#325=DIRECTION('',(0.E0,1.E0,0.E0));
#326=DIRECTION('',(-6.735839143434E-10,0.E0,1.E0));
#327=AXIS2_PLACEMENT_3D('',#324,#325,#326);
#329=DIRECTION('',(1.942042213470E-9,-9.994194109758E-1,3.407111628327E-2));
#330=VECTOR('',#329,2.007980034421E0);
#331=CARTESIAN_POINT('',(-3.750000004169E0,1.155681422326E1,2.931585878753E0));
#332=LINE('',#331,#330);
#333=CARTESIAN_POINT('',(-3.750000000015E0,7.572318007051E0,2.999999224536E0));
#334=CARTESIAN_POINT('',(-3.705549394044E0,7.599833128200E0,2.999998211779E0));
#335=CARTESIAN_POINT('',(-3.616654679156E0,7.653337363137E0,2.992628506190E0));
#336=CARTESIAN_POINT('',(-3.485294288994E0,7.728024366740E0,2.958989148730E0));
#337=CARTESIAN_POINT('',(-3.361666120122E0,7.794455195362E0,2.903744684613E0));
#338=CARTESIAN_POINT('',(-3.249988730594E0,7.851337163239E0,2.829201465531E0));
#339=CARTESIAN_POINT('',(-3.153710361169E0,7.898052317880E0,2.738671895479E0));
#340=CARTESIAN_POINT('',(-3.074230186284E0,7.935031462771E0,2.634761118590E0));
#341=CARTESIAN_POINT('',(-3.012593998496E0,7.962731925320E0,2.519291224587E0));
#342=CARTESIAN_POINT('',(-2.970474368271E0,7.981173750394E0,2.395083323929E0));
#343=CARTESIAN_POINT('',(-2.949138073994E0,7.990365940880E0,2.265799947930E0));
#344=CARTESIAN_POINT('',(-2.949092453415E0,7.990385436325E0,2.134761034047E0));
#345=CARTESIAN_POINT('',(-2.970336350722E0,7.981233366446E0,2.005471879111E0));
#346=CARTESIAN_POINT('',(-3.012364560574E0,7.962833233038E0,1.881236708296E0));
#347=CARTESIAN_POINT('',(-3.073936652293E0,7.935165198984E0,1.765691673926E0));
#348=CARTESIAN_POINT('',(-3.153355447043E0,7.898220124679E0,1.661724422016E0));
#349=CARTESIAN_POINT('',(-3.249511011870E0,7.851573212118E0,1.571186034489E0));
#350=CARTESIAN_POINT('',(-3.361056800474E0,7.794772880839E0,1.496593509919E0));
#351=CARTESIAN_POINT('',(-3.484692718686E0,7.728357844416E0,1.441211883393E0));
#352=CARTESIAN_POINT('',(-3.616255599666E0,7.653573315532E0,1.407421372206E0));
#353=CARTESIAN_POINT('',(-3.705400152453E0,7.599926130735E0,1.400001541566E0));
#354=CARTESIAN_POINT('',(-3.749999999980E0,7.572318007073E0,1.400000733829E0));
#356=DIRECTION('',(-1.285243195432E-10,9.999999999999E-1,3.921073528671E-7));
#357=VECTOR('',#356,1.977681992955E0);
#358=CARTESIAN_POINT('',(-3.750000000015E0,7.572318007051E0,2.999999224536E0));
#359=LINE('',#358,#357);
#360=CARTESIAN_POINT('',(-3.75E0,9.549999999999E0,2.2E0));
#361=DIRECTION('',(0.E0,1.E0,0.E0));
#362=DIRECTION('',(0.E0,0.E0,1.E0));
#363=AXIS2_PLACEMENT_3D('',#360,#361,#362);
#365=CARTESIAN_POINT('',(-3.749999666393E0,7.572317460821E0,3.199998491933E0));
#366=DIRECTION('',(8.961324255880E-1,4.437867458672E-1,-1.532693905465E-6));
#367=DIRECTION('',(4.437867458654E-1,-8.961324255585E-1,7.540359366250E-6));
#368=AXIS2_PLACEMENT_3D('',#365,#366,#367);
#370=CARTESIAN_POINT('',(-3.749999633064E0,7.572317405008E0,1.200001571298E0));
#371=DIRECTION('',(-8.961324345761E-1,-4.437867277180E-1,-1.456424223765E-6));
#372=DIRECTION('',(4.437867277150E-1,-8.961324345443E-1,-7.856519637450E-6));
#373=AXIS2_PLACEMENT_3D('',#370,#371,#372);
#375=CARTESIAN_POINT('',(-3.749999999980E0,7.572318007073E0,1.400000733829E0));
#376=CARTESIAN_POINT('',(-3.796979338499E0,7.543234436501E0,1.400001989268E0));
#377=CARTESIAN_POINT('',(-3.890670346893E0,7.483535079402E0,1.408218796693E0));
#378=CARTESIAN_POINT('',(-4.028496859285E0,7.390545077436E0,1.445536148417E0));
#379=CARTESIAN_POINT('',(-4.156943269299E0,7.299079893303E0,1.506406442351E0));
#380=CARTESIAN_POINT('',(-4.271543965488E0,7.213425056158E0,1.588099059080E0));
#381=CARTESIAN_POINT('',(-4.367473936194E0,7.138682358905E0,1.685487982672E0));
#382=CARTESIAN_POINT('',(-4.443085258064E0,7.077774340731E0,1.793542704532E0));
#383=CARTESIAN_POINT('',(-4.498253989816E0,7.032196828692E0,1.907979117471E0));
#384=CARTESIAN_POINT('',(-4.533657494958E0,7.002436793088E0,2.024895989075E0));
#385=CARTESIAN_POINT('',(-4.550724808949E0,6.987947280529E0,2.141813868690E0));
#386=CARTESIAN_POINT('',(-4.550708275762E0,6.987961728093E0,2.258429364705E0));
#387=CARTESIAN_POINT('',(-4.533598699387E0,7.002487457634E0,2.375369766927E0));
#388=CARTESIAN_POINT('',(-4.498158697947E0,7.032277166235E0,2.492260366730E0));
#389=CARTESIAN_POINT('',(-4.442964800733E0,7.077873238228E0,2.606664614775E0));
#390=CARTESIAN_POINT('',(-4.367296014317E0,7.138823519485E0,2.714727320827E0));
#391=CARTESIAN_POINT('',(-4.271333935675E0,7.213585206382E0,2.812080161213E0));
#392=CARTESIAN_POINT('',(-4.156682732077E0,7.299270275100E0,2.893748912452E0));
#393=CARTESIAN_POINT('',(-4.028192421286E0,7.390755600256E0,2.954575500435E0));
#394=CARTESIAN_POINT('',(-3.890418525706E0,7.483698729142E0,2.991817251377E0));
#395=CARTESIAN_POINT('',(-3.796878358751E0,7.543296539447E0,2.999998052739E0));
#396=CARTESIAN_POINT('',(-3.750000000015E0,7.572318007051E0,2.999999224536E0));
#398=DIRECTION('',(1.260517954952E-10,9.999999999999E-1,-3.710551740604E-7));
#399=VECTOR('',#398,1.977681992932E0);
#400=CARTESIAN_POINT('',(-3.749999999980E0,7.572318007073E0,1.400000733829E0));
#401=LINE('',#400,#399);
#402=CARTESIAN_POINT('',(-3.75E0,9.55E0,2.2E0));
#403=DIRECTION('',(0.E0,1.E0,0.E0));
#404=DIRECTION('',(0.E0,0.E0,-1.E0));
#405=AXIS2_PLACEMENT_3D('',#402,#403,#404);
#407=CARTESIAN_POINT('',(7.25E0,0.E0,4.4E0));
#408=DIRECTION('',(0.E0,1.E0,0.E0));
#409=DIRECTION('',(0.E0,0.E0,1.E0));
#410=AXIS2_PLACEMENT_3D('',#407,#408,#409);
#412=CARTESIAN_POINT('',(0.E0,0.E0,5.4E0));
#413=DIRECTION('',(0.E0,0.E0,1.E0));
#414=DIRECTION('',(-1.E0,0.E0,0.E0));
#415=AXIS2_PLACEMENT_3D('',#412,#413,#414);
#417=CARTESIAN_POINT('',(0.E0,0.E0,5.4E0));
#418=DIRECTION('',(0.E0,0.E0,1.E0));
#419=DIRECTION('',(1.E0,0.E0,0.E0));
#420=AXIS2_PLACEMENT_3D('',#417,#418,#419);
#422=CARTESIAN_POINT('',(-7.25E0,0.E0,4.4E0));
#423=DIRECTION('',(0.E0,-1.E0,0.E0));
#424=DIRECTION('',(0.E0,0.E0,1.E0));
#425=AXIS2_PLACEMENT_3D('',#422,#423,#424);
#427=CARTESIAN_POINT('',(0.E0,0.E0,4.4E0));
#428=DIRECTION('',(0.E0,0.E0,1.E0));
#429=DIRECTION('',(-1.E0,0.E0,0.E0));
#430=AXIS2_PLACEMENT_3D('',#427,#428,#429);
#432=CARTESIAN_POINT('',(0.E0,0.E0,1.E0));
#433=DIRECTION('',(0.E0,0.E0,-1.E0));
#434=DIRECTION('',(1.E0,0.E0,0.E0));
#435=AXIS2_PLACEMENT_3D('',#432,#433,#434);
#437=DIRECTION('',(0.E0,8.337346336194E-13,1.E0));
#438=VECTOR('',#437,3.4E0);
#439=CARTESIAN_POINT('',(-8.25E0,-2.135641995131E-12,1.E0));
#440=LINE('',#439,#438);
#441=CARTESIAN_POINT('',(-3.75E0,9.549999999999E0,3.E0));
#442=CARTESIAN_POINT('',(-3.75E0,9.549999999999E0,1.4E0));
#443=VERTEX_POINT('',#441);
#444=VERTEX_POINT('',#442);
#445=CARTESIAN_POINT('',(3.75E0,9.549999999999E0,4.E0));
#446=CARTESIAN_POINT('',(3.75E0,9.549999999999E0,2.4E0));
#447=VERTEX_POINT('',#445);
#448=VERTEX_POINT('',#446);
#449=CARTESIAN_POINT('',(-3.75E0,3.175E1,1.8E0));
#450=CARTESIAN_POINT('',(-3.75E0,3.175E1,2.6E0));
#451=VERTEX_POINT('',#449);
#452=VERTEX_POINT('',#450);
#453=CARTESIAN_POINT('',(3.75E0,3.175E1,2.8E0));
#454=CARTESIAN_POINT('',(3.75E0,3.175E1,3.6E0));
#455=VERTEX_POINT('',#453);
#456=VERTEX_POINT('',#454);
#457=CARTESIAN_POINT('',(-3.75E0,1.175E1,1.8E0));
#458=CARTESIAN_POINT('',(-3.75E0,1.175E1,2.6E0));
#459=VERTEX_POINT('',#457);
#460=VERTEX_POINT('',#458);
#461=CARTESIAN_POINT('',(3.75E0,1.175E1,2.8E0));
#462=CARTESIAN_POINT('',(3.75E0,1.175E1,3.6E0));
#463=VERTEX_POINT('',#461);
#464=VERTEX_POINT('',#462);
#465=CARTESIAN_POINT('',(3.749999994608E0,1.175E1,3.731701996557E0));
#466=CARTESIAN_POINT('',(3.750000005392E0,1.175E1,2.668298003443E0));
#467=VERTEX_POINT('',#465);
#468=VERTEX_POINT('',#466);
#469=CARTESIAN_POINT('',(3.749999999507E0,1.155681422326E1,3.931585878753E0));
#470=CARTESIAN_POINT('',(3.750000000493E0,1.155681422326E1,2.468414121247E0));
#471=VERTEX_POINT('',#469);
#472=VERTEX_POINT('',#470);
#473=CARTESIAN_POINT('',(-3.750000005392E0,1.175E1,2.731701996557E0));
#474=CARTESIAN_POINT('',(-3.749999994608E0,1.175E1,1.668298003443E0));
#475=VERTEX_POINT('',#473);
#476=VERTEX_POINT('',#474);
#477=CARTESIAN_POINT('',(-3.750000000493E0,1.155681422326E1,2.931585878753E0));
#478=CARTESIAN_POINT('',(-3.749999999507E0,1.155681422326E1,1.468414121247E0));
#479=VERTEX_POINT('',#477);
#480=VERTEX_POINT('',#478);
#481=VERTEX_POINT('',#21);
#482=VERTEX_POINT('',#42);
#483=VERTEX_POINT('',#169);
#484=VERTEX_POINT('',#190);
#485=VERTEX_POINT('',#67);
#486=VERTEX_POINT('',#88);
#487=VERTEX_POINT('',#375);
#488=VERTEX_POINT('',#396);
#489=CARTESIAN_POINT('',(-7.25E0,0.E0,5.4E0));
#490=CARTESIAN_POINT('',(7.25E0,0.E0,5.4E0));
#491=VERTEX_POINT('',#489);
#492=VERTEX_POINT('',#490);
#493=CARTESIAN_POINT('',(-8.25E0,0.E0,4.4E0));
#494=CARTESIAN_POINT('',(8.25E0,0.E0,4.4E0));
#495=VERTEX_POINT('',#493);
#496=VERTEX_POINT('',#494);
#497=CARTESIAN_POINT('',(7.25E0,0.E0,0.E0));
#498=CARTESIAN_POINT('',(-7.25E0,0.E0,0.E0));
#499=VERTEX_POINT('',#497);
#500=VERTEX_POINT('',#498);
#501=CARTESIAN_POINT('',(8.25E0,0.E0,1.E0));
#502=CARTESIAN_POINT('',(-8.25E0,0.E0,1.E0));
#503=VERTEX_POINT('',#501);
#504=VERTEX_POINT('',#502);
#505=CARTESIAN_POINT('',(0.E0,0.E0,0.E0));
#506=DIRECTION('',(0.E0,0.E0,1.E0));
#507=DIRECTION('',(1.E0,0.E0,0.E0));
#508=AXIS2_PLACEMENT_3D('',#505,#506,#507);
#509=PLANE('',#508);
#511=ORIENTED_EDGE('',*,*,#510,.F.);
#513=ORIENTED_EDGE('',*,*,#512,.F.);
#514=EDGE_LOOP('',(#511,#513));
#515=FACE_OUTER_BOUND('',#514,.F.);
#517=CARTESIAN_POINT('',(0.E0,0.E0,1.E0));
#518=DIRECTION('',(0.E0,0.E0,1.E0));
#519=DIRECTION('',(9.999884287816E-1,4.810644755286E-3,0.E0));
#520=AXIS2_PLACEMENT_3D('',#517,#518,#519);
#521=TOROIDAL_SURFACE('',#520,7.25E0,1.E0);
#522=ORIENTED_EDGE('',*,*,#510,.T.);
#524=ORIENTED_EDGE('',*,*,#523,.T.);
#526=ORIENTED_EDGE('',*,*,#525,.F.);
#528=ORIENTED_EDGE('',*,*,#527,.F.);
#529=EDGE_LOOP('',(#522,#524,#526,#528));
#530=FACE_OUTER_BOUND('',#529,.F.);
#532=CARTESIAN_POINT('',(0.E0,0.E0,1.E0));
#533=DIRECTION('',(0.E0,0.E0,1.E0));
#534=DIRECTION('',(-9.999884287816E-1,-4.810644755286E-3,0.E0));
#535=AXIS2_PLACEMENT_3D('',#532,#533,#534);
#536=TOROIDAL_SURFACE('',#535,7.25E0,1.E0);
#537=ORIENTED_EDGE('',*,*,#512,.T.);
#538=ORIENTED_EDGE('',*,*,#527,.T.);
#540=ORIENTED_EDGE('',*,*,#539,.F.);
#541=ORIENTED_EDGE('',*,*,#523,.F.);
#542=EDGE_LOOP('',(#537,#538,#540,#541));
#543=FACE_OUTER_BOUND('',#542,.F.);
#545=CARTESIAN_POINT('',(0.E0,0.E0,0.E0));
#546=DIRECTION('',(0.E0,0.E0,1.E0));
#547=DIRECTION('',(1.E0,0.E0,0.E0));
#548=AXIS2_PLACEMENT_3D('',#545,#546,#547);
#549=CYLINDRICAL_SURFACE('',#548,8.25E0);
#551=ORIENTED_EDGE('',*,*,#550,.T.);
#553=ORIENTED_EDGE('',*,*,#552,.F.);
#554=ORIENTED_EDGE('',*,*,#539,.T.);
#556=ORIENTED_EDGE('',*,*,#555,.T.);
#557=EDGE_LOOP('',(#551,#553,#554,#556));
#558=FACE_OUTER_BOUND('',#557,.F.);
#560=ORIENTED_EDGE('',*,*,#559,.T.);
#562=ORIENTED_EDGE('',*,*,#561,.T.);
#563=EDGE_LOOP('',(#560,#562));
#564=FACE_BOUND('',#563,.F.);
#566=ORIENTED_EDGE('',*,*,#565,.T.);
#568=ORIENTED_EDGE('',*,*,#567,.T.);
#569=EDGE_LOOP('',(#566,#568));
#570=FACE_BOUND('',#569,.F.);
#572=CARTESIAN_POINT('',(3.701065112428E0,7.395887083332E0,2.112771903182E0));
#573=CARTESIAN_POINT('',(3.642486838341E0,7.422775230024E0,2.115490210935E0));
#574=CARTESIAN_POINT('',(3.524028339654E0,7.475975487024E0,2.130652982069E0));
#575=CARTESIAN_POINT('',(3.351706598282E0,7.549892041883E0,2.182492963266E0));
#576=CARTESIAN_POINT('',(3.189641795907E0,7.616201150077E0,2.262597159154E0));
#577=CARTESIAN_POINT('',(3.044832312089E0,7.672788185938E0,2.366881528792E0));
#578=CARTESIAN_POINT('',(2.920696213022E0,7.719269874587E0,2.491253947342E0));
#579=CARTESIAN_POINT('',(2.819124856876E0,7.755893435170E0,2.632059600799E0));
#580=CARTESIAN_POINT('',(2.741431378482E0,7.783039543211E0,2.786223144056E0));
#581=CARTESIAN_POINT('',(2.689002847186E0,7.800927864022E0,2.950450761168E0));
#582=CARTESIAN_POINT('',(2.663032017978E0,7.809659758719E0,3.120818253236E0));
#583=CARTESIAN_POINT('',(2.664131848112E0,7.809291715224E0,3.293103698123E0));
#584=CARTESIAN_POINT('',(2.692276031489E0,7.799821269074E0,3.463128982105E0));
#585=CARTESIAN_POINT('',(2.746804176211E0,7.781186746196E0,3.626693532038E0));
#586=CARTESIAN_POINT('',(2.826490331763E0,7.753280749984E0,3.779899068784E0));
#587=CARTESIAN_POINT('',(2.929926951689E0,7.715878242962E0,3.919467146541E0));
#588=CARTESIAN_POINT('',(3.055779275379E0,7.668598726622E0,4.042322867387E0));
#589=CARTESIAN_POINT('',(3.202128059967E0,7.611203920617E0,4.144815154441E0));
#590=CARTESIAN_POINT('',(3.365525877799E0,7.544095466679E0,4.222868177960E0));
#591=CARTESIAN_POINT('',(3.533854587496E0,7.471611543056E0,4.270993341354E0));
#592=CARTESIAN_POINT('',(3.647495225115E0,7.420475393481E0,4.284740383821E0));
#593=CARTESIAN_POINT('',(3.701052014974E0,7.395892895708E0,4.287226809337E0));
#594=CARTESIAN_POINT('',(3.662720547126E0,7.328536015512E0,2.271350899046E0));
#595=CARTESIAN_POINT('',(3.613287174525E0,7.355201780355E0,2.276185617055E0));
#596=CARTESIAN_POINT('',(3.514098610720E0,7.407833100080E0,2.294071821780E0));
#597=CARTESIAN_POINT('',(3.371982834112E0,7.480636601890E0,2.344560061842E0));
#598=CARTESIAN_POINT('',(3.240219872724E0,7.545690910878E0,2.417360560715E0));
#599=CARTESIAN_POINT('',(3.123948455950E0,7.601028669153E0,2.508561205994E0));
#600=CARTESIAN_POINT('',(3.025290106192E0,7.646374756780E0,2.614644416930E0));
#601=CARTESIAN_POINT('',(2.945192069048E0,7.682045519432E0,2.732712951811E0));
#602=CARTESIAN_POINT('',(2.884260997762E0,7.708459781627E0,2.860493685207E0));
#603=CARTESIAN_POINT('',(2.843289296747E0,7.725857305830E0,2.995608161867E0));
#604=CARTESIAN_POINT('',(2.823032432883E0,7.734347946275E0,3.135202196466E0));
#605=CARTESIAN_POINT('',(2.823889796760E0,7.733990088117E0,3.276193467183E0));
#606=CARTESIAN_POINT('',(2.845844081475E0,7.724781218861E0,3.415537799256E0));
#607=CARTESIAN_POINT('',(2.888466014755E0,7.706657486525E0,3.550169816736E0));
#608=CARTESIAN_POINT('',(2.950982905958E0,7.679502243640E0,3.677254449645E0));
#609=CARTESIAN_POINT('',(3.032596301297E0,7.643068961246E0,3.794420765750E0));
#610=CARTESIAN_POINT('',(3.132692322643E0,7.596936939352E0,3.899386496005E0));
#611=CARTESIAN_POINT('',(3.250308547912E0,7.540796353107E0,3.989242612654E0));
#612=CARTESIAN_POINT('',(3.383300579102E0,7.474938570871E0,4.060466021021E0));
#613=CARTESIAN_POINT('',(3.522294370633E0,7.403521167767E0,4.107737544853E0));
#614=CARTESIAN_POINT('',(3.617513772460E0,7.352920946811E0,4.124226202316E0));
#615=CARTESIAN_POINT('',(3.662709520188E0,7.328541802191E0,4.128647438396E0));
#616=CARTESIAN_POINT('',(3.704300554109E0,7.420211065457E0,2.416335582369E0));
#617=CARTESIAN_POINT('',(3.662215617593E0,7.447179525829E0,2.418871042529E0));
#618=CARTESIAN_POINT('',(3.577288486222E0,7.500585255743E0,2.430931680067E0));
#619=CARTESIAN_POINT('',(3.454243293303E0,7.574903792089E0,2.469721112892E0));
#620=CARTESIAN_POINT('',(3.338956187937E0,7.641666073700E0,2.528463707748E0));
#621=CARTESIAN_POINT('',(3.236279208355E0,7.698704288831E0,2.604118570309E0));
#622=CARTESIAN_POINT('',(3.148493110539E0,7.745596102217E0,2.693731016322E0));
#623=CARTESIAN_POINT('',(3.076807960740E0,7.782563767810E0,2.794718157786E0));
#624=CARTESIAN_POINT('',(3.022052192351E0,7.809974183543E0,2.904944396631E0));
#625=CARTESIAN_POINT('',(2.985135638578E0,7.828039756598E0,3.022135296916E0));
#626=CARTESIAN_POINT('',(2.966857656226E0,7.836858780784E0,3.143576425127E0));
#627=CARTESIAN_POINT('',(2.967631592761E0,7.836487058832E0,3.266344749588E0));
#628=CARTESIAN_POINT('',(2.987439670532E0,7.826922143628E0,3.387548982335E0));
#629=CARTESIAN_POINT('',(3.025836789718E0,7.808103147653E0,3.504281184276E0));
#630=CARTESIAN_POINT('',(3.082002218231E0,7.779926015273E0,3.613844911357E0));
#631=CARTESIAN_POINT('',(3.155013986217E0,7.742173470704E0,3.713975521181E0));
#632=CARTESIAN_POINT('',(3.244030651112E0,7.694479534293E0,3.802535554086E0));
#633=CARTESIAN_POINT('',(3.347824028750E0,7.636631764139E0,3.876941381751E0));
#634=CARTESIAN_POINT('',(3.464092704817E0,7.569071627443E0,3.934245610065E0));
#635=CARTESIAN_POINT('',(3.584325931450E0,7.496202527654E0,3.970347409588E0));
#636=CARTESIAN_POINT('',(3.665813860666E0,7.444872826312E0,3.981344428449E0));
#637=CARTESIAN_POINT('',(3.704291150302E0,7.420216887114E0,3.983663360579E0));
#638=CARTESIAN_POINT('',(3.783279809342E0,7.577152960670E0,2.399445058408E0));
#639=CARTESIAN_POINT('',(3.739231341505E0,7.604639616672E0,2.397617123848E0));
#640=CARTESIAN_POINT('',(3.648971475533E0,7.659371087916E0,2.401261204259E0));
#641=CARTESIAN_POINT('',(3.514357333837E0,7.736283267697E0,2.429969542128E0));
#642=CARTESIAN_POINT('',(3.384869666666E0,7.805969490561E0,2.482277534942E0));
#643=CARTESIAN_POINT('',(3.266939989141E0,7.865918780426E0,2.555823770867E0));
#644=CARTESIAN_POINT('',(3.164301214463E0,7.915456778681E0,2.647629120666E0));
#645=CARTESIAN_POINT('',(3.079364366905E0,7.954644660195E0,2.754660330960E0));
#646=CARTESIAN_POINT('',(3.013881099448E0,7.983760427870E0,2.874113984689E0));
#647=CARTESIAN_POINT('',(2.969470669290E0,8.002969658364E0,3.002901939659E0));
#648=CARTESIAN_POINT('',(2.947412613445E0,8.012350854773E0,3.137376323356E0));
#649=CARTESIAN_POINT('',(2.948347485607E0,8.011955398880E0,3.273630172483E0));
#650=CARTESIAN_POINT('',(2.972248048885E0,8.001780955504E0,3.407787671051E0));
#651=CARTESIAN_POINT('',(3.018422616120E0,7.981771712093E0,3.535959540317E0));
#652=CARTESIAN_POINT('',(3.085550246123E0,7.951845169439E0,3.654521601346E0));
#653=CARTESIAN_POINT('',(3.171979168429E0,7.911834131354E0,3.760405571516E0));
#654=CARTESIAN_POINT('',(3.275924667214E0,7.861466295941E0,3.850822879454E0));
#655=CARTESIAN_POINT('',(3.394942017515E0,7.800695934763E0,3.922765849224E0));
#656=CARTESIAN_POINT('',(3.525273328809E0,7.730221474753E0,3.973296963722E0));
#657=CARTESIAN_POINT('',(3.656507428165E0,7.654867161930E0,3.999336620997E0));
#658=CARTESIAN_POINT('',(3.742997304137E0,7.602288636244E0,4.002225238082E0));
#659=CARTESIAN_POINT('',(3.783269921246E0,7.577158842208E0,4.000554851356E0));
#660=(BOUNDED_SURFACE()B_SPLINE_SURFACE(3,3,((#572,#573,#574,#575,#576,#577,
#578,#579,#580,#581,#582,#583,#584,#585,#586,#587,#588,#589,#590,#591,#592,
#593),(#594,#595,#596,#597,#598,#599,#600,#601,#602,#603,#604,#605,#606,#607,
#608,#609,#610,#611,#612,#613,#614,#615),(#616,#617,#618,#619,#620,#621,#622,
#623,#624,#625,#626,#627,#628,#629,#630,#631,#632,#633,#634,#635,#636,#637),(
#638,#639,#640,#641,#642,#643,#644,#645,#646,#647,#648,#649,#650,#651,#652,#653,
#654,#655,#656,#657,#658,#659)),.UNSPECIFIED.,.F.,.F.,.F.)B_SPLINE_SURFACE_WITH_KNOTS((4,4),(4,1,1,1,1,1,1,1,1,1,1,1,1,1,1,1,1,1,1,4),(0.E0,1.E0),(
1.836327591905E-3,5.657933396698E-2,1.127825952973E-1,1.680276812248E-1,
2.218378025673E-1,2.740088672033E-1,3.249185594434E-1,3.751822853432E-1,
4.251022602891E-1,4.747714684243E-1,5.243601320572E-1,5.740407430334E-1,
6.239871754218E-1,6.742999633138E-1,7.252822309805E-1,7.775480858180E-1,
8.314751040389E-1,8.868614573739E-1,9.432311254043E-1,9.932708891304E-1),
.UNSPECIFIED.)GEOMETRIC_REPRESENTATION_ITEM()RATIONAL_B_SPLINE_SURFACE(((
1.343514889568E0,1.343514889568E0,1.343514889568E0,1.343514889568E0,
1.343514889568E0,1.343514889568E0,1.343514889568E0,1.343514889568E0,
1.343514889568E0,1.343514889568E0,1.343514889568E0,1.343514889568E0,
1.343514889568E0,1.343514889568E0,1.343514889568E0,1.343514889568E0,
1.343514889568E0,1.343514889568E0,1.343514889568E0,1.343514889568E0,
1.343514889568E0,1.343514889568E0),(8.854950368105E-1,8.854950368105E-1,
8.854950368105E-1,8.854950368105E-1,8.854950368105E-1,8.854950368105E-1,
8.854950368105E-1,8.854950368105E-1,8.854950368105E-1,8.854950368105E-1,
8.854950368105E-1,8.854950368105E-1,8.854950368105E-1,8.854950368105E-1,
8.854950368105E-1,8.854950368105E-1,8.854950368105E-1,8.854950368105E-1,
8.854950368105E-1,8.854950368105E-1,8.854950368105E-1,8.854950368105E-1),(
8.854950368105E-1,8.854950368105E-1,8.854950368105E-1,8.854950368105E-1,
8.854950368105E-1,8.854950368105E-1,8.854950368105E-1,8.854950368105E-1,
8.854950368105E-1,8.854950368105E-1,8.854950368105E-1,8.854950368105E-1,
8.854950368105E-1,8.854950368105E-1,8.854950368105E-1,8.854950368105E-1,
8.854950368105E-1,8.854950368105E-1,8.854950368105E-1,8.854950368105E-1,
8.854950368105E-1,8.854950368105E-1),(1.343514889568E0,1.343514889568E0,
1.343514889568E0,1.343514889568E0,1.343514889568E0,1.343514889568E0,
1.343514889568E0,1.343514889568E0,1.343514889568E0,1.343514889568E0,
1.343514889568E0,1.343514889568E0,1.343514889568E0,1.343514889568E0,
1.343514889568E0,1.343514889568E0,1.343514889568E0,1.343514889568E0,
1.343514889568E0,1.343514889568E0,1.343514889568E0,1.343514889568E0)))REPRESENTATION_ITEM('')SURFACE());
#661=ORIENTED_EDGE('',*,*,#565,.F.);
#663=ORIENTED_EDGE('',*,*,#662,.T.);
#665=ORIENTED_EDGE('',*,*,#664,.T.);
#667=ORIENTED_EDGE('',*,*,#666,.F.);
#668=EDGE_LOOP('',(#661,#663,#665,#667));
#669=FACE_OUTER_BOUND('',#668,.F.);
#671=CARTESIAN_POINT('',(3.631936993512E0,7.408554482373E0,4.218683420168E0));
#672=CARTESIAN_POINT('',(3.690334998014E0,7.380472293474E0,4.225578968522E0));
#673=CARTESIAN_POINT('',(3.810949198461E0,7.321210545648E0,4.229346698852E0));
#674=CARTESIAN_POINT('',(3.992206437144E0,7.228344346770E0,4.202728291811E0));
#675=CARTESIAN_POINT('',(4.169616348315E0,7.133873402326E0,4.142307979788E0));
#676=CARTESIAN_POINT('',(4.333776128124E0,7.043477489418E0,4.049891157570E0));
#677=CARTESIAN_POINT('',(4.477735360092E0,6.961990292094E0,3.929284978173E0));
#678=CARTESIAN_POINT('',(4.596144760060E0,6.893518088772E0,3.786002034437E0));
#679=CARTESIAN_POINT('',(4.685700527006E0,6.840918742403E0,3.626184167156E0));
#680=CARTESIAN_POINT('',(4.744863576229E0,6.805807279314E0,3.456000882622E0));
#681=CARTESIAN_POINT('',(4.773562414217E0,6.788675658016E0,3.280792527847E0));
#682=CARTESIAN_POINT('',(4.772298890768E0,6.789431252854E0,3.104281829854E0));
#683=CARTESIAN_POINT('',(4.741045827699E0,6.808081415149E0,2.929355262157E0));
#684=CARTESIAN_POINT('',(4.679307974892E0,6.844695525678E0,2.759852883314E0));
#685=CARTESIAN_POINT('',(4.587250499112E0,6.898704630622E0,2.601205230365E0));
#686=CARTESIAN_POINT('',(4.466542315655E0,6.968396870324E0,2.459605973269E0));
#687=CARTESIAN_POINT('',(4.320637207194E0,7.050813969732E0,2.341167619391E0));
#688=CARTESIAN_POINT('',(4.155068572684E0,7.141748691524E0,2.251325511084E0));
#689=CARTESIAN_POINT('',(3.976924147489E0,7.236319357418E0,2.193719351754E0));
#690=CARTESIAN_POINT('',(3.800594101614E0,7.326351320412E0,2.170555911352E0));
#691=CARTESIAN_POINT('',(3.685287513050E0,7.382898456390E0,2.175019503709E0));
#692=CARTESIAN_POINT('',(3.631955311603E0,7.408545433455E0,2.181315072840E0));
#693=CARTESIAN_POINT('',(3.629431449546E0,7.395019329374E0,4.080848016954E0));
#694=CARTESIAN_POINT('',(3.679609760459E0,7.366993146140E0,4.087887761072E0));
#695=CARTESIAN_POINT('',(3.783608148726E0,7.307821384852E0,4.093454358585E0));
#696=CARTESIAN_POINT('',(3.941057535365E0,7.214994365377E0,4.073880214052E0));
#697=CARTESIAN_POINT('',(4.096361343358E0,7.120446537047E0,4.024650477193E0));
#698=CARTESIAN_POINT('',(4.241197300635E0,7.029852956582E0,3.946828360843E0));
#699=CARTESIAN_POINT('',(4.369198804393E0,6.948064981743E0,3.843326252358E0));
#700=CARTESIAN_POINT('',(4.475258963651E0,6.879231738768E0,3.718702455450E0));
#701=CARTESIAN_POINT('',(4.555998143654E0,6.826274234818E0,3.578284803544E0));
#702=CARTESIAN_POINT('',(4.609610229920E0,6.790878043279E0,3.427667041993E0));
#703=CARTESIAN_POINT('',(4.635700308717E0,6.773592763935E0,3.271919878077E0));
#704=CARTESIAN_POINT('',(4.634550450100E0,6.774355350002E0,3.114797271511E0));
#705=CARTESIAN_POINT('',(4.606143742461E0,6.793171825265E0,2.959340426016E0));
#706=CARTESIAN_POINT('',(4.550218852507E0,6.830079354463E0,2.809401074750E0));
#707=CARTESIAN_POINT('',(4.467265936091E0,6.884449555892E0,2.670114896201E0));
#708=CARTESIAN_POINT('',(4.359210833946E0,6.954499955557E0,2.547077093582E0));
#709=CARTESIAN_POINT('',(4.229562416547E0,7.037210485696E0,2.445570301917E0));
#710=CARTESIAN_POINT('',(4.083579922756E0,7.128333041850E0,2.370069049097E0));
#711=CARTESIAN_POINT('',(3.927735766801E0,7.222970330048E0,2.323329420310E0));
#712=CARTESIAN_POINT('',(3.774664659146E0,7.312955478010E0,2.306663117493E0));
#713=CARTESIAN_POINT('',(3.675272785496E0,7.369414471171E0,2.312722834974E0));
#714=CARTESIAN_POINT('',(3.629447196964E0,7.395010300548E0,2.319150343196E0));
#715=CARTESIAN_POINT('',(3.675451898005E0,7.482973206305E0,3.984233772793E0));
#716=CARTESIAN_POINT('',(3.720690848887E0,7.454583088106E0,3.988589698643E0));
#717=CARTESIAN_POINT('',(3.813807333121E0,7.394826577988E0,3.989448659104E0));
#718=CARTESIAN_POINT('',(3.952713688962E0,7.301744963655E0,3.965912075258E0));
#719=CARTESIAN_POINT('',(4.087613626762E0,7.207696740747E0,3.916730989338E0));
#720=CARTESIAN_POINT('',(4.211437953966E0,7.118387639889E0,3.843735592461E0));
#721=CARTESIAN_POINT('',(4.319151268347E0,7.038554171845E0,3.750192541036E0));
#722=CARTESIAN_POINT('',(4.407061142759E0,6.972067029958E0,3.640529996294E0));
#723=CARTESIAN_POINT('',(4.473086528455E0,6.921436898874E0,3.519461197045E0));
#724=CARTESIAN_POINT('',(4.516462864902E0,6.887890924402E0,3.391506681274E0));
#725=CARTESIAN_POINT('',(4.537429678050E0,6.871604142884E0,3.260377160233E0));
#726=CARTESIAN_POINT('',(4.536507625603E0,6.872321298681E0,3.128465507837E0));
#727=CARTESIAN_POINT('',(4.513669957422E0,6.890057042138E0,2.997511658467E0));
#728=CARTESIAN_POINT('',(4.468387805014E0,6.925057883654E0,2.870002070109E0));
#729=CARTESIAN_POINT('',(4.400481160793E0,6.977081614689E0,2.749728396794E0));
#730=CARTESIAN_POINT('',(4.310807935929E0,7.044804626008E0,2.641246967031E0));
#731=CARTESIAN_POINT('',(4.201565042573E0,7.125608390085E0,2.549265977103E0));
#732=CARTESIAN_POINT('',(4.076592710647E0,7.215510364516E0,2.478169131012E0));
#733=CARTESIAN_POINT('',(3.941043489289E0,7.309714728910E0,2.431104352442E0));
#734=CARTESIAN_POINT('',(3.805826185195E0,7.400004089437E0,2.410298006061E0));
#735=CARTESIAN_POINT('',(3.716780679389E0,7.457035850597E0,2.411788702812E0));
#736=CARTESIAN_POINT('',(3.675466081640E0,7.482964046914E0,2.415765364861E0));
#737=CARTESIAN_POINT('',(3.735571936523E0,7.606620675307E0,4.001114664907E0));
#738=CARTESIAN_POINT('',(3.782846835701E0,7.577718929436E0,4.001966435713E0));
#739=CARTESIAN_POINT('',(3.878955722921E0,7.517140366723E0,3.995132885221E0));
#740=CARTESIAN_POINT('',(4.018455308119E0,7.423700837413E0,3.959591332359E0));
#741=CARTESIAN_POINT('',(4.149917081113E0,7.330354970650E0,3.899280578967E0));
#742=CARTESIAN_POINT('',(4.266760088528E0,7.242851619099E0,3.817733203141E0));
#743=CARTESIAN_POINT('',(4.365031687709E0,7.165765839126E0,3.719554147890E0));
#744=CARTESIAN_POINT('',(4.442567871563E0,7.102576897064E0,3.609962933973E0));
#745=CARTESIAN_POINT('',(4.498989167082E0,7.055218637266E0,3.493717376601E0));
#746=CARTESIAN_POINT('',(4.535101998746E0,7.024273738101E0,3.374570191530E0));
#747=CARTESIAN_POINT('',(4.552263588371E0,7.009390666495E0,3.254799106532E0));
#748=CARTESIAN_POINT('',(4.551513069038E0,7.010043955434E0,3.135061775294E0));
#749=CARTESIAN_POINT('',(4.532801106854E0,7.026260382664E0,3.015314300633E0));
#750=CARTESIAN_POINT('',(4.495029980490E0,7.058580761255E0,2.896322233586E0));
#751=CARTESIAN_POINT('',(4.436855693893E0,7.107305773286E0,2.780489458858E0));
#752=CARTESIAN_POINT('',(4.357542257083E0,7.171756891557E0,2.671670170709E0));
#753=CARTESIAN_POINT('',(4.257589011153E0,7.249880082524E0,2.574683279239E0));
#754=CARTESIAN_POINT('',(4.139333842733E0,7.338066136680E0,2.494759597536E0));
#755=CARTESIAN_POINT('',(4.006892240104E0,7.431661887395E0,2.436421222847E0));
#756=CARTESIAN_POINT('',(3.870767754508E0,7.522378916547E0,2.403934683841E0));
#757=CARTESIAN_POINT('',(3.778760487830E0,7.580215887390E0,2.398109149976E0));
#758=CARTESIAN_POINT('',(3.735586733080E0,7.606611332365E0,2.398885578986E0));
#759=(BOUNDED_SURFACE()B_SPLINE_SURFACE(3,3,((#671,#672,#673,#674,#675,#676,
#677,#678,#679,#680,#681,#682,#683,#684,#685,#686,#687,#688,#689,#690,#691,
#692),(#693,#694,#695,#696,#697,#698,#699,#700,#701,#702,#703,#704,#705,#706,
#707,#708,#709,#710,#711,#712,#713,#714),(#715,#716,#717,#718,#719,#720,#721,
#722,#723,#724,#725,#726,#727,#728,#729,#730,#731,#732,#733,#734,#735,#736),(
#737,#738,#739,#740,#741,#742,#743,#744,#745,#746,#747,#748,#749,#750,#751,#752,
#753,#754,#755,#756,#757,#758)),.UNSPECIFIED.,.F.,.F.,.F.)B_SPLINE_SURFACE_WITH_KNOTS((4,4),(4,1,1,1,1,1,1,1,1,1,1,1,1,1,1,1,1,1,1,4),(0.E0,1.E0),(
1.588999707532E-3,5.809296251171E-2,1.170312229717E-1,1.758290000858E-1,
2.333936120069E-1,2.884054347749E-1,3.402119197685E-1,3.887864763495E-1,
4.344580743890E-1,4.780423491309E-1,5.209025543454E-1,5.646133613325E-1,
6.104933624438E-1,6.593249687896E-1,7.114113952556E-1,7.666707165392E-1,
8.244069960524E-1,8.832518519377E-1,9.421135534498E-1,9.937060619429E-1),
.UNSPECIFIED.)GEOMETRIC_REPRESENTATION_ITEM()RATIONAL_B_SPLINE_SURFACE(((
1.230037835772E0,1.230037835772E0,1.230037835772E0,1.230037835772E0,
1.230037835772E0,1.230037835772E0,1.230037835772E0,1.230037835772E0,
1.230037835772E0,1.230037835772E0,1.230037835772E0,1.230037835772E0,
1.230037835772E0,1.230037835772E0,1.230037835772E0,1.230037835772E0,
1.230037835772E0,1.230037835772E0,1.230037835772E0,1.230037835772E0,
1.230037835772E0,1.230037835772E0),(9.233207214093E-1,9.233207214093E-1,
9.233207214093E-1,9.233207214093E-1,9.233207214093E-1,9.233207214093E-1,
9.233207214093E-1,9.233207214093E-1,9.233207214093E-1,9.233207214093E-1,
9.233207214093E-1,9.233207214093E-1,9.233207214093E-1,9.233207214093E-1,
9.233207214093E-1,9.233207214093E-1,9.233207214093E-1,9.233207214093E-1,
9.233207214093E-1,9.233207214093E-1,9.233207214093E-1,9.233207214093E-1),(
9.233207214093E-1,9.233207214093E-1,9.233207214093E-1,9.233207214093E-1,
9.233207214093E-1,9.233207214093E-1,9.233207214093E-1,9.233207214093E-1,
9.233207214093E-1,9.233207214093E-1,9.233207214093E-1,9.233207214093E-1,
9.233207214093E-1,9.233207214093E-1,9.233207214093E-1,9.233207214093E-1,
9.233207214093E-1,9.233207214093E-1,9.233207214093E-1,9.233207214093E-1,
9.233207214093E-1,9.233207214093E-1),(1.230037835772E0,1.230037835772E0,
1.230037835772E0,1.230037835772E0,1.230037835772E0,1.230037835772E0,
1.230037835772E0,1.230037835772E0,1.230037835772E0,1.230037835772E0,
1.230037835772E0,1.230037835772E0,1.230037835772E0,1.230037835772E0,
1.230037835772E0,1.230037835772E0,1.230037835772E0,1.230037835772E0,
1.230037835772E0,1.230037835772E0,1.230037835772E0,1.230037835772E0)))REPRESENTATION_ITEM('')SURFACE());
#760=ORIENTED_EDGE('',*,*,#567,.F.);
#761=ORIENTED_EDGE('',*,*,#666,.T.);
#763=ORIENTED_EDGE('',*,*,#762,.T.);
#764=ORIENTED_EDGE('',*,*,#662,.F.);
#765=EDGE_LOOP('',(#760,#761,#763,#764));
#766=FACE_OUTER_BOUND('',#765,.F.);
#768=CARTESIAN_POINT('',(3.75E0,0.E0,3.2E0));
#769=DIRECTION('',(0.E0,1.E0,0.E0));
#770=DIRECTION('',(0.E0,0.E0,-1.E0));
#771=AXIS2_PLACEMENT_3D('',#768,#769,#770);
#772=CYLINDRICAL_SURFACE('',#771,8.E-1);
#773=ORIENTED_EDGE('',*,*,#762,.F.);
#775=ORIENTED_EDGE('',*,*,#774,.T.);
#777=ORIENTED_EDGE('',*,*,#776,.T.);
#779=ORIENTED_EDGE('',*,*,#778,.F.);
#780=EDGE_LOOP('',(#773,#775,#777,#779));
#781=FACE_OUTER_BOUND('',#780,.F.);
#783=CARTESIAN_POINT('',(3.75E0,0.E0,3.2E0));
#784=DIRECTION('',(0.E0,1.E0,0.E0));
#785=DIRECTION('',(0.E0,0.E0,-1.E0));
#786=AXIS2_PLACEMENT_3D('',#783,#784,#785);
#787=CYLINDRICAL_SURFACE('',#786,8.E-1);
#788=ORIENTED_EDGE('',*,*,#664,.F.);
#789=ORIENTED_EDGE('',*,*,#778,.T.);
#791=ORIENTED_EDGE('',*,*,#790,.T.);
#792=ORIENTED_EDGE('',*,*,#774,.F.);
#793=EDGE_LOOP('',(#788,#789,#791,#792));
#794=FACE_OUTER_BOUND('',#793,.F.);
#796=CARTESIAN_POINT('',(3.75E0,1.055340711163E1,3.2E0));
#797=DIRECTION('',(0.E0,-1.E0,0.E0));
#798=DIRECTION('',(0.E0,0.E0,-1.E0));
#799=AXIS2_PLACEMENT_3D('',#796,#797,#798);
#800=CONICAL_SURFACE('',#799,7.657929393763E-1,1.952509049400E0);
#802=ORIENTED_EDGE('',*,*,#801,.T.);
#804=ORIENTED_EDGE('',*,*,#803,.T.);
#805=ORIENTED_EDGE('',*,*,#790,.F.);
#807=ORIENTED_EDGE('',*,*,#806,.F.);
#808=EDGE_LOOP('',(#802,#804,#805,#807));
#809=FACE_OUTER_BOUND('',#808,.F.);
#811=CARTESIAN_POINT('',(3.75E0,1.155E1,3.2E0));
#812=DIRECTION('',(0.E0,-1.E0,0.E0));
#813=DIRECTION('',(5.202631100212E-2,0.E0,-9.986457144371E-1));
#814=AXIS2_PLACEMENT_3D('',#811,#812,#813);
#815=TOROIDAL_SURFACE('',#814,5.317019965574E-1,2.E-1);
#817=ORIENTED_EDGE('',*,*,#816,.T.);
#819=ORIENTED_EDGE('',*,*,#818,.T.);
#820=ORIENTED_EDGE('',*,*,#801,.F.);
#822=ORIENTED_EDGE('',*,*,#821,.F.);
#823=EDGE_LOOP('',(#817,#819,#820,#822));
#824=FACE_OUTER_BOUND('',#823,.F.);
#826=CARTESIAN_POINT('',(0.E0,1.175E1,0.E0));
#827=DIRECTION('',(0.E0,1.E0,0.E0));
#828=DIRECTION('',(0.E0,0.E0,-1.E0));
#829=AXIS2_PLACEMENT_3D('',#826,#827,#828);
#830=PLANE('',#829);
#832=ORIENTED_EDGE('',*,*,#831,.F.);
#833=ORIENTED_EDGE('',*,*,#816,.F.);
#834=EDGE_LOOP('',(#832,#833));
#835=FACE_OUTER_BOUND('',#834,.F.);
#837=ORIENTED_EDGE('',*,*,#836,.T.);
#839=ORIENTED_EDGE('',*,*,#838,.T.);
#840=EDGE_LOOP('',(#837,#839));
#841=FACE_BOUND('',#840,.F.);
#843=CARTESIAN_POINT('',(0.E0,1.175E1,0.E0));
#844=DIRECTION('',(0.E0,1.E0,0.E0));
#845=DIRECTION('',(0.E0,0.E0,-1.E0));
#846=AXIS2_PLACEMENT_3D('',#843,#844,#845);
#847=PLANE('',#846);
#849=ORIENTED_EDGE('',*,*,#848,.F.);
#851=ORIENTED_EDGE('',*,*,#850,.F.);
#852=EDGE_LOOP('',(#849,#851));
#853=FACE_OUTER_BOUND('',#852,.F.);
#855=ORIENTED_EDGE('',*,*,#854,.T.);
#857=ORIENTED_EDGE('',*,*,#856,.T.);
#858=EDGE_LOOP('',(#855,#857));
#859=FACE_BOUND('',#858,.F.);
#861=CARTESIAN_POINT('',(-3.75E0,1.175E1,2.2E0));
#862=DIRECTION('',(0.E0,1.E0,0.E0));
#863=DIRECTION('',(0.E0,0.E0,-1.E0));
#864=AXIS2_PLACEMENT_3D('',#861,#862,#863);
#865=CYLINDRICAL_SURFACE('',#864,4.E-1);
#866=ORIENTED_EDGE('',*,*,#854,.F.);
#868=ORIENTED_EDGE('',*,*,#867,.T.);
#870=ORIENTED_EDGE('',*,*,#869,.T.);
#872=ORIENTED_EDGE('',*,*,#871,.F.);
#873=EDGE_LOOP('',(#866,#868,#870,#872));
#874=FACE_OUTER_BOUND('',#873,.F.);
#876=CARTESIAN_POINT('',(-3.75E0,1.175E1,2.2E0));
#877=DIRECTION('',(0.E0,1.E0,0.E0));
#878=DIRECTION('',(0.E0,0.E0,-1.E0));
#879=AXIS2_PLACEMENT_3D('',#876,#877,#878);
#880=CYLINDRICAL_SURFACE('',#879,4.E-1);
#881=ORIENTED_EDGE('',*,*,#856,.F.);
#882=ORIENTED_EDGE('',*,*,#871,.T.);
#884=ORIENTED_EDGE('',*,*,#883,.T.);
#885=ORIENTED_EDGE('',*,*,#867,.F.);
#886=EDGE_LOOP('',(#881,#882,#884,#885));
#887=FACE_OUTER_BOUND('',#886,.F.);
#889=CARTESIAN_POINT('',(0.E0,3.175E1,0.E0));
#890=DIRECTION('',(0.E0,1.E0,0.E0));
#891=DIRECTION('',(0.E0,0.E0,-1.E0));
#892=AXIS2_PLACEMENT_3D('',#889,#890,#891);
#893=PLANE('',#892);
#894=ORIENTED_EDGE('',*,*,#869,.F.);
#895=ORIENTED_EDGE('',*,*,#883,.F.);
#896=EDGE_LOOP('',(#894,#895));
#897=FACE_OUTER_BOUND('',#896,.F.);
#899=CARTESIAN_POINT('',(0.E0,3.175E1,0.E0));
#900=DIRECTION('',(0.E0,1.E0,0.E0));
#901=DIRECTION('',(0.E0,0.E0,-1.E0));
#902=AXIS2_PLACEMENT_3D('',#899,#900,#901);
#903=PLANE('',#902);
#905=ORIENTED_EDGE('',*,*,#904,.F.);
#907=ORIENTED_EDGE('',*,*,#906,.F.);
#908=EDGE_LOOP('',(#905,#907));
#909=FACE_OUTER_BOUND('',#908,.F.);
#911=CARTESIAN_POINT('',(3.75E0,1.175E1,3.2E0));
#912=DIRECTION('',(0.E0,1.E0,0.E0));
#913=DIRECTION('',(0.E0,0.E0,-1.E0));
#914=AXIS2_PLACEMENT_3D('',#911,#912,#913);
#915=CYLINDRICAL_SURFACE('',#914,4.E-1);
#916=ORIENTED_EDGE('',*,*,#836,.F.);
#918=ORIENTED_EDGE('',*,*,#917,.T.);
#919=ORIENTED_EDGE('',*,*,#904,.T.);
#921=ORIENTED_EDGE('',*,*,#920,.F.);
#922=EDGE_LOOP('',(#916,#918,#919,#921));
#923=FACE_OUTER_BOUND('',#922,.F.);
#925=CARTESIAN_POINT('',(3.75E0,1.175E1,3.2E0));
#926=DIRECTION('',(0.E0,1.E0,0.E0));
#927=DIRECTION('',(0.E0,0.E0,-1.E0));
#928=AXIS2_PLACEMENT_3D('',#925,#926,#927);
#929=CYLINDRICAL_SURFACE('',#928,4.E-1);
#930=ORIENTED_EDGE('',*,*,#838,.F.);
#931=ORIENTED_EDGE('',*,*,#920,.T.);
#932=ORIENTED_EDGE('',*,*,#906,.T.);
#933=ORIENTED_EDGE('',*,*,#917,.F.);
#934=EDGE_LOOP('',(#930,#931,#932,#933));
#935=FACE_OUTER_BOUND('',#934,.F.);
#937=CARTESIAN_POINT('',(3.75E0,1.155E1,3.2E0));
#938=DIRECTION('',(0.E0,-1.E0,0.E0));
#939=DIRECTION('',(-5.202631100211E-2,0.E0,9.986457144371E-1));
#940=AXIS2_PLACEMENT_3D('',#937,#938,#939);
#941=TOROIDAL_SURFACE('',#940,5.317019965574E-1,2.E-1);
#942=ORIENTED_EDGE('',*,*,#831,.T.);
#943=ORIENTED_EDGE('',*,*,#821,.T.);
#945=ORIENTED_EDGE('',*,*,#944,.F.);
#946=ORIENTED_EDGE('',*,*,#818,.F.);
#947=EDGE_LOOP('',(#942,#943,#945,#946));
#948=FACE_OUTER_BOUND('',#947,.F.);
#950=CARTESIAN_POINT('',(3.75E0,1.055340711163E1,3.2E0));
#951=DIRECTION('',(0.E0,-1.E0,0.E0));
#952=DIRECTION('',(0.E0,0.E0,-1.E0));
#953=AXIS2_PLACEMENT_3D('',#950,#951,#952);
#954=CONICAL_SURFACE('',#953,7.657929393763E-1,1.952509049400E0);
#955=ORIENTED_EDGE('',*,*,#944,.T.);
#956=ORIENTED_EDGE('',*,*,#806,.T.);
#957=ORIENTED_EDGE('',*,*,#776,.F.);
#958=ORIENTED_EDGE('',*,*,#803,.F.);
#959=EDGE_LOOP('',(#955,#956,#957,#958));
#960=FACE_OUTER_BOUND('',#959,.F.);
#962=CARTESIAN_POINT('',(-3.75E0,1.155E1,2.2E0));
#963=DIRECTION('',(0.E0,-1.E0,0.E0));
#964=DIRECTION('',(-5.202631100211E-2,0.E0,9.986457144371E-1));
#965=AXIS2_PLACEMENT_3D('',#962,#963,#964);
#966=TOROIDAL_SURFACE('',#965,5.317019965574E-1,2.E-1);
#967=ORIENTED_EDGE('',*,*,#848,.T.);
#969=ORIENTED_EDGE('',*,*,#968,.T.);
#971=ORIENTED_EDGE('',*,*,#970,.F.);
#973=ORIENTED_EDGE('',*,*,#972,.F.);
#974=EDGE_LOOP('',(#967,#969,#971,#973));
#975=FACE_OUTER_BOUND('',#974,.F.);
#977=CARTESIAN_POINT('',(-3.75E0,1.155E1,2.2E0));
#978=DIRECTION('',(0.E0,-1.E0,0.E0));
#979=DIRECTION('',(5.202631100212E-2,0.E0,-9.986457144371E-1));
#980=AXIS2_PLACEMENT_3D('',#977,#978,#979);
#981=TOROIDAL_SURFACE('',#980,5.317019965574E-1,2.E-1);
#982=ORIENTED_EDGE('',*,*,#850,.T.);
#983=ORIENTED_EDGE('',*,*,#972,.T.);
#985=ORIENTED_EDGE('',*,*,#984,.F.);
#986=ORIENTED_EDGE('',*,*,#968,.F.);
#987=EDGE_LOOP('',(#982,#983,#985,#986));
#988=FACE_OUTER_BOUND('',#987,.F.);
#990=CARTESIAN_POINT('',(-3.75E0,1.055340711163E1,2.2E0));
#991=DIRECTION('',(0.E0,-1.E0,0.E0));
#992=DIRECTION('',(0.E0,0.E0,-1.E0));
#993=AXIS2_PLACEMENT_3D('',#990,#991,#992);
#994=CONICAL_SURFACE('',#993,7.657929393763E-1,1.952509049400E0);
#995=ORIENTED_EDGE('',*,*,#984,.T.);
#997=ORIENTED_EDGE('',*,*,#996,.T.);
#999=ORIENTED_EDGE('',*,*,#998,.F.);
#1001=ORIENTED_EDGE('',*,*,#1000,.F.);
#1002=EDGE_LOOP('',(#995,#997,#999,#1001));
#1003=FACE_OUTER_BOUND('',#1002,.F.);
#1005=CARTESIAN_POINT('',(-3.75E0,1.055340711163E1,2.2E0));
#1006=DIRECTION('',(0.E0,-1.E0,0.E0));
#1007=DIRECTION('',(0.E0,0.E0,-1.E0));
#1008=AXIS2_PLACEMENT_3D('',#1005,#1006,#1007);
#1009=CONICAL_SURFACE('',#1008,7.657929393763E-1,1.952509049400E0);
#1010=ORIENTED_EDGE('',*,*,#970,.T.);
#1011=ORIENTED_EDGE('',*,*,#1000,.T.);
#1013=ORIENTED_EDGE('',*,*,#1012,.F.);
#1014=ORIENTED_EDGE('',*,*,#996,.F.);
#1015=EDGE_LOOP('',(#1010,#1011,#1013,#1014));
#1016=FACE_OUTER_BOUND('',#1015,.F.);
#1018=CARTESIAN_POINT('',(-3.75E0,0.E0,2.2E0));
#1019=DIRECTION('',(0.E0,1.E0,0.E0));
#1020=DIRECTION('',(0.E0,0.E0,-1.E0));
#1021=AXIS2_PLACEMENT_3D('',#1018,#1019,#1020);
#1022=CYLINDRICAL_SURFACE('',#1021,8.E-1);
#1024=ORIENTED_EDGE('',*,*,#1023,.F.);
#1026=ORIENTED_EDGE('',*,*,#1025,.T.);
#1027=ORIENTED_EDGE('',*,*,#1012,.T.);
#1029=ORIENTED_EDGE('',*,*,#1028,.F.);
#1030=EDGE_LOOP('',(#1024,#1026,#1027,#1029));
#1031=FACE_OUTER_BOUND('',#1030,.F.);
#1033=CARTESIAN_POINT('',(-3.701065112428E0,7.395887083332E0,3.287228096818E0));
#1034=CARTESIAN_POINT('',(-3.642486838341E0,7.422775230024E0,3.284509789065E0));
#1035=CARTESIAN_POINT('',(-3.524028339654E0,7.475975487024E0,3.269347017931E0));
#1036=CARTESIAN_POINT('',(-3.351706598282E0,7.549892041883E0,3.217507036734E0));
#1037=CARTESIAN_POINT('',(-3.189641795907E0,7.616201150078E0,3.137402840846E0));
#1038=CARTESIAN_POINT('',(-3.044832312089E0,7.672788185938E0,3.033118471208E0));
#1039=CARTESIAN_POINT('',(-2.920696213022E0,7.719269874587E0,2.908746052658E0));
#1040=CARTESIAN_POINT('',(-2.819124856876E0,7.755893435170E0,2.767940399201E0));
#1041=CARTESIAN_POINT('',(-2.741431378482E0,7.783039543211E0,2.613776855944E0));
#1042=CARTESIAN_POINT('',(-2.689002847186E0,7.800927864022E0,2.449549238832E0));
#1043=CARTESIAN_POINT('',(-2.663032017978E0,7.809659758719E0,2.279181746764E0));
#1044=CARTESIAN_POINT('',(-2.664131848112E0,7.809291715224E0,2.106896301877E0));
#1045=CARTESIAN_POINT('',(-2.692276031489E0,7.799821269074E0,1.936871017895E0));
#1046=CARTESIAN_POINT('',(-2.746804176211E0,7.781186746196E0,1.773306467962E0));
#1047=CARTESIAN_POINT('',(-2.826490331763E0,7.753280749984E0,1.620100931216E0));
#1048=CARTESIAN_POINT('',(-2.929926951689E0,7.715878242962E0,1.480532853459E0));
#1049=CARTESIAN_POINT('',(-3.055779275379E0,7.668598726622E0,1.357677132613E0));
#1050=CARTESIAN_POINT('',(-3.202128059967E0,7.611203920617E0,1.255184845559E0));
#1051=CARTESIAN_POINT('',(-3.365525877799E0,7.544095466679E0,1.177131822040E0));
#1052=CARTESIAN_POINT('',(-3.533854587496E0,7.471611543056E0,1.129006658646E0));
#1053=CARTESIAN_POINT('',(-3.647495225115E0,7.420475393481E0,1.115259616179E0));
#1054=CARTESIAN_POINT('',(-3.701052014974E0,7.395892895708E0,1.112773190663E0));
#1055=CARTESIAN_POINT('',(-3.662720547126E0,7.328536015512E0,3.128649100954E0));
#1056=CARTESIAN_POINT('',(-3.613287174525E0,7.355201780355E0,3.123814382945E0));
#1057=CARTESIAN_POINT('',(-3.514098610720E0,7.407833100080E0,3.105928178220E0));
#1058=CARTESIAN_POINT('',(-3.371982834112E0,7.480636601890E0,3.055439938158E0));
#1059=CARTESIAN_POINT('',(-3.240219872724E0,7.545690910878E0,2.982639439285E0));
#1060=CARTESIAN_POINT('',(-3.123948455950E0,7.601028669153E0,2.891438794006E0));
#1061=CARTESIAN_POINT('',(-3.025290106192E0,7.646374756780E0,2.785355583070E0));
#1062=CARTESIAN_POINT('',(-2.945192069048E0,7.682045519432E0,2.667287048189E0));
#1063=CARTESIAN_POINT('',(-2.884260997762E0,7.708459781627E0,2.539506314793E0));
#1064=CARTESIAN_POINT('',(-2.843289296747E0,7.725857305830E0,2.404391838133E0));
#1065=CARTESIAN_POINT('',(-2.823032432883E0,7.734347946275E0,2.264797803534E0));
#1066=CARTESIAN_POINT('',(-2.823889796760E0,7.733990088117E0,2.123806532817E0));
#1067=CARTESIAN_POINT('',(-2.845844081475E0,7.724781218861E0,1.984462200744E0));
#1068=CARTESIAN_POINT('',(-2.888466014755E0,7.706657486525E0,1.849830183264E0));
#1069=CARTESIAN_POINT('',(-2.950982905958E0,7.679502243640E0,1.722745550355E0));
#1070=CARTESIAN_POINT('',(-3.032596301297E0,7.643068961246E0,1.605579234250E0));
#1071=CARTESIAN_POINT('',(-3.132692322642E0,7.596936939352E0,1.500613503995E0));
#1072=CARTESIAN_POINT('',(-3.250308547912E0,7.540796353107E0,1.410757387346E0));
#1073=CARTESIAN_POINT('',(-3.383300579102E0,7.474938570871E0,1.339533978979E0));
#1074=CARTESIAN_POINT('',(-3.522294370633E0,7.403521167767E0,1.292262455147E0));
#1075=CARTESIAN_POINT('',(-3.617513772460E0,7.352920946811E0,1.275773797684E0));
#1076=CARTESIAN_POINT('',(-3.662709520188E0,7.328541802191E0,1.271352561604E0));
#1077=CARTESIAN_POINT('',(-3.704300554109E0,7.420211065457E0,2.983664417631E0));
#1078=CARTESIAN_POINT('',(-3.662215617593E0,7.447179525829E0,2.981128957471E0));
#1079=CARTESIAN_POINT('',(-3.577288486222E0,7.500585255743E0,2.969068319933E0));
#1080=CARTESIAN_POINT('',(-3.454243293303E0,7.574903792089E0,2.930278887108E0));
#1081=CARTESIAN_POINT('',(-3.338956187937E0,7.641666073700E0,2.871536292252E0));
#1082=CARTESIAN_POINT('',(-3.236279208355E0,7.698704288831E0,2.795881429691E0));
#1083=CARTESIAN_POINT('',(-3.148493110539E0,7.745596102217E0,2.706268983678E0));
#1084=CARTESIAN_POINT('',(-3.076807960740E0,7.782563767810E0,2.605281842214E0));
#1085=CARTESIAN_POINT('',(-3.022052192351E0,7.809974183543E0,2.495055603369E0));
#1086=CARTESIAN_POINT('',(-2.985135638578E0,7.828039756598E0,2.377864703084E0));
#1087=CARTESIAN_POINT('',(-2.966857656226E0,7.836858780784E0,2.256423574873E0));
#1088=CARTESIAN_POINT('',(-2.967631592761E0,7.836487058832E0,2.133655250412E0));
#1089=CARTESIAN_POINT('',(-2.987439670532E0,7.826922143628E0,2.012451017665E0));
#1090=CARTESIAN_POINT('',(-3.025836789718E0,7.808103147653E0,1.895718815724E0));
#1091=CARTESIAN_POINT('',(-3.082002218231E0,7.779926015273E0,1.786155088643E0));
#1092=CARTESIAN_POINT('',(-3.155013986217E0,7.742173470704E0,1.686024478819E0));
#1093=CARTESIAN_POINT('',(-3.244030651112E0,7.694479534293E0,1.597464445914E0));
#1094=CARTESIAN_POINT('',(-3.347824028750E0,7.636631764139E0,1.523058618249E0));
#1095=CARTESIAN_POINT('',(-3.464092704817E0,7.569071627443E0,1.465754389935E0));
#1096=CARTESIAN_POINT('',(-3.584325931450E0,7.496202527654E0,1.429652590412E0));
#1097=CARTESIAN_POINT('',(-3.665813860666E0,7.444872826312E0,1.418655571551E0));
#1098=CARTESIAN_POINT('',(-3.704291150302E0,7.420216887114E0,1.416336639421E0));
#1099=CARTESIAN_POINT('',(-3.783279809342E0,7.577152960670E0,3.000554941592E0));
#1100=CARTESIAN_POINT('',(-3.739231341505E0,7.604639616672E0,3.002382876152E0));
#1101=CARTESIAN_POINT('',(-3.648971475533E0,7.659371087916E0,2.998738795741E0));
#1102=CARTESIAN_POINT('',(-3.514357333837E0,7.736283267697E0,2.970030457872E0));
#1103=CARTESIAN_POINT('',(-3.384869666666E0,7.805969490561E0,2.917722465058E0));
#1104=CARTESIAN_POINT('',(-3.266939989141E0,7.865918780426E0,2.844176229133E0));
#1105=CARTESIAN_POINT('',(-3.164301214463E0,7.915456778681E0,2.752370879334E0));
#1106=CARTESIAN_POINT('',(-3.079364366905E0,7.954644660195E0,2.645339669040E0));
#1107=CARTESIAN_POINT('',(-3.013881099448E0,7.983760427870E0,2.525886015311E0));
#1108=CARTESIAN_POINT('',(-2.969470669290E0,8.002969658364E0,2.397098060341E0));
#1109=CARTESIAN_POINT('',(-2.947412613445E0,8.012350854773E0,2.262623676644E0));
#1110=CARTESIAN_POINT('',(-2.948347485607E0,8.011955398880E0,2.126369827517E0));
#1111=CARTESIAN_POINT('',(-2.972248048885E0,8.001780955504E0,1.992212328949E0));
#1112=CARTESIAN_POINT('',(-3.018422616120E0,7.981771712093E0,1.864040459683E0));
#1113=CARTESIAN_POINT('',(-3.085550246123E0,7.951845169439E0,1.745478398654E0));
#1114=CARTESIAN_POINT('',(-3.171979168429E0,7.911834131354E0,1.639594428484E0));
#1115=CARTESIAN_POINT('',(-3.275924667214E0,7.861466295941E0,1.549177120546E0));
#1116=CARTESIAN_POINT('',(-3.394942017515E0,7.800695934763E0,1.477234150776E0));
#1117=CARTESIAN_POINT('',(-3.525273328809E0,7.730221474753E0,1.426703036278E0));
#1118=CARTESIAN_POINT('',(-3.656507428165E0,7.654867161930E0,1.400663379003E0));
#1119=CARTESIAN_POINT('',(-3.742997304137E0,7.602288636244E0,1.397774761918E0));
#1120=CARTESIAN_POINT('',(-3.783269921246E0,7.577158842208E0,1.399445148644E0));
#1121=(BOUNDED_SURFACE()B_SPLINE_SURFACE(3,3,((#1033,#1034,#1035,#1036,#1037,
#1038,#1039,#1040,#1041,#1042,#1043,#1044,#1045,#1046,#1047,#1048,#1049,#1050,
#1051,#1052,#1053,#1054),(#1055,#1056,#1057,#1058,#1059,#1060,#1061,#1062,#1063,
#1064,#1065,#1066,#1067,#1068,#1069,#1070,#1071,#1072,#1073,#1074,#1075,#1076),(
#1077,#1078,#1079,#1080,#1081,#1082,#1083,#1084,#1085,#1086,#1087,#1088,#1089,
#1090,#1091,#1092,#1093,#1094,#1095,#1096,#1097,#1098),(#1099,#1100,#1101,#1102,
#1103,#1104,#1105,#1106,#1107,#1108,#1109,#1110,#1111,#1112,#1113,#1114,#1115,
#1116,#1117,#1118,#1119,#1120)),.UNSPECIFIED.,.F.,.F.,.F.)B_SPLINE_SURFACE_WITH_KNOTS((4,4),(4,1,1,1,1,1,1,1,1,1,1,1,1,1,1,1,1,1,1,4),(0.E0,1.E0),(
1.836327591905E-3,5.657933396699E-2,1.127825952973E-1,1.680276812248E-1,
2.218378025673E-1,2.740088672033E-1,3.249185594434E-1,3.751822853432E-1,
4.251022602891E-1,4.747714684243E-1,5.243601320572E-1,5.740407430334E-1,
6.239871754218E-1,6.742999633138E-1,7.252822309805E-1,7.775480858180E-1,
8.314751040389E-1,8.868614573739E-1,9.432311254042E-1,9.932708891304E-1),
.UNSPECIFIED.)GEOMETRIC_REPRESENTATION_ITEM()RATIONAL_B_SPLINE_SURFACE(((
1.343514889568E0,1.343514889568E0,1.343514889568E0,1.343514889568E0,
1.343514889568E0,1.343514889568E0,1.343514889568E0,1.343514889568E0,
1.343514889568E0,1.343514889568E0,1.343514889568E0,1.343514889568E0,
1.343514889568E0,1.343514889568E0,1.343514889568E0,1.343514889568E0,
1.343514889568E0,1.343514889568E0,1.343514889568E0,1.343514889568E0,
1.343514889568E0,1.343514889568E0),(8.854950368105E-1,8.854950368105E-1,
8.854950368105E-1,8.854950368105E-1,8.854950368105E-1,8.854950368105E-1,
8.854950368105E-1,8.854950368105E-1,8.854950368105E-1,8.854950368105E-1,
8.854950368105E-1,8.854950368105E-1,8.854950368105E-1,8.854950368105E-1,
8.854950368105E-1,8.854950368105E-1,8.854950368105E-1,8.854950368105E-1,
8.854950368105E-1,8.854950368105E-1,8.854950368105E-1,8.854950368105E-1),(
8.854950368105E-1,8.854950368105E-1,8.854950368105E-1,8.854950368105E-1,
8.854950368105E-1,8.854950368105E-1,8.854950368105E-1,8.854950368105E-1,
8.854950368105E-1,8.854950368105E-1,8.854950368105E-1,8.854950368105E-1,
8.854950368105E-1,8.854950368105E-1,8.854950368105E-1,8.854950368105E-1,
8.854950368105E-1,8.854950368105E-1,8.854950368105E-1,8.854950368105E-1,
8.854950368105E-1,8.854950368105E-1),(1.343514889568E0,1.343514889568E0,
1.343514889568E0,1.343514889568E0,1.343514889568E0,1.343514889568E0,
1.343514889568E0,1.343514889568E0,1.343514889568E0,1.343514889568E0,
1.343514889568E0,1.343514889568E0,1.343514889568E0,1.343514889568E0,
1.343514889568E0,1.343514889568E0,1.343514889568E0,1.343514889568E0,
1.343514889568E0,1.343514889568E0,1.343514889568E0,1.343514889568E0)))REPRESENTATION_ITEM('')SURFACE());
#1122=ORIENTED_EDGE('',*,*,#1023,.T.);
#1124=ORIENTED_EDGE('',*,*,#1123,.F.);
#1125=ORIENTED_EDGE('',*,*,#561,.F.);
#1127=ORIENTED_EDGE('',*,*,#1126,.T.);
#1128=EDGE_LOOP('',(#1122,#1124,#1125,#1127));
#1129=FACE_OUTER_BOUND('',#1128,.F.);
#1131=CARTESIAN_POINT('',(-3.631936988125E0,7.408554485145E0,1.181316578887E0));
#1132=CARTESIAN_POINT('',(-3.690348977855E0,7.380465571055E0,1.174419380257E0));
#1133=CARTESIAN_POINT('',(-3.810981174905E0,7.321194675492E0,1.170653576273E0));
#1134=CARTESIAN_POINT('',(-3.992253584157E0,7.228319717842E0,1.197282880861E0));
#1135=CARTESIAN_POINT('',(-4.169658460598E0,7.133850520208E0,1.257711452093E0));
#1136=CARTESIAN_POINT('',(-4.333807078912E0,7.043460145275E0,1.350131046441E0));
#1137=CARTESIAN_POINT('',(-4.477755456541E0,6.961978762251E0,1.470735817238E0));
#1138=CARTESIAN_POINT('',(-4.596156929682E0,6.893510977376E0,1.614016431809E0));
#1139=CARTESIAN_POINT('',(-4.685706466483E0,6.840915227305E0,1.773830033447E0));
#1140=CARTESIAN_POINT('',(-4.744865316041E0,6.805806242067E0,1.944007478926E0));
#1141=CARTESIAN_POINT('',(-4.773562207449E0,6.788675782686E0,2.119209460651E0));
#1142=CARTESIAN_POINT('',(-4.772298946693E0,6.789431220353E0,2.295713622255E0));
#1143=CARTESIAN_POINT('',(-4.741048362898E0,6.808079904526E0,2.470633887741E0));
#1144=CARTESIAN_POINT('',(-4.679315243890E0,6.844691228137E0,2.640130607077E0));
#1145=CARTESIAN_POINT('',(-4.587264508504E0,6.898696455893E0,2.798774275311E0));
#1146=CARTESIAN_POINT('',(-4.466564658348E0,6.968384076286E0,2.940371663233E0));
#1147=CARTESIAN_POINT('',(-4.320669980668E0,7.050795654124E0,3.058809780502E0));
#1148=CARTESIAN_POINT('',(-4.155110951456E0,7.141725744206E0,3.148655899337E0));
#1149=CARTESIAN_POINT('',(-3.976969464010E0,7.236295774631E0,3.206270752094E0));
#1150=CARTESIAN_POINT('',(-3.800624062169E0,7.326336482624E0,3.229444077838E0));
#1151=CARTESIAN_POINT('',(-3.685300371308E0,7.382892272506E0,3.224982013785E0));
#1152=CARTESIAN_POINT('',(-3.631955308915E0,7.408545434829E0,3.218684928086E0));
#1153=CARTESIAN_POINT('',(-3.629431444382E0,7.395019330971E0,1.319151983229E0));
#1154=CARTESIAN_POINT('',(-3.679621772001E0,7.366986435975E0,1.312110554133E0));
#1155=CARTESIAN_POINT('',(-3.783635764656E0,7.307805534204E0,1.306545257534E0));
#1156=CARTESIAN_POINT('',(-3.941098641067E0,7.214969731680E0,1.326128580272E0));
#1157=CARTESIAN_POINT('',(-4.096398373571E0,7.120423617774E0,1.375365694030E0));
#1158=CARTESIAN_POINT('',(-4.241224735815E0,7.029835557977E0,1.453190563543E0));
#1159=CARTESIAN_POINT('',(-4.369216751411E0,6.948053397476E0,1.556691739553E0));
#1160=CARTESIAN_POINT('',(-4.475269909467E0,6.879224581665E0,1.681313709324E0));
#1161=CARTESIAN_POINT('',(-4.556003517799E0,6.826270691164E0,1.821727737427E0));
#1162=CARTESIAN_POINT('',(-4.609611810442E0,6.790876995468E0,1.972340386142E0));
#1163=CARTESIAN_POINT('',(-4.635700119750E0,6.773592888423E0,2.128081894341E0));
#1164=CARTESIAN_POINT('',(-4.634550500265E0,6.774355315852E0,2.285198678272E0));
#1165=CARTESIAN_POINT('',(-4.606146044818E0,6.793170300056E0,2.440649940757E0));
#1166=CARTESIAN_POINT('',(-4.550225426243E0,6.830075022900E0,2.590584356110E0));
#1167=CARTESIAN_POINT('',(-4.467278528983E0,6.884441330021E0,2.729867180637E0));
#1168=CARTESIAN_POINT('',(-4.359230773667E0,6.954487103126E0,2.852903581216E0));
#1169=CARTESIAN_POINT('',(-4.229591444803E0,7.037192115440E0,2.954410471951E0));
#1170=CARTESIAN_POINT('',(-4.083617157094E0,7.128310060530E0,3.029915530486E0));
#1171=CARTESIAN_POINT('',(-3.927775246780E0,7.222946745458E0,3.076662863458E0));
#1172=CARTESIAN_POINT('',(-3.774690525114E0,7.312940659050E0,3.093337453602E0));
#1173=CARTESIAN_POINT('',(-3.675283833360E0,7.369408298464E0,3.087278713499E0));
#1174=CARTESIAN_POINT('',(-3.629447194124E0,7.395010300752E0,3.080849656654E0));
#1175=CARTESIAN_POINT('',(-3.675451893614E0,7.482973208505E0,1.415766228245E0));
#1176=CARTESIAN_POINT('',(-3.720701678261E0,7.454576291313E0,1.411409260045E0));
#1177=CARTESIAN_POINT('',(-3.813831978955E0,7.394810593618E0,1.410552105056E0));
#1178=CARTESIAN_POINT('',(-3.952749684552E0,7.301720354011E0,1.434097294631E0));
#1179=CARTESIAN_POINT('',(-4.087645500158E0,7.207674055938E0,1.483284530572E0));
#1180=CARTESIAN_POINT('',(-4.211461184685E0,7.118370588108E0,1.556281746290E0));
#1181=CARTESIAN_POINT('',(-4.319166233304E0,7.038542934004E0,1.649823460445E0));
#1182=CARTESIAN_POINT('',(-4.407070135074E0,6.972060162449E0,1.759484046484E0));
#1183=CARTESIAN_POINT('',(-4.473090887606E0,6.921433533173E0,1.880549504345E0));
#1184=CARTESIAN_POINT('',(-4.516464134358E0,6.887889937485E0,2.008499581123E0));
#1185=CARTESIAN_POINT('',(-4.537429525240E0,6.871604260720E0,2.139624323862E0));
#1186=CARTESIAN_POINT('',(-4.536507664431E0,6.872321267411E0,2.271531094928E0));
#1187=CARTESIAN_POINT('',(-4.513671809080E0,6.890055603965E0,2.402480210399E0));
#1188=CARTESIAN_POINT('',(-4.468393143515E0,6.925053765574E0,2.529985478823E0));
#1189=CARTESIAN_POINT('',(-4.400491519727E0,6.977073713746E0,2.650256003262E0));
#1190=CARTESIAN_POINT('',(-4.310824585606E0,7.044792145809E0,2.758735804262E0));
#1191=CARTESIAN_POINT('',(-4.201589661463E0,7.125590367871E0,2.850716343141E0));
#1192=CARTESIAN_POINT('',(-4.076624812490E0,7.215487597174E0,2.921815977621E0));
#1193=CARTESIAN_POINT('',(-3.941078113656E0,7.309691149103E0,2.968887283105E0));
#1194=CARTESIAN_POINT('',(-3.805849285169E0,7.399989141164E0,2.989701469807E0));
#1195=CARTESIAN_POINT('',(-3.716790639891E0,7.457029598251E0,2.988212253844E0));
#1196=CARTESIAN_POINT('',(-3.675466079336E0,7.482964047692E0,2.984234634043E0));
#1197=CARTESIAN_POINT('',(-3.735571932443E0,7.606620678612E0,1.398885335166E0));
#1198=CARTESIAN_POINT('',(-3.782858152992E0,7.577712011115E0,1.398033361214E0));
#1199=CARTESIAN_POINT('',(-3.878981010625E0,7.517124194616E0,1.404869974237E0));
#1200=CARTESIAN_POINT('',(-4.018490947393E0,7.423676261835E0,1.440421135435E0));
#1201=CARTESIAN_POINT('',(-4.149947580677E0,7.330332615710E0,1.500737385187E0));
#1202=CARTESIAN_POINT('',(-4.266781571436E0,7.242835055149E0,1.582285429160E0));
#1203=CARTESIAN_POINT('',(-4.365045069227E0,7.165755088562E0,1.680462164332E0));
#1204=CARTESIAN_POINT('',(-4.442575642671E0,7.102570436943E0,1.790050752949E0));
#1205=CARTESIAN_POINT('',(-4.498992821639E0,7.055215522010E0,1.906292680838E0));
#1206=CARTESIAN_POINT('',(-4.535103038932E0,7.024272837071E0,2.025435544516E0));
#1207=CARTESIAN_POINT('',(-4.552263463949E0,7.009390775264E0,2.145202232574E0));
#1208=CARTESIAN_POINT('',(-4.551513100354E0,7.010043928497E0,2.264935147414E0));
#1209=CARTESIAN_POINT('',(-4.532802627977E0,7.026259067130E0,2.384678232237E0));
#1210=CARTESIAN_POINT('',(-4.495034468592E0,7.058576943570E0,2.503666027128E0));
#1211=CARTESIAN_POINT('',(-4.436864673192E0,7.107298329404E0,2.619495279296E0));
#1212=CARTESIAN_POINT('',(-4.357557191274E0,7.171744934916E0,2.728312187842E0));
#1213=CARTESIAN_POINT('',(-4.257611855297E0,7.249862549852E0,2.825297603961E0));
#1214=CARTESIAN_POINT('',(-4.139364663538E0,7.338043670405E0,2.905223005282E0));
#1215=CARTESIAN_POINT('',(-4.006926621991E0,7.431638314564E0,2.963567422262E0));
#1216=CARTESIAN_POINT('',(-3.870791485939E0,7.522363786736E0,2.996062839944E0));
#1217=CARTESIAN_POINT('',(-3.778770897031E0,7.580209523342E0,3.001891035717E0));
#1218=CARTESIAN_POINT('',(-3.735586731167E0,7.606611334207E0,3.001114420717E0));
#1219=(BOUNDED_SURFACE()B_SPLINE_SURFACE(3,3,((#1131,#1132,#1133,#1134,#1135,
#1136,#1137,#1138,#1139,#1140,#1141,#1142,#1143,#1144,#1145,#1146,#1147,#1148,
#1149,#1150,#1151,#1152),(#1153,#1154,#1155,#1156,#1157,#1158,#1159,#1160,#1161,
#1162,#1163,#1164,#1165,#1166,#1167,#1168,#1169,#1170,#1171,#1172,#1173,#1174),(
#1175,#1176,#1177,#1178,#1179,#1180,#1181,#1182,#1183,#1184,#1185,#1186,#1187,
#1188,#1189,#1190,#1191,#1192,#1193,#1194,#1195,#1196),(#1197,#1198,#1199,#1200,
#1201,#1202,#1203,#1204,#1205,#1206,#1207,#1208,#1209,#1210,#1211,#1212,#1213,
#1214,#1215,#1216,#1217,#1218)),.UNSPECIFIED.,.F.,.F.,.F.)B_SPLINE_SURFACE_WITH_KNOTS((4,4),(4,1,1,1,1,1,1,1,1,1,1,1,1,1,1,1,1,1,1,4),(0.E0,1.E0),(
1.588997773647E-3,5.810648483735E-2,1.170480764885E-1,1.758442313291E-1,
2.334041310216E-1,2.884134944971E-1,3.402179199507E-1,3.887903033902E-1,
4.344601239185E-1,4.780428225983E-1,5.209014622351E-1,5.646106607148E-1,
6.104888360176E-1,6.593182149116E-1,7.114025043177E-1,7.666593791244E-1,
8.243917541343E-1,8.832357966349E-1,9.421011215863E-1,9.937060634788E-1),
.UNSPECIFIED.)GEOMETRIC_REPRESENTATION_ITEM()RATIONAL_B_SPLINE_SURFACE(((
1.230037839325E0,1.230037839325E0,1.230037839325E0,1.230037839325E0,
1.230037839325E0,1.230037839325E0,1.230037839325E0,1.230037839325E0,
1.230037839325E0,1.230037839325E0,1.230037839325E0,1.230037839325E0,
1.230037839325E0,1.230037839325E0,1.230037839325E0,1.230037839325E0,
1.230037839325E0,1.230037839325E0,1.230037839325E0,1.230037839325E0,
1.230037839325E0,1.230037839325E0),(9.233207202249E-1,9.233207202249E-1,
9.233207202249E-1,9.233207202249E-1,9.233207202249E-1,9.233207202249E-1,
9.233207202249E-1,9.233207202249E-1,9.233207202249E-1,9.233207202249E-1,
9.233207202249E-1,9.233207202249E-1,9.233207202249E-1,9.233207202249E-1,
9.233207202249E-1,9.233207202249E-1,9.233207202249E-1,9.233207202249E-1,
9.233207202249E-1,9.233207202249E-1,9.233207202249E-1,9.233207202249E-1),(
9.233207202249E-1,9.233207202249E-1,9.233207202249E-1,9.233207202249E-1,
9.233207202249E-1,9.233207202249E-1,9.233207202249E-1,9.233207202249E-1,
9.233207202249E-1,9.233207202249E-1,9.233207202249E-1,9.233207202249E-1,
9.233207202249E-1,9.233207202249E-1,9.233207202249E-1,9.233207202249E-1,
9.233207202249E-1,9.233207202249E-1,9.233207202249E-1,9.233207202249E-1,
9.233207202249E-1,9.233207202249E-1),(1.230037839325E0,1.230037839325E0,
1.230037839325E0,1.230037839325E0,1.230037839325E0,1.230037839325E0,
1.230037839325E0,1.230037839325E0,1.230037839325E0,1.230037839325E0,
1.230037839325E0,1.230037839325E0,1.230037839325E0,1.230037839325E0,
1.230037839325E0,1.230037839325E0,1.230037839325E0,1.230037839325E0,
1.230037839325E0,1.230037839325E0,1.230037839325E0,1.230037839325E0)))REPRESENTATION_ITEM('')SURFACE());
#1220=ORIENTED_EDGE('',*,*,#559,.F.);
#1221=ORIENTED_EDGE('',*,*,#1123,.T.);
#1223=ORIENTED_EDGE('',*,*,#1222,.T.);
#1224=ORIENTED_EDGE('',*,*,#1126,.F.);
#1225=EDGE_LOOP('',(#1220,#1221,#1223,#1224));
#1226=FACE_OUTER_BOUND('',#1225,.F.);
#1228=CARTESIAN_POINT('',(-3.75E0,0.E0,2.2E0));
#1229=DIRECTION('',(0.E0,1.E0,0.E0));
#1230=DIRECTION('',(0.E0,0.E0,-1.E0));
#1231=AXIS2_PLACEMENT_3D('',#1228,#1229,#1230);
#1232=CYLINDRICAL_SURFACE('',#1231,8.E-1);
#1233=ORIENTED_EDGE('',*,*,#1222,.F.);
#1234=ORIENTED_EDGE('',*,*,#1028,.T.);
#1235=ORIENTED_EDGE('',*,*,#998,.T.);
#1236=ORIENTED_EDGE('',*,*,#1025,.F.);
#1237=EDGE_LOOP('',(#1233,#1234,#1235,#1236));
#1238=FACE_OUTER_BOUND('',#1237,.F.);
#1240=CARTESIAN_POINT('',(0.E0,0.E0,4.4E0));
#1241=DIRECTION('',(0.E0,0.E0,1.E0));
#1242=DIRECTION('',(9.999942659297E-1,-3.386459475679E-3,0.E0));
#1243=AXIS2_PLACEMENT_3D('',#1240,#1241,#1242);
#1244=TOROIDAL_SURFACE('',#1243,7.25E0,1.E0);
#1246=ORIENTED_EDGE('',*,*,#1245,.T.);
#1248=ORIENTED_EDGE('',*,*,#1247,.T.);
#1249=ORIENTED_EDGE('',*,*,#550,.F.);
#1251=ORIENTED_EDGE('',*,*,#1250,.F.);
#1252=EDGE_LOOP('',(#1246,#1248,#1249,#1251));
#1253=FACE_OUTER_BOUND('',#1252,.F.);
#1255=CARTESIAN_POINT('',(0.E0,0.E0,5.4E0));
#1256=DIRECTION('',(0.E0,0.E0,1.E0));
#1257=DIRECTION('',(1.E0,0.E0,0.E0));
#1258=AXIS2_PLACEMENT_3D('',#1255,#1256,#1257);
#1259=PLANE('',#1258);
#1261=ORIENTED_EDGE('',*,*,#1260,.F.);
#1262=ORIENTED_EDGE('',*,*,#1245,.F.);
#1263=EDGE_LOOP('',(#1261,#1262));
#1264=FACE_OUTER_BOUND('',#1263,.F.);
#1266=CARTESIAN_POINT('',(0.E0,0.E0,4.4E0));
#1267=DIRECTION('',(0.E0,0.E0,1.E0));
#1268=DIRECTION('',(-9.999942659297E-1,3.386459475679E-3,0.E0));
#1269=AXIS2_PLACEMENT_3D('',#1266,#1267,#1268);
#1270=TOROIDAL_SURFACE('',#1269,7.25E0,1.E0);
#1271=ORIENTED_EDGE('',*,*,#1260,.T.);
#1272=ORIENTED_EDGE('',*,*,#1250,.T.);
#1274=ORIENTED_EDGE('',*,*,#1273,.F.);
#1275=ORIENTED_EDGE('',*,*,#1247,.F.);
#1276=EDGE_LOOP('',(#1271,#1272,#1274,#1275));
#1277=FACE_OUTER_BOUND('',#1276,.F.);
#1279=CARTESIAN_POINT('',(0.E0,0.E0,0.E0));
#1280=DIRECTION('',(0.E0,0.E0,1.E0));
#1281=DIRECTION('',(1.E0,0.E0,0.E0));
#1282=AXIS2_PLACEMENT_3D('',#1279,#1280,#1281);
#1283=CYLINDRICAL_SURFACE('',#1282,8.25E0);
#1284=ORIENTED_EDGE('',*,*,#1273,.T.);
#1285=ORIENTED_EDGE('',*,*,#555,.F.);
#1286=ORIENTED_EDGE('',*,*,#525,.T.);
#1287=ORIENTED_EDGE('',*,*,#552,.T.);
#1288=EDGE_LOOP('',(#1284,#1285,#1286,#1287));
#1289=FACE_OUTER_BOUND('',#1288,.F.);
#1291=CLOSED_SHELL('',(#516,#531,#544,#571,#670,#767,#782,#795,#810,#825,#842,
#860,#875,#888,#898,#910,#924,#936,#949,#961,#976,#989,#1004,#1017,#1032,#1130,
#1227,#1239,#1254,#1265,#1278,#1290));
#1292=MANIFOLD_SOLID_BREP('',#1291);
#1294=DIMENSIONAL_EXPONENTS(0.E0,0.E0,0.E0,0.E0,0.E0,0.E0,0.E0);
#1296=PLANE_ANGLE_MEASURE_WITH_UNIT(PLANE_ANGLE_MEASURE(1.745329251994E-2),
#1295);
#1297=(CONVERSION_BASED_UNIT('DEGREE',#1296)NAMED_UNIT(*)PLANE_ANGLE_UNIT());
#1299=UNCERTAINTY_MEASURE_WITH_UNIT(LENGTH_MEASURE(1.816915357845E-3),#1293,
'closure',
'Maximum model space distance between geometric entities at asserted connectivities');
#1302=APPLICATION_CONTEXT(
'CONFIGURATION CONTROLLED 3D DESIGNS OF MECHANICAL PARTS AND ASSEMBLIES');
#1303=APPLICATION_PROTOCOL_DEFINITION('international standard',
'config_control_design',1994,#1302);
#1304=DESIGN_CONTEXT('',#1302,'design');
#1305=MECHANICAL_CONTEXT('',#1302,'mechanical');
#1306=PRODUCT('MOV-14D180K','MOV-14D180K','NOT SPECIFIED',(#1305));
#1307=PRODUCT_DEFINITION_FORMATION_WITH_SPECIFIED_SOURCE('3','LAST_VERSION',
#1306,.MADE.);
#1311=PRODUCT_CATEGORY('part','');
#1312=PRODUCT_RELATED_PRODUCT_CATEGORY('detail','',(#1306));
#1313=PRODUCT_CATEGORY_RELATIONSHIP('','',#1311,#1312);
#1314=SECURITY_CLASSIFICATION_LEVEL('unclassified');
#1315=SECURITY_CLASSIFICATION('','',#1314);
#1316=CC_DESIGN_SECURITY_CLASSIFICATION(#1315,(#1307));
#1317=APPROVAL_STATUS('approved');
#1318=APPROVAL(#1317,'');
#1319=CC_DESIGN_APPROVAL(#1318,(#1315,#1307,#1308));
#1320=CALENDAR_DATE(112,23,8);
#1321=COORDINATED_UNIVERSAL_TIME_OFFSET(7,0,.BEHIND.);
#1322=LOCAL_TIME(16,23,4.E0,#1321);
#1323=DATE_AND_TIME(#1320,#1322);
#1324=APPROVAL_DATE_TIME(#1323,#1318);
#1325=DATE_TIME_ROLE('creation_date');
#1326=CC_DESIGN_DATE_AND_TIME_ASSIGNMENT(#1323,#1325,(#1308));
#1327=DATE_TIME_ROLE('classification_date');
#1328=CC_DESIGN_DATE_AND_TIME_ASSIGNMENT(#1323,#1327,(#1315));
#1329=PERSON('UNSPECIFIED','UNSPECIFIED',$,$,$,$);
#1330=ORGANIZATION('UNSPECIFIED','UNSPECIFIED','UNSPECIFIED');
#1331=PERSON_AND_ORGANIZATION(#1329,#1330);
#1332=APPROVAL_ROLE('approver');
#1333=APPROVAL_PERSON_ORGANIZATION(#1331,#1318,#1332);
#1334=PERSON_AND_ORGANIZATION_ROLE('creator');
#1335=CC_DESIGN_PERSON_AND_ORGANIZATION_ASSIGNMENT(#1331,#1334,(#1307,#1308));
#1336=PERSON_AND_ORGANIZATION_ROLE('design_supplier');
#1337=CC_DESIGN_PERSON_AND_ORGANIZATION_ASSIGNMENT(#1331,#1336,(#1307));
#1338=PERSON_AND_ORGANIZATION_ROLE('classification_officer');
#1339=CC_DESIGN_PERSON_AND_ORGANIZATION_ASSIGNMENT(#1331,#1338,(#1315));
#1340=PERSON_AND_ORGANIZATION_ROLE('design_owner');
#1341=CC_DESIGN_PERSON_AND_ORGANIZATION_ASSIGNMENT(#1331,#1340,(#1306));
#5=CIRCLE('',#4,7.25E0);
#10=CIRCLE('',#9,7.25E0);
#15=CIRCLE('',#14,1.E0);
#20=CIRCLE('',#19,1.E0);
#43=B_SPLINE_CURVE_WITH_KNOTS('',3,(#21,#22,#23,#24,#25,#26,#27,#28,#29,#30,#31,
#32,#33,#34,#35,#36,#37,#38,#39,#40,#41,#42),.UNSPECIFIED.,.F.,.F.,(4,1,1,1,1,1,
1,1,1,1,1,1,1,1,1,1,1,1,1,4),(0.E0,5.263157894737E-2,1.052631578947E-1,
1.578947368421E-1,2.105263157895E-1,2.631578947368E-1,3.157894736842E-1,
3.684210526316E-1,4.210526315789E-1,4.736842105263E-1,5.263157894737E-1,
5.789473684211E-1,6.315789473684E-1,6.842105263158E-1,7.368421052632E-1,
7.894736842105E-1,8.421052631579E-1,8.947368421053E-1,9.473684210526E-1,1.E0),
.UNSPECIFIED.);
#66=B_SPLINE_CURVE_WITH_KNOTS('',3,(#44,#45,#46,#47,#48,#49,#50,#51,#52,#53,#54,
#55,#56,#57,#58,#59,#60,#61,#62,#63,#64,#65),.UNSPECIFIED.,.F.,.F.,(4,1,1,1,1,1,
1,1,1,1,1,1,1,1,1,1,1,1,1,4),(0.E0,5.263157894737E-2,1.052631578947E-1,
1.578947368421E-1,2.105263157895E-1,2.631578947368E-1,3.157894736842E-1,
3.684210526316E-1,4.210526315789E-1,4.736842105263E-1,5.263157894737E-1,
5.789473684211E-1,6.315789473684E-1,6.842105263158E-1,7.368421052632E-1,
7.894736842105E-1,8.421052631579E-1,8.947368421053E-1,9.473684210526E-1,1.E0),
.UNSPECIFIED.);
#89=B_SPLINE_CURVE_WITH_KNOTS('',3,(#67,#68,#69,#70,#71,#72,#73,#74,#75,#76,#77,
#78,#79,#80,#81,#82,#83,#84,#85,#86,#87,#88),.UNSPECIFIED.,.F.,.F.,(4,1,1,1,1,1,
1,1,1,1,1,1,1,1,1,1,1,1,1,4),(0.E0,5.263157894737E-2,1.052631578947E-1,
1.578947368421E-1,2.105263157895E-1,2.631578947368E-1,3.157894736842E-1,
3.684210526316E-1,4.210526315789E-1,4.736842105263E-1,5.263157894737E-1,
5.789473684211E-1,6.315789473684E-1,6.842105263158E-1,7.368421052632E-1,
7.894736842105E-1,8.421052631579E-1,8.947368421053E-1,9.473684210526E-1,1.E0),
.UNSPECIFIED.);
#112=B_SPLINE_CURVE_WITH_KNOTS('',3,(#90,#91,#92,#93,#94,#95,#96,#97,#98,#99,
#100,#101,#102,#103,#104,#105,#106,#107,#108,#109,#110,#111),.UNSPECIFIED.,.F.,
.F.,(4,1,1,1,1,1,1,1,1,1,1,1,1,1,1,1,1,1,1,4),(0.E0,5.263157894737E-2,
1.052631578947E-1,1.578947368421E-1,2.105263157895E-1,2.631578947368E-1,
3.157894736842E-1,3.684210526316E-1,4.210526315789E-1,4.736842105263E-1,
5.263157894737E-1,5.789473684211E-1,6.315789473684E-1,6.842105263158E-1,
7.368421052632E-1,7.894736842105E-1,8.421052631579E-1,8.947368421053E-1,
9.473684210526E-1,1.E0),.UNSPECIFIED.);
#117=CIRCLE('',#116,8.25E0);
#122=CIRCLE('',#121,8.25E0);
#131=CIRCLE('',#130,1.999996983866E-1);
#136=CIRCLE('',#135,1.999996859732E-1);
#159=B_SPLINE_CURVE_WITH_KNOTS('',3,(#137,#138,#139,#140,#141,#142,#143,#144,
#145,#146,#147,#148,#149,#150,#151,#152,#153,#154,#155,#156,#157,#158),
.UNSPECIFIED.,.F.,.F.,(4,1,1,1,1,1,1,1,1,1,1,1,1,1,1,1,1,1,1,4),(0.E0,
5.263157894737E-2,1.052631578947E-1,1.578947368421E-1,2.105263157895E-1,
2.631578947368E-1,3.157894736842E-1,3.684210526316E-1,4.210526315789E-1,
4.736842105263E-1,5.263157894737E-1,5.789473684211E-1,6.315789473684E-1,
6.842105263158E-1,7.368421052632E-1,7.894736842105E-1,8.421052631579E-1,
8.947368421053E-1,9.473684210526E-1,1.E0),.UNSPECIFIED.);
#168=CIRCLE('',#167,8.E-1);
#191=B_SPLINE_CURVE_WITH_KNOTS('',3,(#169,#170,#171,#172,#173,#174,#175,#176,
#177,#178,#179,#180,#181,#182,#183,#184,#185,#186,#187,#188,#189,#190),
.UNSPECIFIED.,.F.,.F.,(4,1,1,1,1,1,1,1,1,1,1,1,1,1,1,1,1,1,1,4),(0.E0,
5.263157894737E-2,1.052631578947E-1,1.578947368421E-1,2.105263157895E-1,
2.631578947368E-1,3.157894736842E-1,3.684210526316E-1,4.210526315789E-1,
4.736842105263E-1,5.263157894737E-1,5.789473684211E-1,6.315789473684E-1,
6.842105263158E-1,7.368421052632E-1,7.894736842105E-1,8.421052631579E-1,
8.947368421053E-1,9.473684210526E-1,1.E0),.UNSPECIFIED.);
#200=CIRCLE('',#199,8.E-1);
#205=CIRCLE('',#204,7.315858787526E-1);
#214=CIRCLE('',#213,2.E-1);
#219=CIRCLE('',#218,4.E-1);
#224=CIRCLE('',#223,4.E-1);
#229=CIRCLE('',#228,4.E-1);
#234=CIRCLE('',#233,4.E-1);
#239=CIRCLE('',#238,5.317019965574E-1);
#244=CIRCLE('',#243,5.317019965574E-1);
#249=CIRCLE('',#248,5.317019965574E-1);
#254=CIRCLE('',#253,5.317019965574E-1);
#267=CIRCLE('',#266,4.E-1);
#272=CIRCLE('',#271,4.E-1);
#277=CIRCLE('',#276,4.E-1);
#282=CIRCLE('',#281,4.E-1);
#295=CIRCLE('',#294,2.E-1);
#300=CIRCLE('',#299,7.315858787526E-1);
#309=CIRCLE('',#308,2.E-1);
#314=CIRCLE('',#313,2.E-1);
#319=CIRCLE('',#318,7.315858787526E-1);
#328=CIRCLE('',#327,7.315858787526E-1);
#355=B_SPLINE_CURVE_WITH_KNOTS('',3,(#333,#334,#335,#336,#337,#338,#339,#340,
#341,#342,#343,#344,#345,#346,#347,#348,#349,#350,#351,#352,#353,#354),
.UNSPECIFIED.,.F.,.F.,(4,1,1,1,1,1,1,1,1,1,1,1,1,1,1,1,1,1,1,4),(0.E0,
5.263157894737E-2,1.052631578947E-1,1.578947368421E-1,2.105263157895E-1,
2.631578947368E-1,3.157894736842E-1,3.684210526316E-1,4.210526315789E-1,
4.736842105263E-1,5.263157894737E-1,5.789473684211E-1,6.315789473684E-1,
6.842105263158E-1,7.368421052632E-1,7.894736842105E-1,8.421052631579E-1,
8.947368421053E-1,9.473684210526E-1,1.E0),.UNSPECIFIED.);
#364=CIRCLE('',#363,8.E-1);
#369=CIRCLE('',#368,1.999996983866E-1);
#374=CIRCLE('',#373,1.999996857403E-1);
#397=B_SPLINE_CURVE_WITH_KNOTS('',3,(#375,#376,#377,#378,#379,#380,#381,#382,
#383,#384,#385,#386,#387,#388,#389,#390,#391,#392,#393,#394,#395,#396),
.UNSPECIFIED.,.F.,.F.,(4,1,1,1,1,1,1,1,1,1,1,1,1,1,1,1,1,1,1,4),(0.E0,
5.263157894737E-2,1.052631578947E-1,1.578947368421E-1,2.105263157895E-1,
2.631578947368E-1,3.157894736842E-1,3.684210526316E-1,4.210526315789E-1,
4.736842105263E-1,5.263157894737E-1,5.789473684211E-1,6.315789473684E-1,
6.842105263158E-1,7.368421052632E-1,7.894736842105E-1,8.421052631579E-1,
8.947368421053E-1,9.473684210526E-1,1.E0),.UNSPECIFIED.);
#406=CIRCLE('',#405,8.E-1);
#411=CIRCLE('',#410,1.E0);
#416=CIRCLE('',#415,7.25E0);
#421=CIRCLE('',#420,7.25E0);
#426=CIRCLE('',#425,1.E0);
#431=CIRCLE('',#430,8.25E0);
#436=CIRCLE('',#435,8.25E0);
#510=EDGE_CURVE('',#499,#500,#5,.T.);
#512=EDGE_CURVE('',#500,#499,#10,.T.);
#516=ADVANCED_FACE('',(#515),#509,.F.);
#523=EDGE_CURVE('',#500,#504,#20,.T.);
#525=EDGE_CURVE('',#503,#504,#436,.T.);
#527=EDGE_CURVE('',#499,#503,#15,.T.);
#531=ADVANCED_FACE('',(#530),#521,.T.);
#539=EDGE_CURVE('',#504,#503,#122,.T.);
#544=ADVANCED_FACE('',(#543),#536,.T.);
#550=EDGE_CURVE('',#496,#495,#117,.T.);
#552=EDGE_CURVE('',#504,#495,#440,.T.);
#555=EDGE_CURVE('',#503,#496,#126,.T.);
#559=EDGE_CURVE('',#485,#486,#89,.T.);
#561=EDGE_CURVE('',#486,#485,#112,.T.);
#565=EDGE_CURVE('',#481,#482,#43,.T.);
#567=EDGE_CURVE('',#482,#481,#66,.T.);
#571=ADVANCED_FACE('',(#558,#564,#570),#549,.T.);
#662=EDGE_CURVE('',#481,#483,#131,.T.);
#664=EDGE_CURVE('',#483,#484,#191,.T.);
#666=EDGE_CURVE('',#482,#484,#136,.T.);
#670=ADVANCED_FACE('',(#669),#660,.F.);
#762=EDGE_CURVE('',#484,#483,#159,.T.);
#767=ADVANCED_FACE('',(#766),#759,.F.);
#774=EDGE_CURVE('',#484,#447,#163,.T.);
#776=EDGE_CURVE('',#447,#448,#168,.T.);
#778=EDGE_CURVE('',#483,#448,#195,.T.);
#782=ADVANCED_FACE('',(#781),#772,.T.);
#790=EDGE_CURVE('',#448,#447,#200,.T.);
#795=ADVANCED_FACE('',(#794),#787,.T.);
#801=EDGE_CURVE('',#472,#471,#205,.T.);
#803=EDGE_CURVE('',#471,#447,#304,.T.);
#806=EDGE_CURVE('',#472,#448,#209,.T.);
#810=ADVANCED_FACE('',(#809),#800,.T.);
#816=EDGE_CURVE('',#468,#467,#244,.T.);
#818=EDGE_CURVE('',#467,#471,#295,.T.);
#821=EDGE_CURVE('',#468,#472,#214,.T.);
#825=ADVANCED_FACE('',(#824),#815,.T.);
#831=EDGE_CURVE('',#467,#468,#239,.T.);
#836=EDGE_CURVE('',#463,#464,#229,.T.);
#838=EDGE_CURVE('',#464,#463,#234,.T.);
#842=ADVANCED_FACE('',(#835,#841),#830,.T.);
#848=EDGE_CURVE('',#475,#476,#249,.T.);
#850=EDGE_CURVE('',#476,#475,#254,.T.);
#854=EDGE_CURVE('',#459,#460,#219,.T.);
#856=EDGE_CURVE('',#460,#459,#224,.T.);
#860=ADVANCED_FACE('',(#853,#859),#847,.T.);
#867=EDGE_CURVE('',#459,#451,#258,.T.);
#869=EDGE_CURVE('',#451,#452,#267,.T.);
#871=EDGE_CURVE('',#460,#452,#262,.T.);
#875=ADVANCED_FACE('',(#874),#865,.T.);
#883=EDGE_CURVE('',#452,#451,#272,.T.);
#888=ADVANCED_FACE('',(#887),#880,.T.);
#898=ADVANCED_FACE('',(#897),#893,.T.);
#904=EDGE_CURVE('',#455,#456,#277,.T.);
#906=EDGE_CURVE('',#456,#455,#282,.T.);
#910=ADVANCED_FACE('',(#909),#903,.T.);
#917=EDGE_CURVE('',#463,#455,#286,.T.);
#920=EDGE_CURVE('',#464,#456,#290,.T.);
#924=ADVANCED_FACE('',(#923),#915,.T.);
#936=ADVANCED_FACE('',(#935),#929,.T.);
#944=EDGE_CURVE('',#471,#472,#300,.T.);
#949=ADVANCED_FACE('',(#948),#941,.T.);
#961=ADVANCED_FACE('',(#960),#954,.T.);
#968=EDGE_CURVE('',#476,#480,#314,.T.);
#970=EDGE_CURVE('',#479,#480,#328,.T.);
#972=EDGE_CURVE('',#475,#479,#309,.T.);
#976=ADVANCED_FACE('',(#975),#966,.T.);
#984=EDGE_CURVE('',#480,#479,#319,.T.);
#989=ADVANCED_FACE('',(#988),#981,.T.);
#996=EDGE_CURVE('',#479,#443,#332,.T.);
#998=EDGE_CURVE('',#444,#443,#406,.T.);
#1000=EDGE_CURVE('',#480,#444,#323,.T.);
#1004=ADVANCED_FACE('',(#1003),#994,.T.);
#1012=EDGE_CURVE('',#443,#444,#364,.T.);
#1017=ADVANCED_FACE('',(#1016),#1009,.T.);
#1023=EDGE_CURVE('',#488,#487,#355,.T.);
#1025=EDGE_CURVE('',#488,#443,#359,.T.);
#1028=EDGE_CURVE('',#487,#444,#401,.T.);
#1032=ADVANCED_FACE('',(#1031),#1022,.T.);
#1123=EDGE_CURVE('',#485,#487,#374,.T.);
#1126=EDGE_CURVE('',#486,#488,#369,.T.);
#1130=ADVANCED_FACE('',(#1129),#1121,.F.);
#1222=EDGE_CURVE('',#487,#488,#397,.T.);
#1227=ADVANCED_FACE('',(#1226),#1219,.F.);
#1239=ADVANCED_FACE('',(#1238),#1232,.T.);
#1245=EDGE_CURVE('',#492,#491,#421,.T.);
#1247=EDGE_CURVE('',#491,#495,#426,.T.);
#1250=EDGE_CURVE('',#492,#496,#411,.T.);
#1254=ADVANCED_FACE('',(#1253),#1244,.T.);
#1260=EDGE_CURVE('',#491,#492,#416,.T.);
#1265=ADVANCED_FACE('',(#1264),#1259,.T.);
#1273=EDGE_CURVE('',#495,#496,#431,.T.);
#1278=ADVANCED_FACE('',(#1277),#1270,.T.);
#1290=ADVANCED_FACE('',(#1289),#1283,.T.);
#1293=(LENGTH_UNIT()NAMED_UNIT(*)SI_UNIT(.MILLI.,.METRE.));
#1295=(NAMED_UNIT(*)PLANE_ANGLE_UNIT()SI_UNIT($,.RADIAN.));
#1298=(NAMED_UNIT(*)SI_UNIT($,.STERADIAN.)SOLID_ANGLE_UNIT());
#1300=(GEOMETRIC_REPRESENTATION_CONTEXT(3)GLOBAL_UNCERTAINTY_ASSIGNED_CONTEXT((
#1299))GLOBAL_UNIT_ASSIGNED_CONTEXT((#1293,#1297,#1298))REPRESENTATION_CONTEXT(
'ID1','3'));
#1301=ADVANCED_BREP_SHAPE_REPRESENTATION('',(#1292),#1300);
#1308=PRODUCT_DEFINITION('design','',#1307,#1304);
#1309=PRODUCT_DEFINITION_SHAPE('','SHAPE FOR MOV-14D180K.',#1308);
#1310=SHAPE_DEFINITION_REPRESENTATION(#1309,#1301);
ENDSEC;
END-ISO-10303-21;
